# Blender v2.82 (sub 7) OBJ File: 'plants2.blend'
# www.blender.org
mtllib grass_group.mtl
o Grass_group_Plane.018
v -0.545508 -0.219516 -1.427292
v 0.309940 -0.219516 -1.046422
v -0.608409 0.638973 -1.286014
v 0.247039 0.638973 -0.905143
v -0.514980 0.201846 -1.495859
v 0.340468 0.201846 -1.114989
v 0.316290 0.429801 -1.060685
v -0.539158 0.429800 -1.441556
v -1.497032 -0.310116 -0.854862
v -1.456051 -0.310115 0.092616
v -1.569665 0.549043 -0.851720
v -1.528684 0.549043 0.095757
v -1.497032 0.157358 -0.854862
v -1.456051 0.157358 0.092616
v -0.536443 -0.202691 -0.278309
v -1.289065 -0.202691 0.298712
v -0.580677 0.656468 -0.336005
v -1.333299 0.656468 0.241016
v -0.536443 0.264783 -0.278309
v -1.289065 0.264783 0.298712
v -1.039036 -0.202690 -0.428027
v -0.738813 -0.202690 0.458945
v -1.325853 0.615374 -0.330945
v -1.025630 0.615375 0.556027
v -1.039036 0.225304 -0.428027
v -0.738813 0.225304 0.458944
v -0.832110 0.439302 0.490524
v -1.132334 0.439302 -0.396448
v -1.224456 -0.000000 -0.523513
v -0.391603 -0.000000 -0.951541
v -1.140115 0.852569 -0.359402
v -0.307262 0.852569 -0.787431
v -1.252022 0.423725 -0.577149
v -0.419168 0.423725 -1.005178
v -0.388377 0.649466 -0.945265
v -1.221231 0.649466 -0.517236
v -0.545743 -0.129892 -0.250871
v -0.874402 -0.129892 -1.140464
v -0.477547 0.729266 -0.276066
v -0.806207 0.729266 -1.165659
v -0.545743 0.337581 -0.250871
v -0.874402 0.337581 -1.140465
v -0.546106 -0.281756 -1.558737
v -1.263433 -0.281756 -0.956828
v -0.654167 0.574198 -1.687520
v -1.371495 0.574198 -1.085611
v -0.502121 0.140733 -1.506318
v -1.219448 0.140733 -0.904409
v -1.259954 0.367726 -0.952682
v -0.542627 0.367726 -1.554591
v -0.220133 -0.292839 -1.584474
v 0.710811 -0.292839 -1.765408
v -0.215434 0.569038 -1.560298
v 0.715509 0.569038 -1.741232
v -0.225112 0.173905 -1.610090
v 0.705832 0.173905 -1.791023
v 0.222357 -0.198363 -1.886959
v 0.939167 -0.198363 -1.266011
v 0.174756 0.660795 -1.832009
v 0.891566 0.660796 -1.211061
v 0.222357 0.269110 -1.886959
v 0.939167 0.269110 -1.266011
v 0.827315 0.000000 -0.238685
v 0.274269 0.000000 -0.994326
v 1.071663 0.818065 -0.417521
v 0.518618 0.818065 -1.173163
v 0.827314 0.427995 -0.238685
v 0.274269 0.427995 -0.994326
v 0.353752 0.641992 -1.052499
v 0.906798 0.641992 -0.296858
v 0.946941 0.000000 -1.001064
v 0.261040 0.000000 -0.346136
v 0.896735 0.859158 -1.053645
v 0.210833 0.859158 -0.398716
v 0.946941 0.467473 -1.001065
v 0.261040 0.467473 -0.346136
v 0.063467 -0.000000 -0.408942
v 0.167847 0.000000 0.521626
v -0.237448 0.818065 -0.375189
v -0.133067 0.818065 0.555379
v 0.063467 0.427995 -0.408942
v 0.167847 0.427995 0.521626
v 0.069964 0.641992 0.532606
v -0.034416 0.641992 -0.397963
v -0.828722 -0.145919 0.850566
v -0.188953 -0.145919 0.150503
v -0.775055 0.713239 0.899611
v -0.135287 0.713239 0.199547
v -0.828721 0.321554 0.850566
v -0.188953 0.321554 0.150503
v -0.741509 -0.000000 0.165687
v -0.070018 -0.000000 0.835383
v -0.792848 0.859158 0.217163
v -0.121356 0.859158 0.886859
v -0.741509 0.467473 0.165687
v -0.070018 0.467473 0.835383
v -0.780797 -0.103834 1.248111
v -1.573177 -0.103834 0.749122
v -0.620203 0.714759 0.993089
v -1.412583 0.714758 0.494102
v -0.781196 0.324160 1.248742
v -1.573575 0.324160 0.749754
v -1.521287 0.538329 0.666723
v -0.728909 0.538329 1.165711
v -0.741596 -0.428034 1.434022
v -0.071017 -0.428034 2.104632
v -0.793004 0.431124 1.485428
v -0.122425 0.431124 2.156039
v -0.741596 0.039439 1.434022
v -0.071017 0.039439 2.104633
v -0.485886 -0.333558 1.918646
v 0.425744 -0.333558 1.657258
v -0.465848 0.525601 1.988530
v 0.445782 0.525601 1.727143
v -0.485886 0.133916 1.918647
v 0.425744 0.133916 1.657258
v 1.231355 -0.292839 0.855417
v 0.573742 -0.292839 1.538746
v 1.249388 0.569027 0.872771
v 0.591775 0.569026 1.556099
v 1.269486 0.171629 0.892112
v 0.611873 0.171629 1.575441
v 0.347654 0.000000 0.174405
v 1.053294 0.000000 0.789974
v 0.197192 0.841744 0.346882
v 0.902833 0.841744 0.962451
v 0.372665 0.426300 0.145735
v 1.078304 0.426300 0.761304
v 1.026316 0.648206 0.820899
v 0.320677 0.648206 0.205329
v 1.104331 0.000000 0.398776
v 0.355503 0.000000 0.961012
v 0.922522 0.818065 0.156630
v 0.173694 0.818065 0.718865
v 1.104330 0.427995 0.398776
v 0.355502 0.427995 0.961012
v 0.296363 0.641992 0.882245
v 1.045191 0.641992 0.320009
v 0.654472 -0.292839 -0.391042
v 1.289035 -0.292839 0.313745
v 0.600444 0.566319 -0.342397
v 1.235006 0.566319 0.362389
v 0.654472 0.174634 -0.391043
v 1.289035 0.174634 0.313744
v 0.509120 -0.198363 0.279318
v 1.189026 -0.198363 -0.381833
v 0.559803 0.660796 0.331439
v 1.239710 0.660796 -0.329711
v 0.509120 0.269110 0.279318
v 1.189026 0.269110 -0.381832
v 1.470548 -0.232495 0.503144
v 1.636880 -0.232495 -0.430519
v 1.542122 0.626663 0.515895
v 1.708454 0.626663 -0.417768
v 1.470548 0.234978 0.503145
v 1.636880 0.234978 -0.430519
v 1.223154 -0.241689 -1.312900
v 1.569386 -0.241689 -0.442856
v 0.941810 0.576377 -1.200940
v 1.288043 0.576377 -0.330896
v 1.223154 0.186306 -1.312900
v 1.569386 0.186306 -0.442856
v 1.477870 0.400304 -0.406437
v 1.131637 0.400303 -1.276481
v 0.440581 -0.273459 1.452293
v -0.481312 -0.273459 1.288078
v 0.493682 0.544606 1.154183
v -0.428210 0.544606 0.989969
v 0.440581 0.154536 1.452293
v -0.481312 0.154536 1.288078
v -0.464039 0.368533 1.191108
v 0.457854 0.368533 1.355322
v -0.057092 -0.040598 1.599481
v -0.104467 -0.040598 0.664276
v 0.245322 0.777467 1.584162
v 0.197947 0.777467 0.648956
v -0.057092 0.387397 1.599481
v -0.104468 0.387397 0.664275
v -0.006096 0.601394 0.659292
v 0.041279 0.601394 1.594497
v 0.371520 -0.000000 -0.040438
v -0.556881 -0.000000 0.153121
v 0.356682 0.859158 -0.111608
v -0.571719 0.859158 0.081951
v 0.371520 0.467473 -0.040438
v -0.556881 0.467473 0.153122
v -0.387078 -0.070222 -0.574651
v -0.076041 -0.070222 -1.457889
v -0.101469 0.747843 -0.474072
v 0.209568 0.747843 -1.357311
v -0.387078 0.357773 -0.574651
v -0.076041 0.357773 -1.457889
v 0.016863 0.571770 -1.425173
v -0.294174 0.571770 -0.541935
vt -0.001568 0.710265
vt -0.001568 0.998232
vt 0.998232 0.998232
vt 0.998232 0.710265
vt -0.001569 0.001768
vt -0.001569 0.458739
vt 0.998232 0.458739
vt 0.998232 0.001768
vt 0.000187 0.005813
vt 0.000187 0.498641
vt 0.999988 0.498641
vt 0.999988 0.005813
vt 0.000187 0.994187
vt 0.999988 0.994187
vt 0.000187 0.005813
vt 0.000187 0.498641
vt 0.999988 0.498641
vt 0.999988 0.005813
vt 0.000187 0.994187
vt 0.999988 0.994187
vt -0.001568 0.710265
vt -0.001568 0.998232
vt 0.998232 0.998232
vt 0.998232 0.710265
vt -0.001569 0.001768
vt -0.001569 0.458739
vt 0.998232 0.458739
vt 0.998232 0.001768
vt -0.001568 0.710265
vt -0.001568 0.998232
vt 0.998232 0.998232
vt 0.998232 0.710265
vt -0.001569 0.001768
vt -0.001569 0.458739
vt 0.998232 0.458739
vt 0.998232 0.001768
vt 0.000187 0.005813
vt 0.000187 0.498641
vt 0.999988 0.498641
vt 0.999988 0.005813
vt 0.000187 0.994187
vt 0.999988 0.994187
vt -0.001568 0.710265
vt -0.001568 0.998232
vt 0.998232 0.998232
vt 0.998232 0.710265
vt -0.001569 0.001768
vt -0.001569 0.458739
vt 0.998232 0.458739
vt 0.998232 0.001768
vt 0.000187 0.005813
vt 0.000187 0.498641
vt 0.999988 0.498641
vt 0.999988 0.005813
vt 0.000187 0.994187
vt 0.999988 0.994187
vt 0.000187 0.005813
vt 0.000187 0.498641
vt 0.999988 0.498641
vt 0.999988 0.005813
vt 0.000187 0.994187
vt 0.999988 0.994187
vt -0.001568 0.710265
vt -0.001568 0.998232
vt 0.998232 0.998232
vt 0.998232 0.710265
vt -0.001569 0.001768
vt -0.001569 0.458739
vt 0.998232 0.458739
vt 0.998232 0.001768
vt 0.000187 0.005813
vt 0.000187 0.498641
vt 0.999988 0.498641
vt 0.999988 0.005813
vt 0.000187 0.994187
vt 0.999988 0.994187
vt -0.001568 0.710265
vt -0.001568 0.998232
vt 0.998232 0.998232
vt 0.998232 0.710265
vt -0.001569 0.001768
vt -0.001569 0.458739
vt 0.998232 0.458739
vt 0.998232 0.001768
vt 0.000187 0.005813
vt 0.000187 0.498641
vt 0.999988 0.498641
vt 0.999988 0.005813
vt 0.000187 0.994187
vt 0.999988 0.994187
vt 0.000187 0.005813
vt 0.000187 0.498641
vt 0.999988 0.498641
vt 0.999988 0.005813
vt 0.000187 0.994187
vt 0.999988 0.994187
vt 0.000187 0.005813
vt 0.000187 0.498641
vt 0.999988 0.498641
vt 0.999988 0.005813
vt 0.000187 0.994187
vt 0.999988 0.994187
vt -0.001568 0.710265
vt -0.001568 0.998232
vt 0.998232 0.998232
vt 0.998232 0.710265
vt -0.001569 0.001768
vt -0.001569 0.458739
vt 0.998232 0.458739
vt 0.998232 0.001768
vt 0.000187 0.005813
vt 0.000187 0.498641
vt 0.999988 0.498641
vt 0.999988 0.005813
vt 0.000187 0.994187
vt 0.999988 0.994187
vt 0.000187 0.005813
vt 0.000187 0.498641
vt 0.999988 0.498641
vt 0.999988 0.005813
vt 0.000187 0.994187
vt 0.999988 0.994187
vt 0.000187 0.005813
vt 0.000187 0.498641
vt 0.999988 0.498641
vt 0.999988 0.005813
vt 0.000187 0.994187
vt 0.999988 0.994187
vt -0.001568 0.710265
vt -0.001568 0.998232
vt 0.998232 0.998232
vt 0.998232 0.710265
vt -0.001569 0.001768
vt -0.001569 0.458739
vt 0.998232 0.458739
vt 0.998232 0.001768
vt -0.001568 0.710265
vt -0.001568 0.998232
vt 0.998232 0.998232
vt 0.998232 0.710265
vt -0.001569 0.001768
vt -0.001569 0.458739
vt 0.998232 0.458739
vt 0.998232 0.001768
vt 0.000187 0.005813
vt 0.000187 0.498641
vt 0.999988 0.498641
vt 0.999988 0.005813
vt 0.000187 0.994187
vt 0.999988 0.994187
vt 0.000187 0.005813
vt 0.000187 0.498641
vt 0.999988 0.498641
vt 0.999988 0.005813
vt 0.000187 0.994187
vt 0.999988 0.994187
vt 0.000187 0.005813
vt 0.000187 0.498641
vt 0.999988 0.498641
vt 0.999988 0.005813
vt 0.000187 0.994187
vt 0.999988 0.994187
vt -0.001568 0.710265
vt -0.001568 0.998232
vt 0.998232 0.998232
vt 0.998232 0.710265
vt -0.001569 0.001768
vt -0.001569 0.458739
vt 0.998232 0.458739
vt 0.998232 0.001768
vt -0.001568 0.710265
vt -0.001568 0.998232
vt 0.998232 0.998232
vt 0.998232 0.710265
vt -0.001569 0.001768
vt -0.001569 0.458739
vt 0.998232 0.458739
vt 0.998232 0.001768
vt -0.001568 0.710265
vt -0.001568 0.998232
vt 0.998232 0.998232
vt 0.998232 0.710265
vt -0.001569 0.001768
vt -0.001569 0.458739
vt 0.998232 0.458739
vt 0.998232 0.001768
vt -0.001568 0.710265
vt -0.001568 0.998232
vt 0.998232 0.998232
vt 0.998232 0.710265
vt -0.001569 0.001768
vt -0.001569 0.458739
vt 0.998232 0.458739
vt 0.998232 0.001768
vn 0.3628 0.4521 -0.8148
vn 0.3154 0.6313 -0.7085
vn 0.4004 -0.1754 -0.8994
vn 0.4064 0.0394 -0.9128
vn 0.9991 -0.0000 -0.0432
vn 0.9949 0.0916 -0.0430
vn 0.9823 0.1825 -0.0425
vn 0.6084 0.0000 0.7936
vn 0.6059 0.0916 0.7903
vn 0.5982 0.1825 0.7803
vn 0.7567 0.6015 -0.2561
vn 0.6184 0.7575 -0.2093
vn 0.9472 0.0000 -0.3206
vn 0.9253 0.2140 -0.3132
vn -0.4003 0.4830 -0.7788
vn -0.3442 0.6580 -0.6698
vn -0.4525 -0.1409 -0.8805
vn -0.4558 0.0742 -0.8870
vn -0.9380 0.0000 0.3466
vn -0.9341 0.0916 0.3451
vn -0.9223 0.1825 0.3407
vn 0.5687 0.4661 0.6778
vn 0.4921 0.6434 0.5864
vn 0.6345 -0.1599 0.7562
vn 0.6418 0.0551 0.7649
vn -0.1905 -0.0558 -0.9801
vn -0.1907 0.0359 -0.9810
vn -0.1892 0.1273 -0.9736
vn 0.6548 0.0000 -0.7558
vn 0.6520 0.0916 -0.7527
vn 0.6438 0.1825 -0.7431
vn -0.6446 0.6015 0.4718
vn -0.5268 0.7575 0.3856
vn -0.8070 0.0000 0.5906
vn -0.7883 0.2140 0.5769
vn 0.6906 0.0000 0.7232
vn 0.6877 0.0916 0.7202
vn 0.6790 0.1825 0.7111
vn 0.7939 0.6015 -0.0890
vn 0.6488 0.7575 -0.0728
vn 0.9938 0.0000 -0.1115
vn 0.9707 0.2140 -0.1089
vn 0.2041 -0.0000 0.9790
vn 0.2032 0.0916 0.9748
vn 0.2007 0.1825 0.9625
vn -0.7382 0.0000 -0.6746
vn -0.7351 0.0916 -0.6718
vn -0.7258 0.1825 -0.6633
vn 0.7062 -0.0000 -0.7081
vn 0.7032 0.0916 -0.7051
vn 0.6943 0.1825 -0.6962
vn -0.4262 0.6001 0.6769
vn -0.3486 0.7564 0.5535
vn -0.5329 -0.0017 0.8462
vn -0.5207 0.2123 0.8269
vn 0.7071 0.0000 -0.7071
vn 0.7041 0.0916 -0.7041
vn 0.6952 0.1825 -0.6952
vn -0.2756 0.0000 -0.9613
vn -0.2745 0.0916 -0.9572
vn -0.2710 0.1825 -0.9451
vn 0.7159 -0.1132 0.6890
vn 0.7204 -0.0217 0.6933
vn 0.7188 0.0700 0.6917
vn 0.5582 0.5281 -0.6399
vn 0.4717 0.6965 -0.5407
vn 0.6548 -0.0889 -0.7506
vn 0.6521 0.1263 -0.7475
vn 0.4796 0.6015 0.6388
vn 0.3920 0.7575 0.5221
vn 0.6004 0.0000 0.7997
vn 0.5865 0.2140 0.7812
vn 0.7432 -0.0000 -0.6691
vn 0.7400 0.0916 -0.6663
vn 0.7307 0.1825 -0.6579
vn -0.6971 0.0000 -0.7169
vn -0.6942 0.0916 -0.7139
vn -0.6854 0.1825 -0.7049
vn -0.9845 0.0000 -0.1754
vn -0.9804 0.0916 -0.1747
vn -0.9680 0.1825 -0.1724
vn 0.7422 0.6015 -0.2954
vn 0.6066 0.7575 -0.2414
vn 0.9291 0.0000 -0.3697
vn 0.9076 0.2140 -0.3612
vn -0.1401 0.6015 0.7865
vn -0.1145 0.7575 0.6427
vn -0.1754 -0.0000 0.9845
vn -0.1713 0.2140 0.9617
vn -0.7978 0.6015 0.0404
vn -0.6520 0.7575 0.0330
vn -0.9987 0.0000 0.0506
vn -0.9756 0.2140 0.0494
vn -0.7535 0.6015 -0.2653
vn -0.6158 0.7575 -0.2168
vn -0.9432 -0.0000 -0.3322
vn -0.9214 0.2140 -0.3245
usemtl UV_material.014
s 1
f 8/1/1 3/2/2 4/3/2 7/4/1
f 1/5/3 5/6/4 6/7/4 2/8/3
f 5/6/4 8/1/1 7/4/1 6/7/4
usemtl UV_material.016
f 9/9/5 13/10/6 14/11/6 10/12/5
f 13/10/6 11/13/7 12/14/7 14/11/6
usemtl UV_material.010
f 15/15/8 19/16/9 20/17/9 16/18/8
f 19/16/9 17/19/10 18/20/10 20/17/9
usemtl UV_material.009
f 28/21/11 23/22/12 24/23/12 27/24/11
f 21/25/13 25/26/14 26/27/14 22/28/13
f 25/26/14 28/21/11 27/24/11 26/27/14
usemtl UV_material.004
f 36/29/15 31/30/16 32/31/16 35/32/15
f 29/33/17 33/34/18 34/35/18 30/36/17
f 33/34/18 36/29/15 35/32/15 34/35/18
usemtl UV_material.005
f 37/37/19 41/38/20 42/39/20 38/40/19
f 41/38/20 39/41/21 40/42/21 42/39/20
usemtl UV_material.021
f 50/43/22 45/44/23 46/45/23 49/46/22
f 43/47/24 47/48/25 48/49/25 44/50/24
f 47/48/25 50/43/22 49/46/22 48/49/25
usemtl UV_material.025
f 51/51/26 55/52/27 56/53/27 52/54/26
f 55/52/27 53/55/28 54/56/28 56/53/27
usemtl UV_material.026
f 57/57/29 61/58/30 62/59/30 58/60/29
f 61/58/30 59/61/31 60/62/31 62/59/30
usemtl UV_material.001
f 70/63/32 65/64/33 66/65/33 69/66/32
f 63/67/34 67/68/35 68/69/35 64/70/34
f 67/68/35 70/63/32 69/66/32 68/69/35
f 71/71/36 75/72/37 76/73/37 72/74/36
f 75/72/37 73/75/38 74/76/38 76/73/37
usemtl UV_material.013
f 84/77/39 79/78/40 80/79/40 83/80/39
f 77/81/41 81/82/42 82/83/42 78/84/41
f 81/82/42 84/77/39 83/80/39 82/83/42
f 181/85/43 185/86/44 186/87/44 182/88/43
f 185/86/44 183/89/45 184/90/45 186/87/44
usemtl UV_material.008
f 85/91/46 89/92/47 90/93/47 86/94/46
f 89/92/47 87/95/48 88/96/48 90/93/47
usemtl UV_material.007
f 91/97/49 95/98/50 96/99/50 92/100/49
f 95/98/50 93/101/51 94/102/51 96/99/50
usemtl UV_material.022
f 104/103/52 99/104/53 100/105/53 103/106/52
f 97/107/54 101/108/55 102/109/55 98/110/54
f 101/108/55 104/103/52 103/106/52 102/109/55
usemtl UV_material.023
f 105/111/56 109/112/57 110/113/57 106/114/56
f 109/112/57 107/115/58 108/116/58 110/113/57
usemtl UV_material.024
f 111/117/59 115/118/60 116/119/60 112/120/59
f 115/118/60 113/121/61 114/122/61 116/119/60
usemtl UV_material.020
f 117/123/62 121/124/63 122/125/63 118/126/62
f 121/124/63 119/127/64 120/128/64 122/125/63
usemtl UV_material.003
f 130/129/65 125/130/66 126/131/66 129/132/65
f 123/133/67 127/134/68 128/135/68 124/136/67
f 127/134/68 130/129/65 129/132/65 128/135/68
usemtl UV_material.006
f 138/137/69 133/138/70 134/139/70 137/140/69
f 131/141/71 135/142/72 136/143/72 132/144/71
f 135/142/72 138/137/69 137/140/69 136/143/72
usemtl UV_material.011
f 139/145/73 143/146/74 144/147/74 140/148/73
f 143/146/74 141/149/75 142/150/75 144/147/74
usemtl UV_material.012
f 145/151/76 149/152/77 150/153/77 146/154/76
f 149/152/77 147/155/78 148/156/78 150/153/77
usemtl UV_material.019
f 151/157/79 155/158/80 156/159/80 152/160/79
f 155/158/80 153/161/81 154/162/81 156/159/80
usemtl UV_material.027
f 164/163/82 159/164/83 160/165/83 163/166/82
f 157/167/84 161/168/85 162/169/85 158/170/84
f 161/168/85 164/163/82 163/166/82 162/169/85
usemtl UV_material.018
f 172/171/86 167/172/87 168/173/87 171/174/86
f 165/175/88 169/176/89 170/177/89 166/178/88
f 169/176/89 172/171/86 171/174/86 170/177/89
usemtl UV_material.017
f 180/179/90 175/180/91 176/181/91 179/182/90
f 173/183/92 177/184/93 178/185/93 174/186/92
f 177/184/93 180/179/90 179/182/90 178/185/93
usemtl UV_material.015
f 194/187/94 189/188/95 190/189/95 193/190/94
f 187/191/96 191/192/97 192/193/97 188/194/96
f 191/192/97 194/187/94 193/190/94 192/193/97
