# Blender v2.82 (sub 7) OBJ File: 'plants2.blend'
# www.blender.org
mtllib Grass2.mtl
o Grass2_Plane.023
v -0.468202 -0.000000 0.000000
v 0.468202 -0.000000 0.000000
v -0.468202 0.818065 0.302802
v 0.468202 0.818065 0.302802
v -0.468202 0.427995 0.000000
v 0.468202 0.427995 0.000000
v 0.468202 0.641992 0.098497
v -0.468202 0.641992 0.098497
vt -0.001568 0.710265
vt -0.001568 0.998232
vt 0.998232 0.998232
vt 0.998232 0.710265
vt -0.001569 0.001768
vt -0.001569 0.458739
vt 0.998232 0.458739
vt 0.998232 0.001768
vn 0.0000 0.6015 -0.7988
vn 0.0000 0.7575 -0.6528
vn 0.0000 0.0000 -1.0000
vn 0.0000 0.2140 -0.9768
usemtl UV_material
s 1
f 8/1/1 3/2/2 4/3/2 7/4/1
f 1/5/3 5/6/4 6/7/4 2/8/3
f 5/6/4 8/1/1 7/4/1 6/7/4
