# Blender v2.82 (sub 7) OBJ File: 'plants2.blend'
# www.blender.org
o Mid_leaf_shrub_Cube.082
v -0.181737 0.554790 -0.084249
v -0.213375 0.753272 -0.580191
v 0.010722 -0.000000 -0.052320
v -0.264445 0.710390 -0.437961
v -0.256413 0.645091 -0.232204
v 0.207992 0.543101 -0.200236
v -0.026903 0.747679 -0.635687
v 0.044203 -0.000000 -0.063821
v 0.022513 0.607935 -0.117796
v 0.035304 -0.000000 -0.035163
v -0.135633 0.776781 -0.662649
v 0.091280 0.699721 -0.543829
v -0.079708 0.760170 -0.473376
v 0.193932 0.631584 -0.366231
v -0.021247 0.708710 -0.273808
v 0.011674 0.472618 -0.077308
v 0.033855 0.468883 -0.064526
v 0.045615 0.471600 -0.087410
v 0.016389 0.381940 -0.064482
v 0.039753 0.385200 -0.050937
v 0.049956 0.380584 -0.075728
v -0.122412 0.793011 -0.218484
v 0.164847 0.938622 -0.456386
v -0.018157 -0.000000 -0.033732
v 0.042471 0.900830 -0.421525
v -0.079976 0.855378 -0.327418
v 0.170092 0.806397 -0.002305
v 0.304801 0.945027 -0.352951
v 0.010455 -0.000000 -0.012891
v 0.009262 0.852956 -0.093474
v -0.017909 -0.000000 -0.003811
v 0.264675 0.964307 -0.446452
v 0.309455 0.913048 -0.224207
v 0.165130 0.956572 -0.311272
v 0.258022 0.870846 -0.077616
v 0.073670 0.926564 -0.185210
v -0.038324 0.712468 -0.050714
v -0.035084 0.710275 -0.025140
v -0.009853 0.713771 -0.029671
v -0.051414 0.499608 -0.018853
v -0.049471 0.502292 0.008148
v -0.022957 0.500975 0.002205
v 0.110267 0.378152 -0.234785
v 0.622901 0.304838 -0.369639
v 0.067616 -0.000000 0.008015
v 0.469521 0.330126 -0.392249
v 0.263498 0.374612 -0.344917
v 0.287883 0.362765 0.130856
v 0.707885 0.297476 -0.194692
v 0.083327 -0.000000 0.039738
v 0.206683 0.434545 -0.052600
v 0.054016 -0.000000 0.034641
v 0.721405 0.295309 -0.309620
v 0.631641 0.316082 -0.058509
v 0.561894 0.380150 -0.228466
v 0.468740 0.356832 0.077593
v 0.378190 0.440197 -0.136050
v 0.107919 0.335810 -0.028849
v 0.099857 0.341689 -0.004979
v 0.123387 0.334470 0.002995
v 0.072897 0.222649 -0.009416
v 0.063338 0.229150 0.015209
v 0.088366 0.221309 0.022428
v 0.296728 0.531864 0.013451
v 0.374958 0.710563 0.511750
v 0.060865 -0.000000 -0.019503
v 0.413587 0.667966 0.365567
v 0.387734 0.610347 0.158984
v -0.085055 0.550978 0.152573
v 0.192288 0.719709 0.578314
v 0.028126 -0.000000 -0.006026
v 0.100412 0.601772 0.060790
v 0.035304 -0.000000 -0.035163
v 0.304585 0.738176 0.599392
v 0.065113 0.685412 0.492550
v 0.236476 0.732735 0.413491
v -0.053428 0.632434 0.319743
v 0.162097 0.693159 0.216527
v 0.096609 0.467413 0.016064
v 0.073476 0.466073 0.004559
v 0.063360 0.469077 0.028180
v 0.082984 0.377973 0.001094
v 0.059261 0.383727 -0.010911
v 0.050142 0.379230 0.014321
v 0.007379 0.441355 0.272388
v -0.302298 0.358818 0.700923
v -0.050311 -0.000000 0.050662
v -0.169921 0.387812 0.621477
v -0.041523 0.436102 0.454604
v -0.360941 0.416565 0.101495
v -0.478526 0.346956 0.619157
v -0.082499 -0.000000 0.036025
v -0.183972 0.492866 0.192391
v -0.056686 -0.000000 0.021442
v -0.416262 0.346222 0.716721
v -0.506105 0.365184 0.465494
v -0.346334 0.433321 0.553161
v -0.467128 0.407456 0.257132
v -0.264139 0.495998 0.365521
v -0.119902 0.395981 0.111301
v -0.128911 0.401677 0.087727
v -0.151979 0.393822 0.096418
v -0.090622 0.283665 0.064489
v -0.098965 0.290003 0.039384
v -0.122699 0.281506 0.049606
v -0.181892 0.660885 0.278827
v -0.572166 0.744501 0.247012
v -0.015264 -0.000000 0.023871
v -0.456731 0.721172 0.308250
v -0.298308 0.700594 0.328097
v -0.234286 0.692967 -0.079917
v -0.597235 0.759851 0.075365
v -0.020621 -0.000000 -0.011002
v -0.195104 0.733122 0.102288
v 0.005980 -0.000000 0.002883
v -0.638490 0.765131 0.170203
v -0.504554 0.750455 -0.019194
v -0.473379 0.787291 0.148064
v -0.358851 0.737666 -0.086443
v -0.316508 0.785466 0.124718
v -0.108470 0.605487 0.096494
v -0.092362 0.607561 0.076356
v -0.113570 0.608609 0.061576
v -0.041126 0.402644 0.067935
v -0.023942 0.409841 0.048113
v -0.046216 0.405833 0.033021
v -0.285406 0.551726 0.173525
v -0.781875 0.509817 -0.021711
v -0.076191 -0.000000 0.022486
v -0.670253 0.525358 0.087720
v -0.474061 0.557155 0.172350
v -0.214080 0.549455 -0.226957
v -0.747748 0.508731 -0.213328
v -0.070246 -0.000000 -0.012438
v -0.253228 0.615023 -0.028034
v -0.049416 -0.000000 0.009064
v -0.826446 0.506784 -0.128483
v -0.605150 0.523286 -0.277820
v -0.645952 0.581945 -0.096853
v -0.391641 0.554532 -0.290419
v -0.440479 0.630912 -0.061131
v -0.164222 0.510446 0.006736
v -0.143382 0.515942 -0.007576
v -0.158011 0.510249 -0.028142
v -0.117938 0.394506 0.015636
v -0.095416 0.400531 0.001621
v -0.111726 0.394308 -0.019241
vt 0.837570 0.415311
vt 0.871154 0.421465
vt 0.867548 0.458269
vt 0.836041 0.457907
vt 0.908261 0.454079
vt 0.979591 0.454880
vt 0.979563 0.460476
vt 0.907933 0.459107
vt 0.799264 0.422894
vt 0.799829 0.457456
vt 0.775628 0.439091
vt 0.764611 0.457094
vt 0.836736 0.500419
vt 0.870108 0.494500
vt 0.908163 0.464145
vt 0.979219 0.466066
vt 0.798584 0.491996
vt 0.775272 0.475311
vt 0.893131 0.458475
vt 0.891615 0.462840
vt 0.891696 0.454075
vt 0.814053 0.601184
vt 0.837659 0.606243
vt 0.834863 0.639278
vt 0.812740 0.639165
vt 0.898069 0.634661
vt 0.989865 0.634533
vt 0.989713 0.640014
vt 0.897912 0.639602
vt 0.785528 0.608093
vt 0.786185 0.638990
vt 0.766105 0.622636
vt 0.756351 0.638840
vt 0.813675 0.677065
vt 0.837331 0.672242
vt 0.898010 0.644545
vt 0.990054 0.645461
vt 0.785220 0.669876
vt 0.765944 0.655141
vt 0.862871 0.639372
vt 0.861301 0.643541
vt 0.861341 0.635187
vt 0.860410 0.685858
vt 0.894278 0.691426
vt 0.891315 0.728476
vt 0.859656 0.728694
vt 0.936120 0.724114
vt 0.976740 0.726172
vt 0.976902 0.731614
vt 0.935637 0.729099
vt 0.822051 0.694188
vt 0.823259 0.728913
vt 0.798597 0.710906
vt 0.787859 0.729204
vt 0.861152 0.771399
vt 0.894905 0.765351
vt 0.936110 0.733750
vt 0.976416 0.737010
vt 0.822652 0.763648
vt 0.798912 0.747313
vt 0.916424 0.728129
vt 0.915577 0.732594
vt 0.915515 0.723843
vt 0.836821 0.215167
vt 0.870434 0.221153
vt 0.867012 0.257975
vt 0.835504 0.257770
vt 0.907703 0.253584
vt 0.978517 0.253311
vt 0.978975 0.258890
vt 0.907381 0.258609
vt 0.798553 0.222942
vt 0.799291 0.257500
vt 0.774998 0.239256
vt 0.764072 0.257314
vt 0.836413 0.300278
vt 0.870074 0.294722
vt 0.907657 0.263643
vt 0.978696 0.264487
vt 0.798219 0.292045
vt 0.774824 0.275477
vt 0.892595 0.258052
vt 0.891102 0.262425
vt 0.891140 0.253660
vt 0.856537 0.098482
vt 0.889663 0.106419
vt 0.884084 0.142885
vt 0.852723 0.140833
vt 0.930575 0.140613
vt 0.986770 0.141601
vt 0.986768 0.147461
vt 0.930026 0.145769
vt 0.817967 0.103978
vt 0.816674 0.138441
vt 0.793550 0.118846
vt 0.781609 0.136190
vt 0.851139 0.183220
vt 0.884990 0.179656
vt 0.929914 0.150936
vt 0.985580 0.153637
vt 0.813581 0.172784
vt 0.791252 0.154910
vt 0.909166 0.144436
vt 0.907815 0.148712
vt 0.908367 0.140020
vt 0.828059 0.512388
vt 0.851603 0.517807
vt 0.848303 0.550818
vt 0.826169 0.550369
vt 0.911615 0.547161
vt 0.986280 0.548638
vt 0.986840 0.554104
vt 0.911319 0.552099
vt 0.799413 0.518868
vt 0.799602 0.549792
vt 0.779759 0.533124
vt 0.769753 0.549190
vt 0.826531 0.588306
vt 0.850273 0.583838
vt 0.911406 0.557043
vt 0.986619 0.559620
vt 0.798168 0.580681
vt 0.779104 0.565646
vt 0.876326 0.551337
vt 0.874692 0.555484
vt 0.874858 0.547126
vt 0.828090 0.319272
vt 0.861717 0.324572
vt 0.859029 0.361340
vt 0.827625 0.361764
vt 0.905164 0.355407
vt 0.981668 0.354037
vt 0.982269 0.359782
vt 0.905139 0.360588
vt 0.790098 0.327784
vt 0.791523 0.362218
vt 0.766944 0.344517
vt 0.756412 0.362737
vt 0.829383 0.404116
vt 0.862826 0.397901
vt 0.905323 0.365764
vt 0.981795 0.365535
vt 0.791145 0.396676
vt 0.767493 0.380627
vt 0.884139 0.360910
vt 0.883129 0.365277
vt 0.882995 0.356575
vn -0.1597 0.8837 0.4400
vn -0.0835 0.7001 0.7092
vn 0.2394 0.6309 0.7380
vn 0.1368 0.9208 0.3654
vn -0.5201 0.0679 0.8514
vn -0.5407 0.0377 0.8404
vn -0.5187 0.0700 0.8521
vn -0.1949 0.9466 0.2568
vn 0.0791 0.9828 0.1671
vn -0.1906 0.9657 0.1761
vn 0.0610 0.9926 0.1053
vn 0.4229 0.8663 0.2657
vn 0.4965 0.6825 0.5364
vn 0.9264 0.0526 0.3728
vn 0.9241 0.0595 0.3774
vn 0.9417 -0.0004 0.3366
vn 0.3554 0.9302 0.0922
vn 0.3086 0.9508 0.0272
vn 0.2815 0.2198 0.9340
vn 0.6774 0.2235 0.7009
vn -0.1548 0.2313 0.9605
vn -0.4878 0.8678 0.0944
vn -0.6482 0.6877 0.3271
vn -0.4570 0.6766 0.5774
vn -0.2508 0.9258 0.2828
vn -0.9976 0.0054 0.0688
vn -0.9970 -0.0656 0.0415
vn -0.9975 0.0087 0.0701
vn -0.3467 0.9351 -0.0737
vn -0.1109 0.9899 0.0887
vn -0.2849 0.9514 -0.1171
vn -0.0758 0.9963 0.0409
vn 0.0015 0.8901 0.4557
vn -0.1633 0.7094 0.6856
vn 0.2290 0.0631 0.9714
vn 0.2274 0.0663 0.9715
vn 0.2638 -0.0089 0.9645
vn 0.1166 0.9563 0.2683
vn 0.1387 0.9708 0.1959
vn -0.5777 0.2933 0.7618
vn -0.1389 0.3464 0.9277
vn -0.8656 0.3128 0.3909
vn -0.0135 0.9566 -0.2913
vn -0.3137 0.9385 -0.1444
vn -0.3017 0.9350 0.1867
vn 0.1307 0.9912 -0.0213
vn -0.9108 0.1029 -0.3998
vn -0.9115 -0.0041 -0.4114
vn -0.9103 0.1117 -0.3986
vn 0.1661 0.9174 -0.3616
vn 0.3183 0.9410 -0.1151
vn 0.2456 0.8954 -0.3715
vn 0.3723 0.9171 -0.1424
vn 0.2528 0.9332 0.2552
vn -0.0493 0.9153 0.3997
vn -0.2154 0.1543 0.9643
vn -0.2169 0.1699 0.9613
vn -0.2084 0.0861 0.9742
vn 0.4178 0.8953 0.1545
vn 0.4734 0.8755 0.0968
vn -0.7425 0.5584 0.3699
vn -0.3967 0.5478 0.7366
vn -0.8201 0.5640 -0.0964
vn 0.2130 0.8799 -0.4248
vn 0.1050 0.7126 -0.6937
vn -0.2239 0.6732 -0.7047
vn -0.0741 0.9406 -0.3313
vn 0.4734 0.0514 -0.8793
vn 0.4913 0.0215 -0.8707
vn 0.4719 0.0538 -0.8800
vn 0.2644 0.9334 -0.2425
vn 0.0004 0.9908 -0.1352
vn 0.2665 0.9503 -0.1611
vn 0.0229 0.9970 -0.0745
vn -0.3576 0.9086 -0.2159
vn -0.4632 0.7408 -0.4865
vn -0.9391 0.1360 -0.3155
vn -0.9364 0.1440 -0.3199
vn -0.9569 0.0741 -0.2807
vn -0.2746 0.9605 -0.0451
vn -0.2225 0.9748 0.0174
vn -0.3144 0.2740 -0.9089
vn -0.6940 0.3052 -0.6520
vn 0.1189 0.2477 -0.9615
vn 0.1692 0.9609 0.2192
vn 0.3093 0.9472 -0.0844
vn 0.0907 0.9384 -0.3333
vn -0.1140 0.9883 0.1015
vn 0.9393 0.2432 -0.2419
vn 0.9584 0.1514 -0.2420
vn 0.9368 0.2527 -0.2418
vn 0.0757 0.9189 0.3872
vn -0.1986 0.9354 0.2926
vn 0.0210 0.8952 0.4451
vn -0.2226 0.9107 0.3479
vn -0.3819 0.9235 -0.0356
vn -0.2389 0.9101 -0.3387
vn -0.4454 0.1152 -0.8879
vn -0.4451 0.1233 -0.8870
vn -0.4456 -0.0149 -0.8951
vn -0.4449 0.8835 0.1466
vn -0.4510 0.8633 0.2264
vn 0.3019 0.6035 -0.7380
vn -0.1670 0.5607 -0.8110
vn 0.6614 0.6171 -0.4262
vn 0.2570 0.9003 0.3514
vn 0.5618 0.7737 0.2929
vn 0.6075 0.7941 -0.0183
vn 0.2160 0.9748 0.0552
vn 0.7382 0.0642 0.6716
vn 0.7300 -0.0249 0.6830
vn 0.7385 0.0695 0.6707
vn 0.0301 0.9282 0.3708
vn -0.0280 0.9953 0.0931
vn -0.0459 0.9328 0.3575
vn -0.0870 0.9910 0.1013
vn 0.1691 0.9538 -0.2484
vn 0.4751 0.8265 -0.3020
vn 0.5145 0.2080 -0.8319
vn 0.5155 0.2134 -0.8299
vn 0.4980 0.1277 -0.8577
vn -0.0533 0.9789 -0.1971
vn -0.1218 0.9792 -0.1620
vn 0.8851 0.4570 -0.0874
vn 0.6897 0.5102 -0.5138
vn 0.8201 0.4302 0.3772
vn -0.1155 0.9522 0.2827
vn 0.2123 0.9163 0.3397
vn 0.3975 0.9153 0.0648
vn -0.0712 0.9973 -0.0188
vn 0.4810 0.1631 0.8614
vn 0.4787 0.0686 0.8753
vn 0.4809 0.1673 0.8606
vn -0.3037 0.9240 0.2324
vn -0.2802 0.9584 -0.0552
vn -0.3747 0.9069 0.1928
vn -0.3409 0.9378 -0.0659
vn -0.0096 0.9486 -0.3164
vn 0.3184 0.9126 -0.2564
vn 0.7454 0.1595 -0.6473
vn 0.7452 0.1641 -0.6463
vn 0.7450 0.0701 -0.6634
vn -0.2037 0.9205 -0.3335
vn -0.2836 0.9039 -0.3203
vn 0.8228 0.5499 0.1435
vn 0.7733 0.5412 -0.3303
vn 0.6125 0.5470 0.5706
s 1
f 5/1/1 1/2/2 9/3/3 15/4/4
f 19/5/5 3/6/6 10/7/6 20/8/7
f 4/9/8 5/1/1 15/4/4 13/10/9
f 2/11/10 4/9/8 13/10/9 11/12/11
f 14/13/12 15/4/4 9/3/3 6/14/13
f 21/15/14 20/8/15 10/7/16 8/16/16
f 12/17/17 13/10/9 15/4/4 14/13/12
f 7/18/18 11/12/11 13/10/9 12/17/17
f 6/14/13 9/3/3 17/19/19 18/20/20
f 1/2/2 16/21/21 17/19/19 9/3/3
f 18/20/20 17/19/19 20/8/15 21/15/14
f 16/21/21 19/5/5 20/8/7 17/19/19
f 26/22/22 22/23/23 30/24/24 36/25/25
f 40/26/26 24/27/27 31/28/27 41/29/28
f 25/30/29 26/22/22 36/25/25 34/31/30
f 23/32/31 25/30/29 34/31/30 32/33/32
f 35/34/33 36/25/25 30/24/24 27/35/34
f 42/36/35 41/29/36 31/28/37 29/37/37
f 33/38/38 34/31/30 36/25/25 35/34/33
f 28/39/39 32/33/32 34/31/30 33/38/38
f 27/35/34 30/24/24 38/40/40 39/41/41
f 22/23/23 37/42/42 38/40/40 30/24/24
f 39/41/41 38/40/40 41/29/36 42/36/35
f 37/42/42 40/26/26 41/29/28 38/40/40
f 47/43/43 43/44/44 51/45/45 57/46/46
f 61/47/47 45/48/48 52/49/48 62/50/49
f 46/51/50 47/43/43 57/46/46 55/52/51
f 44/53/52 46/51/50 55/52/51 53/54/53
f 56/55/54 57/46/46 51/45/45 48/56/55
f 63/57/56 62/50/57 52/49/58 50/58/58
f 54/59/59 55/52/51 57/46/46 56/55/54
f 49/60/60 53/54/53 55/52/51 54/59/59
f 48/56/55 51/45/45 59/61/61 60/62/62
f 43/44/44 58/63/63 59/61/61 51/45/45
f 60/62/62 59/61/61 62/50/57 63/57/56
f 58/63/63 61/47/47 62/50/49 59/61/61
f 68/64/64 64/65/65 72/66/66 78/67/67
f 82/68/68 66/69/69 73/70/69 83/71/70
f 67/72/71 68/64/64 78/67/67 76/73/72
f 65/74/73 67/72/71 76/73/72 74/75/74
f 77/76/75 78/67/67 72/66/66 69/77/76
f 84/78/77 83/71/78 73/70/79 71/79/79
f 75/80/80 76/73/72 78/67/67 77/76/75
f 70/81/81 74/75/74 76/73/72 75/80/80
f 69/77/76 72/66/66 80/82/82 81/83/83
f 64/65/65 79/84/84 80/82/82 72/66/66
f 81/83/83 80/82/82 83/71/78 84/78/77
f 79/84/84 82/68/68 83/71/70 80/82/82
f 89/85/85 85/86/86 93/87/87 99/88/88
f 103/89/89 87/90/90 94/91/90 104/92/91
f 88/93/92 89/85/85 99/88/88 97/94/93
f 86/95/94 88/93/92 97/94/93 95/96/95
f 98/97/96 99/88/88 93/87/87 90/98/97
f 105/99/98 104/92/99 94/91/100 92/100/100
f 96/101/101 97/94/93 99/88/88 98/97/96
f 91/102/102 95/96/95 97/94/93 96/101/101
f 90/98/97 93/87/87 101/103/103 102/104/104
f 85/86/86 100/105/105 101/103/103 93/87/87
f 102/104/104 101/103/103 104/92/99 105/99/98
f 100/105/105 103/89/89 104/92/91 101/103/103
f 110/106/106 106/107/107 114/108/108 120/109/109
f 124/110/110 108/111/111 115/112/111 125/113/112
f 109/114/113 110/106/106 120/109/109 118/115/114
f 107/116/115 109/114/113 118/115/114 116/117/116
f 119/118/117 120/109/109 114/108/108 111/119/118
f 126/120/119 125/113/120 115/112/121 113/121/121
f 117/122/122 118/115/114 120/109/109 119/118/117
f 112/123/123 116/117/116 118/115/114 117/122/122
f 111/119/118 114/108/108 122/124/124 123/125/125
f 106/107/107 121/126/126 122/124/124 114/108/108
f 123/125/125 122/124/124 125/113/120 126/120/119
f 121/126/126 124/110/110 125/113/112 122/124/124
f 131/127/127 127/128/128 135/129/129 141/130/130
f 145/131/131 129/132/132 136/133/132 146/134/133
f 130/135/134 131/127/127 141/130/130 139/136/135
f 128/137/136 130/135/134 139/136/135 137/138/137
f 140/139/138 141/130/130 135/129/129 132/140/139
f 147/141/140 146/134/141 136/133/142 134/142/142
f 138/143/143 139/136/135 141/130/130 140/139/138
f 133/144/144 137/138/137 139/136/135 138/143/143
f 132/140/139 135/129/129 143/145/145 144/146/146
f 127/128/128 142/147/147 143/145/145 135/129/129
f 144/146/146 143/145/145 146/134/141 147/141/140
f 142/147/147 145/131/131 146/134/133 143/145/145
