# This file uses centimeters as units for non-parametric coordinates.

v -1.551853 -0.004842 1.506371
v -1.681314 -0.004842 1.452746
v -1.810775 -0.004842 1.506371
v -1.864400 -0.004842 1.635832
v -1.810775 -0.004842 1.765293
v -1.681314 -0.004842 1.818917
v -1.551853 -0.004842 1.765293
v -1.498228 -0.004842 1.635832
v -1.574546 0.583638 1.535433
v -1.685949 0.611071 1.492772
v -1.794209 0.552273 1.535603
v -1.838852 0.543086 1.644499
v -1.791280 0.501286 1.749756
v -1.679360 0.452697 1.790213
v -1.570274 0.479063 1.744344
v -1.526390 0.515624 1.637351
v -1.599829 0.564049 1.559390
v -1.685148 0.589545 1.527010
v -1.767636 0.534324 1.559161
v -1.801861 0.529663 1.642360
v -1.765403 0.494057 1.722383
v -1.679824 0.458978 1.754033
v -1.596547 0.483383 1.719050
v -1.562833 0.504293 1.636337
v -1.681714 0.488600 1.635734
v -1.800226 0.435425 1.755196
v -1.847719 0.477101 1.642383
v -1.797632 0.493966 1.526467
v -1.676557 0.509367 1.479594
v -1.557794 0.485551 1.525552
v -1.512192 0.421033 1.635448
v -1.563175 0.393335 1.749981
v -1.682655 0.397208 1.799315
v -1.781765 0.335596 1.742313
v -1.826822 0.363707 1.639191
v -1.783785 0.381312 1.534126
v -1.678366 0.403406 1.491540
v -1.571884 0.395162 1.533892
v -1.526481 0.349653 1.635038
v -1.569355 0.323797 1.739165
v -1.675066 0.316383 1.783420
v -1.787208 0.098325 1.741641
v -1.831279 0.108613 1.636493
v -1.787528 0.113717 1.530687
v -1.681498 0.120227 1.487106
v -1.575375 0.116047 1.530499
v -1.531363 0.099172 1.635026
v -1.575142 0.090945 1.740538
v -1.681122 0.089992 1.784642
vt 0.671594 0.013380
vt 0.782852 0.021394
vt 0.765733 0.130643
vt 0.663985 0.120790
vt 0.898565 0.041189
vt 0.865546 0.139040
vt 0.133651 0.018647
vt 0.149577 0.118577
vt 0.244126 0.011032
vt 0.250394 0.103880
vt 0.351408 0.005874
vt 0.353630 0.094938
vt 0.457792 0.008011
vt 0.457692 0.095081
vt 0.563816 0.010077
vt 0.561534 0.103472
vt 0.645759 0.525652
vt 0.749127 0.554403
vt 0.748872 0.731524
vt 0.812626 0.782275
vt 0.854735 0.511178
vt 0.764817 0.643451
vt 0.168056 0.494710
vt 0.813339 0.583069
vt 0.265858 0.454175
vt 0.895092 0.581398
vt 0.360313 0.407145
vt 0.958354 0.636995
vt 0.454751 0.428438
vt 0.957606 0.717563
vt 0.549155 0.463205
vt 0.901748 0.773252
vt 0.863666 0.679020
vt 0.164009 0.438194
vt 0.259411 0.397397
vt 0.857425 0.459259
vt 0.748052 0.466933
vt 0.646051 0.440244
vt 0.555927 0.381428
vt 0.457639 0.354246
vt 0.355230 0.359140
vt 0.160524 0.338377
vt 0.258586 0.309398
vt 0.850006 0.361613
vt 0.752194 0.374803
vt 0.653854 0.362250
vt 0.558529 0.319322
vt 0.460212 0.295255
vt 0.359340 0.289005
vt 0.912252 0.804285
vt 0.798205 0.813401
vt 0.986990 0.729313
vt 0.987017 0.623857
vt 0.903763 0.549665
vt 0.797458 0.553269
vt 0.732349 0.632707
vt 0.716991 0.745250
vt 0.051380 0.134529
vt 0.062312 0.356852
vt 0.058531 0.455322
vt 0.066847 0.505691
vt 0.019808 0.038115
vn 0.671568 0.275505 -0.687818
vn 0.000720 0.269006 -0.963138
vn -0.000832 0.101196 -0.994866
vn 0.690681 0.091111 -0.717398
vn -0.675938 0.272883 -0.684575
vn -0.700378 0.111275 -0.705045
vn -0.958688 0.284386 -0.006509
vn -0.993626 0.112724 0.000305
vn -0.675933 0.307450 0.669768
vn -0.697218 0.119811 0.706776
vn -0.001258 0.330226 0.943901
vn 0.003996 0.122500 0.992461
vn 0.668758 0.327639 0.667395
vn 0.704265 0.109389 0.701459
vn 0.954123 0.299297 -0.008457
vn 0.995190 0.097105 -0.012973
vn 0.640173 0.441557 -0.628654
vn 0.011708 0.471864 -0.881594
vn -0.116751 0.763666 0.634967
vn -0.075887 0.770398 0.633030
vn -0.643793 0.432544 -0.631218
vn 0.049528 0.878297 0.475543
vn -0.845467 0.527949 0.080353
vn 0.356962 0.909241 0.214147
vn -0.526208 0.478676 0.702833
vn 0.342030 0.918311 0.199300
vn 0.082882 0.364013 0.927699
vn 0.088280 0.973711 0.209983
vn 0.658313 0.360410 0.660855
vn -0.165717 0.961321 0.219998
vn 0.921110 0.380263 0.083410
vn -0.149841 0.882746 0.445316
vn 0.029785 0.905388 0.423538
vn -0.998287 -0.052272 -0.026280
vn -0.734443 -0.072687 0.674766
vn -0.676736 -0.030516 -0.735593
vn 0.019995 0.018431 -0.999630
vn 0.697082 0.033543 -0.716206
vn 0.999775 -0.017108 -0.012565
vn 0.708865 -0.030216 0.704696
vn -0.021724 -0.064675 0.997670
vn -0.997890 -0.049912 -0.041532
vn -0.727771 -0.054196 0.683676
vn -0.681050 -0.028634 -0.731677
vn 0.002446 -0.030067 -0.999545
vn 0.642605 -0.048488 -0.764662
vn 0.994974 -0.054114 -0.084255
vn 0.728996 -0.052139 0.682530
vn 0.001057 -0.047120 0.998889
s 1
f 1/1/1 2/2/2 45/3/3 46/4/4
f 2/2/2 3/5/5 44/6/6 45/3/3
f 3/62/5 4/7/7 43/8/8 44/58/6
f 4/7/7 5/9/9 42/10/10 43/8/8
f 5/9/9 6/11/11 49/12/12 42/10/10
f 6/11/11 7/13/13 48/14/14 49/12/12
f 7/13/13 8/15/15 47/16/16 48/14/14
f 8/15/15 1/1/1 46/4/4 47/16/16
f 9/51/17 10/57/18 18/19/19 17/20/20
f 10/57/18 11/56/21 19/22/22 18/19/19
f 11/56/21 12/55/23 20/24/24 19/22/22
f 12/55/23 13/54/25 21/26/26 20/24/24
f 13/54/25 14/53/27 22/28/28 21/26/26
f 14/53/27 15/52/29 23/30/30 22/28/28
f 15/52/29 16/50/31 24/32/32 23/30/30
f 16/50/31 9/51/17 17/20/20 24/32/32
f 17/20/20 18/19/19 25/33/33
f 18/19/19 19/22/22 25/33/33
f 19/22/22 20/24/24 25/33/33
f 20/24/24 21/26/26 25/33/33
f 21/26/26 22/28/28 25/33/33
f 22/28/28 23/30/30 25/33/33
f 23/30/30 24/32/32 25/33/33
f 24/32/32 17/20/20 25/33/33
f 27/34/34 26/35/35 13/25/25 12/23/23
f 28/60/36 27/34/34 12/23/23 11/61/21
f 29/37/37 28/36/36 11/21/21 10/18/18
f 30/38/38 29/37/37 10/18/18 9/17/17
f 31/39/39 30/38/38 9/17/17 16/31/31
f 32/40/40 31/39/39 16/31/31 15/29/29
f 33/41/41 32/40/40 15/29/29 14/27/27
f 26/35/35 33/41/41 14/27/27 13/25/25
f 35/42/42 34/43/43 26/35/35 27/34/34
f 36/59/44 35/42/42 27/34/34 28/60/36
f 37/45/45 36/44/44 28/36/36 29/37/37
f 38/46/46 37/45/45 29/37/37 30/38/38
f 39/47/47 38/46/46 30/38/38 31/39/39
f 40/48/48 39/47/47 31/39/39 32/40/40
f 41/49/49 40/48/48 32/40/40 33/41/41
f 34/43/43 41/49/49 33/41/41 26/35/35
f 43/8/8 42/10/10 34/43/43 35/42/42
f 44/58/6 43/8/8 35/42/42 36/59/44
f 45/3/3 44/6/6 36/44/44 37/45/45
f 46/4/4 45/3/3 37/45/45 38/46/46
f 47/16/16 46/4/4 38/46/46 39/47/47
f 48/14/14 47/16/16 39/47/47 40/48/48
f 49/12/12 48/14/14 40/48/48 41/49/49
f 42/10/10 49/12/12 41/49/49 34/43/43
v -1.665904 -0.003060 1.811107
v -1.729062 -0.003060 1.784946
v -1.792220 -0.003060 1.811107
v -1.818381 -0.003060 1.874265
v -1.792220 -0.003060 1.937423
v -1.729062 -0.003060 1.963584
v -1.665904 -0.003060 1.937423
v -1.639743 -0.003060 1.874265
v -1.667133 0.373359 1.822758
v -1.719588 0.405063 1.801817
v -1.774463 0.391749 1.823623
v -1.799848 0.337033 1.875206
v -1.775950 0.360287 1.930458
v -1.723006 0.337255 1.951807
v -1.669768 0.321549 1.928635
v -1.645779 0.351490 1.875887
v -1.682164 0.363118 1.836761
v -1.720249 0.392379 1.821705
v -1.760622 0.379524 1.837533
v -1.779910 0.327166 1.874742
v -1.761958 0.352100 1.915588
v -1.722968 0.338899 1.931400
v -1.684153 0.324123 1.914272
v -1.666640 0.344991 1.875581
v -1.723433 0.333284 1.875030
v -1.779672 0.315507 1.927858
v -1.803433 0.296726 1.872541
v -1.778429 0.342654 1.820269
v -1.723422 0.353439 1.798230
v -1.670435 0.326260 1.819498
v -1.648800 0.307344 1.873041
v -1.672637 0.282113 1.926287
v -1.726277 0.295572 1.949467
v -1.774718 0.258739 1.918680
v -1.795198 0.244211 1.870854
v -1.773737 0.280554 1.825421
v -1.726152 0.288912 1.806287
v -1.680163 0.267147 1.824791
v -1.661360 0.251926 1.871217
v -1.681900 0.231916 1.917418
v -1.728406 0.242690 1.937453
v -1.778928 0.089190 1.924131
v -1.799583 0.084222 1.874265
v -1.778928 0.094033 1.824399
v -1.729062 0.096842 1.803744
v -1.679196 0.091772 1.824399
v -1.658541 0.088454 1.874265
v -1.679196 0.083192 1.924131
v -1.729062 0.085712 1.944786
vt 0.353983 0.974032
vt 0.290218 0.970846
vt 0.302902 0.906504
vt 0.356275 0.908639
vt 0.704519 0.915198
vt 0.679856 0.852843
vt 0.645795 0.933259
vt 0.628975 0.873268
vt 0.587585 0.943509
vt 0.574359 0.882705
vt 0.530625 0.955260
vt 0.520137 0.894344
vt 0.473213 0.965119
vt 0.465820 0.903530
vt 0.414680 0.970146
vt 0.410836 0.906376
vt 0.337164 0.720737
vt 0.279055 0.710798
vt 0.541443 0.601458
vt 0.574438 0.625865
vt 0.634868 0.660036
vt 0.542217 0.561739
vt 0.590293 0.708498
vt 0.578209 0.529525
vt 0.534875 0.703500
vt 0.620183 0.528663
vt 0.487880 0.726789
vt 0.645262 0.558238
vt 0.442527 0.744075
vt 0.642892 0.597500
vt 0.392159 0.728287
vt 0.613766 0.625452
vt 0.596826 0.576223
vt 0.598088 0.734459
vt 0.543559 0.732231
vt 0.642485 0.692046
vt 0.281272 0.745325
vt 0.338542 0.752173
vt 0.392361 0.758165
vt 0.445745 0.770045
vt 0.495631 0.753870
vt 0.606807 0.768553
vt 0.552432 0.771008
vt 0.651003 0.732914
vt 0.292825 0.786837
vt 0.344028 0.793106
vt 0.396130 0.797178
vt 0.450703 0.804144
vt 0.502927 0.790191
vt 0.619764 0.643750
vt 0.566498 0.643801
vt 0.659567 0.605331
vt 0.662757 0.552284
vt 0.628334 0.511357
vt 0.570350 0.512106
vt 0.523932 0.555563
vt 0.523723 0.609816
vt 0.729691 0.833295
vt 0.698956 0.714810
vt 0.695652 0.671067
vt 0.689022 0.637018
vt 0.763689 0.889935
vn 0.691755 0.193477 -0.695731
vn -0.000740 0.188937 -0.981989
vn -0.008096 0.080714 -0.996704
vn 0.699764 0.084446 -0.709365
vn -0.690691 0.193839 -0.696687
vn -0.695977 0.088998 -0.712528
vn -0.979502 0.201426 -0.001691
vn -0.994328 0.106356 -0.000540
vn -0.691761 0.204694 0.692508
vn -0.703003 0.106868 0.703112
vn -0.002147 0.206566 0.978430
vn 0.000339 0.115244 0.993337
vn 0.692350 0.207936 0.690952
vn 0.699138 0.114346 0.705784
vn 0.979307 0.202359 -0.003009
vn 0.995343 0.096347 0.003071
vn 0.735380 0.293860 -0.610625
vn 0.055226 0.412212 -0.909413
vn 0.140856 0.731947 0.666644
vn 0.032300 0.798407 0.601252
vn -0.685332 0.449770 -0.572736
vn 0.037525 0.673307 0.738410
vn -0.937549 0.341077 0.068324
vn 0.063567 0.953688 0.294004
vn -0.609490 0.400659 0.684101
vn 0.231371 0.923624 -0.305591
vn 0.062956 0.247061 0.966953
vn 0.339974 0.939100 -0.050085
vn 0.689939 0.181613 0.700714
vn 0.034772 0.981356 0.189025
vn 0.961455 0.265060 0.073123
vn -0.217961 0.877012 0.428185
vn 0.047068 0.909263 0.413551
vn -0.996957 -0.064504 -0.043781
vn -0.709104 -0.072027 0.701416
vn -0.670698 -0.001292 -0.741729
vn -0.018237 -0.021136 -0.999610
vn 0.660129 -0.092582 -0.745425
vn 0.987688 -0.144769 -0.059280
vn 0.708042 -0.181927 0.682334
vn -0.047388 -0.142577 0.988649
vn -0.999114 -0.004250 -0.041874
vn -0.712567 -0.029750 0.700973
vn -0.637274 -0.021350 -0.770342
vn -0.026594 -0.032239 -0.999126
vn 0.656990 -0.041282 -0.752769
vn 0.996738 -0.051429 -0.062198
vn 0.716853 -0.026377 0.696725
vn -0.039016 -0.024788 0.998931
s 1
f 50/63/50 51/64/51 94/65/52 95/66/53
f 51/124/51 52/67/54 93/68/55 94/120/52
f 52/67/54 53/69/56 92/70/57 93/68/55
f 53/69/56 54/71/58 91/72/59 92/70/57
f 54/71/58 55/73/60 98/74/61 91/72/59
f 55/73/60 56/75/62 97/76/63 98/74/61
f 56/75/62 57/77/64 96/78/65 97/76/63
f 57/77/64 50/63/50 95/66/53 96/78/65
f 58/113/66 59/119/67 67/81/68 66/82/69
f 59/119/67 60/118/70 68/84/71 67/81/68
f 60/118/70 61/117/72 69/86/73 68/84/71
f 61/117/72 62/116/74 70/88/75 69/86/73
f 62/116/74 63/115/76 71/90/77 70/88/75
f 63/115/76 64/114/78 72/92/79 71/90/77
f 64/114/78 65/112/80 73/94/81 72/92/79
f 65/112/80 58/113/66 66/82/69 73/94/81
f 66/82/69 67/81/68 74/95/82
f 67/81/68 68/84/71 74/95/82
f 68/84/71 69/86/73 74/95/82
f 69/86/73 70/88/75 74/95/82
f 70/88/75 71/90/77 74/95/82
f 71/90/77 72/92/79 74/95/82
f 72/92/79 73/94/81 74/95/82
f 73/94/81 66/82/69 74/95/82
f 76/96/83 75/97/84 62/87/74 61/85/72
f 77/98/85 76/96/83 61/85/72 60/83/70
f 78/122/86 77/98/85 60/83/70 59/123/67
f 79/100/87 78/99/86 59/80/67 58/79/66
f 80/101/88 79/100/87 58/79/66 65/93/80
f 81/102/89 80/101/88 65/93/80 64/91/78
f 82/103/90 81/102/89 64/91/78 63/89/76
f 75/97/84 82/103/90 63/89/76 62/87/74
f 84/104/91 83/105/92 75/97/84 76/96/83
f 85/106/93 84/104/91 76/96/83 77/98/85
f 86/121/94 85/106/93 77/98/85 78/122/86
f 87/108/95 86/107/94 78/99/86 79/100/87
f 88/109/96 87/108/95 79/100/87 80/101/88
f 89/110/97 88/109/96 80/101/88 81/102/89
f 90/111/98 89/110/97 81/102/89 82/103/90
f 83/105/92 90/111/98 82/103/90 75/97/84
f 92/70/57 91/72/59 83/105/92 84/104/91
f 93/68/55 92/70/57 84/104/91 85/106/93
f 94/120/52 93/68/55 85/106/93 86/121/94
f 95/66/53 94/65/52 86/107/94 87/108/95
f 96/78/65 95/66/53 87/108/95 88/109/96
f 97/76/63 96/78/65 88/109/96 89/110/97
f 98/74/61 97/76/63 89/110/97 90/111/98
f 91/72/59 98/74/61 90/111/98 83/105/92
v -1.429280 -0.000047 1.736620
v -1.514911 -0.000047 1.701150
v -1.600543 -0.000047 1.736620
v -1.636012 -0.000047 1.822252
v -1.600543 -0.000047 1.907883
v -1.514911 -0.000047 1.943353
v -1.429280 -0.000047 1.907883
v -1.393810 -0.000047 1.822252
v -1.438781 0.253124 1.753469
v -1.510159 0.258962 1.722148
v -1.582403 0.293597 1.751933
v -1.614801 0.283624 1.823315
v -1.587790 0.255168 1.895229
v -1.517705 0.214020 1.924893
v -1.444983 0.197374 1.895720
v -1.411787 0.224308 1.825362
v -1.456372 0.239517 1.768750
v -1.511470 0.243333 1.744616
v -1.567023 0.277510 1.767969
v -1.592098 0.268884 1.823065
v -1.571365 0.243986 1.878453
v -1.517112 0.214375 1.901503
v -1.461066 0.198527 1.878783
v -1.435942 0.208199 1.823750
v -1.515258 0.212221 1.821819
v -1.514911 0.164282 1.923194
v -1.590815 0.190886 1.891349
v -1.618091 0.213710 1.819095
v -1.585776 0.221902 1.747606
v -1.513242 0.201289 1.718193
v -1.441765 0.189705 1.749641
v -1.414502 0.166610 1.821879
v -1.447418 0.145625 1.892596
v -1.517058 0.125818 1.920390
v -1.586452 0.145929 1.891646
v -1.615196 0.158719 1.822252
v -1.586452 0.162764 1.752857
v -1.517058 0.148760 1.724113
v -1.447663 0.143968 1.752857
v -1.418919 0.130979 1.822252
v -1.447663 0.117468 1.891646
v -1.514911 0.062521 1.923452
v -1.586471 0.069996 1.893811
v -1.616112 0.074750 1.822252
v -1.586471 0.076254 1.750692
v -1.514911 0.071049 1.721051
v -1.443352 0.069267 1.750692
v -1.413711 0.064439 1.822252
v -1.443352 0.059417 1.893811
vt 0.346773 0.457491
vt 0.408004 0.444653
vt 0.417428 0.515528
vt 0.361850 0.526016
vt 0.471750 0.437771
vt 0.472962 0.512104
vt 0.059712 0.561868
vt 0.096240 0.627470
vt 0.116381 0.535192
vt 0.145897 0.599588
vt 0.172921 0.511820
vt 0.196281 0.571077
vt 0.229509 0.490336
vt 0.249305 0.548940
vt 0.287526 0.473158
vt 0.305440 0.536230
vt 0.404430 0.704907
vt 0.459025 0.696978
vt 0.862254 0.952816
vt 0.911519 0.958002
vt 0.520977 0.717204
vt 0.806187 0.925327
vt 0.178990 0.816881
vt 0.806937 0.874463
vt 0.217980 0.769594
vt 0.847305 0.834828
vt 0.249550 0.711706
vt 0.906949 0.829243
vt 0.290848 0.678145
vt 0.949345 0.862071
vt 0.346386 0.690288
vt 0.949042 0.912566
vt 0.892238 0.890378
vt 0.189698 0.712157
vt 0.232333 0.665396
vt 0.149345 0.754501
vt 0.505291 0.647953
vt 0.446876 0.641487
vt 0.391656 0.643079
vt 0.334324 0.634003
vt 0.275466 0.629984
vt 0.174582 0.669770
vt 0.217589 0.630302
vt 0.130431 0.703341
vt 0.491181 0.591563
vt 0.435321 0.590564
vt 0.381167 0.598438
vt 0.324239 0.600051
vt 0.266975 0.603664
vt 0.969660 0.929408
vt 0.915979 0.982210
vt 0.967006 0.853790
vt 0.911673 0.810834
vt 0.832098 0.817741
vt 0.782612 0.869685
vt 0.782609 0.935291
vt 0.849238 0.974267
vt 0.047870 0.654793
vt 0.083198 0.729146
vt 0.101822 0.784173
vt 0.132082 0.848366
vt 0.004357 0.594366
vn 0.675767 0.279039 -0.682258
vn -0.004630 0.266306 -0.963877
vn -0.005956 0.162122 -0.986753
vn 0.691508 0.177756 -0.700157
vn -0.684818 0.258156 -0.681454
vn -0.702474 0.139552 -0.697893
vn -0.965604 0.259984 -0.004049
vn -0.990201 0.139402 -0.008317
vn -0.685556 0.275991 0.673678
vn -0.709443 0.156322 0.687207
vn -0.007844 0.297937 0.954553
vn -0.012603 0.190024 0.981699
vn 0.673981 0.307066 0.671908
vn 0.694577 0.210264 0.688006
vn 0.955441 0.295092 -0.007233
vn 0.980158 0.197839 -0.012242
vn 0.678523 0.342410 -0.649894
vn 0.037721 0.349347 -0.936234
vn 0.265411 0.859629 0.436572
vn -0.188897 0.851107 0.489832
vn -0.670451 0.378032 -0.638425
vn 0.548773 0.752338 0.364467
vn -0.943433 0.327810 -0.049752
vn 0.561560 0.788975 0.249335
vn -0.720040 0.283269 0.633483
vn 0.545428 0.835991 0.060221
vn -0.059834 0.214067 0.974985
vn 0.378945 0.925056 -0.025910
vn 0.697612 0.187827 0.691417
vn 0.021309 0.998323 0.053822
vn 0.959415 0.280864 0.025250
vn -0.185462 0.926904 0.326270
vn 0.326572 0.913672 0.241979
vn -0.740889 -0.032573 0.670837
vn -0.024086 -0.048709 0.998523
vn -0.999071 0.006371 -0.042611
vn -0.695053 0.024534 -0.718540
vn -0.003062 -0.017738 -0.999838
vn 0.710041 -0.051145 -0.702300
vn 0.996804 -0.079822 -0.003309
vn 0.706800 -0.066453 0.704286
vn -0.742254 -0.008197 0.670068
vn -0.060026 0.010885 0.998137
vn -0.999228 -0.016685 -0.035565
vn -0.716834 -0.021013 -0.696927
vn -0.037997 -0.017876 -0.999118
vn 0.676705 -0.019625 -0.735992
vn 0.998768 0.012129 -0.048117
vn 0.708675 0.031817 0.704817
s 1
f 99/125/99 100/126/100 144/127/101 145/128/102
f 100/126/100 101/129/103 143/130/104 144/127/101
f 101/186/103 102/131/105 142/132/106 143/182/104
f 102/131/105 103/133/107 141/134/108 142/132/106
f 103/133/107 104/135/109 140/136/110 141/134/108
f 104/135/109 105/137/111 147/138/112 140/136/110
f 105/137/111 106/139/113 146/140/114 147/138/112
f 106/139/113 99/125/99 145/128/102 146/140/114
f 107/175/115 108/181/116 116/143/117 115/144/118
f 108/181/116 109/180/119 117/146/120 116/143/117
f 109/180/119 110/179/121 118/148/122 117/146/120
f 110/179/121 111/178/123 119/150/124 118/148/122
f 111/178/123 112/177/125 120/152/126 119/150/124
f 112/177/125 113/176/127 121/154/128 120/152/126
f 113/176/127 114/174/129 122/156/130 121/154/128
f 114/174/129 107/175/115 115/144/118 122/156/130
f 115/144/118 116/143/117 123/157/131
f 116/143/117 117/146/120 123/157/131
f 117/146/120 118/148/122 123/157/131
f 118/148/122 119/150/124 123/157/131
f 119/150/124 120/152/126 123/157/131
f 120/152/126 121/154/128 123/157/131
f 121/154/128 122/156/130 123/157/131
f 122/156/130 115/144/118 123/157/131
f 125/158/132 124/159/133 112/151/125 111/149/123
f 126/160/134 125/158/132 111/149/123 110/147/121
f 127/184/135 126/160/134 110/147/121 109/185/119
f 128/162/136 127/161/135 109/145/119 108/142/116
f 129/163/137 128/162/136 108/142/116 107/141/115
f 130/164/138 129/163/137 107/141/115 114/155/129
f 131/165/139 130/164/138 114/155/129 113/153/127
f 124/159/133 131/165/139 113/153/127 112/151/125
f 133/166/140 132/167/141 124/159/133 125/158/132
f 134/168/142 133/166/140 125/158/132 126/160/134
f 135/183/143 134/168/142 126/160/134 127/184/135
f 136/170/144 135/169/143 127/161/135 128/162/136
f 137/171/145 136/170/144 128/162/136 129/163/137
f 138/172/146 137/171/145 129/163/137 130/164/138
f 139/173/147 138/172/146 130/164/138 131/165/139
f 132/167/141 139/173/147 131/165/139 124/159/133
f 141/134/108 140/136/110 132/167/141 133/166/140
f 142/132/106 141/134/108 133/166/140 134/168/142
f 143/182/104 142/132/106 134/168/142 135/183/143
f 144/127/101 143/130/104 135/169/143 136/170/144
f 145/128/102 144/127/101 136/170/144 137/171/145
f 146/140/114 145/128/102 137/171/145 138/172/146
f 147/138/112 146/140/114 138/172/146 139/173/147
f 140/136/110 147/138/112 139/173/147 132/167/141
