# Blender v2.80 (sub 75) OBJ File: 'Character015blend.blend'
# www.blender.org
o Steps.010_Cube.024
v -0.821904 0.413137 0.198779
v -0.821904 0.585996 0.198779
v -0.821904 0.413137 -0.242002
v -0.821904 0.585996 -0.242002
v 0.818588 0.413137 0.198779
v 0.827138 0.585996 0.198779
v 0.818588 0.413137 -0.242002
v 0.818588 0.585996 -0.242002
v -0.821904 0.005504 1.020161
v -0.821904 0.198407 1.020161
v -0.821904 0.005504 0.705041
v -0.821904 0.198407 0.705041
v 0.818588 0.005504 1.020161
v 0.827138 0.198407 1.020161
v 0.818588 0.005504 0.705041
v 0.818588 0.198407 0.705041
v -0.821904 0.209317 0.776413
v -0.821904 0.402219 0.776413
v -0.821904 0.209317 0.461292
v -0.821904 0.402219 0.461292
v 0.818588 0.209317 0.776413
v 0.827138 0.402219 0.776413
v 0.818588 0.209317 0.461292
v 0.818588 0.402219 0.461292
v -0.821904 0.405614 0.529756
v -0.821904 0.598517 0.529756
v -0.821904 0.405614 0.214635
v -0.821904 0.598517 0.214635
v 0.818588 0.405614 0.529756
v 0.827138 0.598517 0.529756
v 0.818588 0.405614 0.214635
v 0.818588 0.598517 0.214635
v -0.821904 0.609426 0.286007
v -0.821904 0.802329 0.286007
v -0.821904 0.609426 -0.029113
v -0.821904 0.802329 -0.029113
v 0.818588 0.609426 0.286007
v 0.827138 0.802329 0.286007
v 0.818588 0.609426 -0.029113
v 0.818588 0.802329 -0.029113
v -0.821904 1.017274 -0.233647
v -0.821904 1.210177 -0.233647
v -0.821904 1.017274 -0.548768
v -0.821904 1.210177 -0.548768
v 0.818588 1.017274 -0.233647
v 0.827138 1.210177 -0.233647
v 0.818588 1.017274 -0.548768
v 0.818588 1.210177 -0.548768
v -0.821904 0.813462 0.010101
v -0.821904 1.006365 0.010101
v -0.821904 0.813462 -0.305019
v -0.821904 1.006365 -0.305019
v 0.818588 0.813462 0.010101
v 0.827138 1.006365 0.010101
v 0.818588 0.813462 -0.305019
v 0.818588 1.006365 -0.305019
v -0.821904 0.005504 0.679564
v -0.821904 0.198407 0.679564
v -0.821904 0.005504 0.320996
v -0.821904 0.198407 0.320996
v 0.818588 0.005504 0.679564
v 0.827138 0.198407 0.679564
v 0.818588 0.005504 0.320996
v 0.818588 0.198407 0.320996
v -0.821904 0.225874 0.441245
v -0.821904 0.397756 0.441245
v -0.821904 0.225874 0.224530
v -0.821904 0.397756 0.224530
v 0.818588 0.225874 0.441245
v 0.827138 0.397756 0.441245
v 0.818588 0.225874 0.224530
v 0.818588 0.397756 0.224530
v -0.821904 -0.183509 0.411272
v -0.821904 -0.011627 0.411272
v -0.821904 -0.183509 0.123171
v -0.821904 -0.011627 0.123171
v 0.818588 -0.183509 0.411272
v 0.827138 -0.011627 0.411272
v 0.818588 -0.183509 0.123171
v 0.818588 -0.011627 0.123171
v -0.821904 0.029201 0.188333
v -0.821904 0.403431 0.188333
v -0.821904 0.029201 -0.109120
v -0.821904 0.403431 -0.109120
v 0.818588 0.029201 0.188333
v 0.827138 0.403431 0.188333
v 0.818588 0.029201 -0.109120
v 0.818588 0.403431 -0.109120
v -0.821904 0.024531 0.317285
v -0.821904 0.217433 0.317285
v -0.821904 0.024531 0.195821
v -0.821904 0.217433 0.195821
v 0.818588 0.024531 0.317285
v 0.827138 0.217433 0.317285
v 0.818588 0.024531 0.195821
v 0.818588 0.217433 0.195821
v -0.821904 0.620515 -0.059903
v -0.821904 0.793373 -0.059903
v -0.821904 0.620515 -0.294019
v -0.821904 0.793373 -0.294019
v 0.818588 0.620515 -0.059903
v 0.827138 0.793373 -0.059903
v 0.818588 0.620515 -0.294019
v 0.818588 0.793373 -0.294019
v -0.821904 0.828452 -0.340027
v -0.821904 1.001311 -0.340027
v -0.821904 0.828452 -0.574143
v -0.821904 1.001311 -0.574143
v 0.818588 0.828452 -0.340027
v 0.827138 1.001311 -0.340027
v 0.818588 0.828452 -0.574143
v 0.818588 1.001311 -0.574143
v -0.821904 0.810666 -0.309560
v -0.821904 0.526631 -0.309560
v -0.821904 0.810666 -0.716769
v -0.821904 0.526631 -0.716769
v 0.818588 0.810666 -0.309560
v 0.827138 0.526631 -0.309560
v 0.818588 0.810666 -0.716769
v 0.818588 0.526631 -0.716769
v -0.821904 -0.174208 0.087952
v -0.821904 0.018695 0.087952
v -0.821904 -0.174208 -0.270615
v -0.821904 0.018695 -0.270615
v 0.818588 -0.174208 0.087952
v 0.827138 0.018695 0.087952
v 0.818588 -0.174208 -0.270615
v 0.818588 0.018695 -0.270615
v -0.821904 0.035672 -0.125868
v -0.821904 0.174405 -0.125868
v -0.821904 0.035672 -0.423320
v -0.821904 0.174405 -0.423320
v 0.818588 0.035672 -0.125868
v 0.827138 0.174405 -0.125868
v 0.818588 0.035672 -0.423320
v 0.818588 0.174405 -0.423320
v -0.821904 0.393353 -0.145701
v -0.821904 0.196336 -0.145701
v -0.821904 0.393353 -0.362416
v -0.821904 0.196336 -0.362416
v 0.818588 0.393353 -0.145701
v 0.827138 0.196336 -0.145701
v 0.818588 0.393353 -0.362416
v 0.818588 0.196336 -0.362416
v -0.821904 0.410877 -0.263347
v -0.821904 0.502396 -0.263347
v -0.821904 0.410877 -0.605062
v -0.821904 0.502396 -0.605062
v 0.818588 0.410877 -0.263347
v 0.827138 0.502396 -0.263347
v 0.818588 0.410877 -0.605062
v 0.818588 0.502396 -0.605062
v -0.821904 0.206690 -0.382435
v -0.821904 0.379549 -0.382435
v -0.821904 0.206690 -0.738560
v -0.821904 0.379549 -0.738560
v 0.818588 0.206690 -0.382435
v 0.827138 0.379549 -0.382435
v 0.818588 0.206690 -0.738560
v 0.818588 0.379549 -0.738560
v -0.821904 0.011148 -0.436933
v -0.821904 0.184007 -0.436933
v -0.821904 0.011148 -0.793058
v -0.821904 0.184007 -0.793058
v 0.818588 0.011148 -0.436933
v 0.827138 0.184007 -0.436933
v 0.818588 0.011148 -0.793058
v 0.818588 0.184007 -0.793058
v -0.821904 -0.307060 -0.292169
v -0.821904 -0.023334 -0.292169
v -0.821904 -0.307060 -0.619490
v -0.821904 -0.023334 -0.619490
v 0.818588 -0.307060 -0.292169
v 0.827138 -0.023334 -0.292169
v 0.818588 -0.307060 -0.619490
v 0.818588 -0.023334 -0.619490
vt 0.375000 0.000000
vt 0.375000 0.250000
vt 0.625000 0.250000
vt 0.625000 0.000000
vt 0.375000 0.500000
vt 0.625000 0.500000
vt 0.375000 0.750000
vt 0.625000 0.639720
vt 0.375000 1.000000
vt 0.625000 1.000000
vt 0.125000 0.500000
vt 0.125000 0.750000
vt 0.875000 0.750000
vt 0.875000 0.500000
vt 0.375000 0.000000
vt 0.375000 0.250000
vt 0.625000 0.250000
vt 0.625000 0.000000
vt 0.375000 0.500000
vt 0.625000 0.500000
vt 0.375000 0.750000
vt 0.625000 0.639720
vt 0.375000 1.000000
vt 0.625000 1.000000
vt 0.125000 0.500000
vt 0.125000 0.750000
vt 0.875000 0.750000
vt 0.875000 0.500000
vt 0.375000 0.000000
vt 0.375000 0.250000
vt 0.625000 0.250000
vt 0.625000 0.000000
vt 0.375000 0.500000
vt 0.625000 0.500000
vt 0.375000 0.750000
vt 0.625000 0.639720
vt 0.375000 1.000000
vt 0.625000 1.000000
vt 0.125000 0.500000
vt 0.125000 0.750000
vt 0.875000 0.750000
vt 0.875000 0.500000
vt 0.375000 0.000000
vt 0.375000 0.250000
vt 0.625000 0.250000
vt 0.625000 0.000000
vt 0.375000 0.500000
vt 0.625000 0.500000
vt 0.375000 0.750000
vt 0.625000 0.639720
vt 0.375000 1.000000
vt 0.625000 1.000000
vt 0.125000 0.500000
vt 0.125000 0.750000
vt 0.875000 0.750000
vt 0.875000 0.500000
vt 0.375000 0.000000
vt 0.375000 0.250000
vt 0.625000 0.250000
vt 0.625000 0.000000
vt 0.375000 0.500000
vt 0.625000 0.500000
vt 0.375000 0.750000
vt 0.625000 0.639720
vt 0.375000 1.000000
vt 0.625000 1.000000
vt 0.125000 0.500000
vt 0.125000 0.750000
vt 0.875000 0.750000
vt 0.875000 0.500000
vt 0.375000 0.000000
vt 0.375000 0.250000
vt 0.625000 0.250000
vt 0.625000 0.000000
vt 0.375000 0.500000
vt 0.625000 0.500000
vt 0.375000 0.750000
vt 0.625000 0.639720
vt 0.375000 1.000000
vt 0.625000 1.000000
vt 0.125000 0.500000
vt 0.125000 0.750000
vt 0.875000 0.750000
vt 0.875000 0.500000
vt 0.375000 0.000000
vt 0.375000 0.250000
vt 0.625000 0.250000
vt 0.625000 0.000000
vt 0.375000 0.500000
vt 0.625000 0.500000
vt 0.375000 0.750000
vt 0.625000 0.639720
vt 0.375000 1.000000
vt 0.625000 1.000000
vt 0.125000 0.500000
vt 0.125000 0.750000
vt 0.875000 0.750000
vt 0.875000 0.500000
vt 0.375000 0.000000
vt 0.375000 0.250000
vt 0.625000 0.250000
vt 0.625000 0.000000
vt 0.375000 0.500000
vt 0.625000 0.500000
vt 0.375000 0.750000
vt 0.625000 0.639720
vt 0.375000 1.000000
vt 0.625000 1.000000
vt 0.125000 0.500000
vt 0.125000 0.750000
vt 0.875000 0.750000
vt 0.875000 0.500000
vt 0.375000 0.000000
vt 0.375000 0.250000
vt 0.625000 0.250000
vt 0.625000 0.000000
vt 0.375000 0.500000
vt 0.625000 0.500000
vt 0.375000 0.750000
vt 0.625000 0.639720
vt 0.375000 1.000000
vt 0.625000 1.000000
vt 0.125000 0.500000
vt 0.125000 0.750000
vt 0.875000 0.750000
vt 0.875000 0.500000
vt 0.375000 0.000000
vt 0.375000 0.250000
vt 0.625000 0.250000
vt 0.625000 0.000000
vt 0.375000 0.500000
vt 0.625000 0.500000
vt 0.375000 0.750000
vt 0.625000 0.639720
vt 0.375000 1.000000
vt 0.625000 1.000000
vt 0.125000 0.500000
vt 0.125000 0.750000
vt 0.875000 0.750000
vt 0.875000 0.500000
vt 0.375000 0.000000
vt 0.375000 0.250000
vt 0.625000 0.250000
vt 0.625000 0.000000
vt 0.375000 0.500000
vt 0.625000 0.500000
vt 0.375000 0.750000
vt 0.625000 0.639720
vt 0.375000 1.000000
vt 0.625000 1.000000
vt 0.125000 0.500000
vt 0.125000 0.750000
vt 0.875000 0.750000
vt 0.875000 0.500000
vt 0.375000 0.000000
vt 0.375000 0.250000
vt 0.625000 0.250000
vt 0.625000 0.000000
vt 0.375000 0.500000
vt 0.625000 0.500000
vt 0.375000 0.750000
vt 0.625000 0.639720
vt 0.375000 1.000000
vt 0.625000 1.000000
vt 0.125000 0.500000
vt 0.125000 0.750000
vt 0.875000 0.750000
vt 0.875000 0.500000
vt 0.375000 0.000000
vt 0.375000 0.250000
vt 0.625000 0.250000
vt 0.625000 0.000000
vt 0.375000 0.500000
vt 0.625000 0.500000
vt 0.375000 0.750000
vt 0.625000 0.639720
vt 0.375000 1.000000
vt 0.625000 1.000000
vt 0.125000 0.500000
vt 0.125000 0.750000
vt 0.875000 0.750000
vt 0.875000 0.500000
vt 0.375000 0.000000
vt 0.375000 0.250000
vt 0.625000 0.250000
vt 0.625000 0.000000
vt 0.375000 0.500000
vt 0.625000 0.500000
vt 0.375000 0.750000
vt 0.625000 0.639720
vt 0.375000 1.000000
vt 0.625000 1.000000
vt 0.125000 0.500000
vt 0.125000 0.750000
vt 0.875000 0.750000
vt 0.875000 0.500000
vt 0.375000 0.000000
vt 0.375000 0.250000
vt 0.625000 0.250000
vt 0.625000 0.000000
vt 0.375000 0.500000
vt 0.625000 0.500000
vt 0.375000 0.750000
vt 0.625000 0.639720
vt 0.375000 1.000000
vt 0.625000 1.000000
vt 0.125000 0.500000
vt 0.125000 0.750000
vt 0.875000 0.750000
vt 0.875000 0.500000
vt 0.375000 0.000000
vt 0.375000 0.250000
vt 0.625000 0.250000
vt 0.625000 0.000000
vt 0.375000 0.500000
vt 0.625000 0.500000
vt 0.375000 0.750000
vt 0.625000 0.639720
vt 0.375000 1.000000
vt 0.625000 1.000000
vt 0.125000 0.500000
vt 0.125000 0.750000
vt 0.875000 0.750000
vt 0.875000 0.500000
vt 0.375000 0.000000
vt 0.375000 0.250000
vt 0.625000 0.250000
vt 0.625000 0.000000
vt 0.375000 0.500000
vt 0.625000 0.500000
vt 0.375000 0.750000
vt 0.625000 0.639720
vt 0.375000 1.000000
vt 0.625000 1.000000
vt 0.125000 0.500000
vt 0.125000 0.750000
vt 0.875000 0.750000
vt 0.875000 0.500000
vt 0.375000 0.000000
vt 0.375000 0.250000
vt 0.625000 0.250000
vt 0.625000 0.000000
vt 0.375000 0.500000
vt 0.625000 0.500000
vt 0.375000 0.750000
vt 0.625000 0.639720
vt 0.375000 1.000000
vt 0.625000 1.000000
vt 0.125000 0.500000
vt 0.125000 0.750000
vt 0.875000 0.750000
vt 0.875000 0.500000
vt 0.375000 0.000000
vt 0.375000 0.250000
vt 0.625000 0.250000
vt 0.625000 0.000000
vt 0.375000 0.500000
vt 0.625000 0.500000
vt 0.375000 0.750000
vt 0.625000 0.639720
vt 0.375000 1.000000
vt 0.625000 1.000000
vt 0.125000 0.500000
vt 0.125000 0.750000
vt 0.875000 0.750000
vt 0.875000 0.500000
vt 0.375000 0.000000
vt 0.375000 0.250000
vt 0.625000 0.250000
vt 0.625000 0.000000
vt 0.375000 0.500000
vt 0.625000 0.500000
vt 0.375000 0.750000
vt 0.625000 0.639720
vt 0.375000 1.000000
vt 0.625000 1.000000
vt 0.125000 0.500000
vt 0.125000 0.750000
vt 0.875000 0.750000
vt 0.875000 0.500000
vt 0.375000 0.000000
vt 0.375000 0.250000
vt 0.625000 0.250000
vt 0.625000 0.000000
vt 0.375000 0.500000
vt 0.625000 0.500000
vt 0.375000 0.750000
vt 0.625000 0.639720
vt 0.375000 1.000000
vt 0.625000 1.000000
vt 0.125000 0.500000
vt 0.125000 0.750000
vt 0.875000 0.750000
vt 0.875000 0.500000
vt 0.375000 0.000000
vt 0.375000 0.250000
vt 0.625000 0.250000
vt 0.625000 0.000000
vt 0.375000 0.500000
vt 0.625000 0.500000
vt 0.375000 0.750000
vt 0.625000 0.639720
vt 0.375000 1.000000
vt 0.625000 1.000000
vt 0.125000 0.500000
vt 0.125000 0.750000
vt 0.875000 0.750000
vt 0.875000 0.500000
vn 1.0000 0.0000 0.0000
vn 0.0000 0.0000 1.0000
vn -0.9996 0.0247 0.0097
vn 0.0000 0.0000 -1.0000
vn 0.0000 1.0000 0.0000
vn 0.0000 -1.0000 0.0000
vn -0.9997 0.0222 0.0136
vn -0.9997 0.0222 0.0119
vn -0.9995 0.0249 0.0197
vn -0.9996 0.0249 0.0148
vn -0.9998 0.0114 0.0144
vn -0.9991 0.0221 0.0352
vn -0.9995 0.0247 0.0183
vn -1.0000 0.0000 0.0000
vn 0.9998 0.0150 -0.0105
vn -0.9994 0.0308 0.0144
vn 0.9996 0.0217 -0.0197
vn -0.9988 0.0467 0.0125
vn -0.9996 0.0247 0.0120
vn -0.9998 0.0151 0.0131
s off
f 1/1/1 3/2/1 4/3/1 2/4/1
f 3/2/2 7/5/2 8/6/2 4/3/2
f 7/5/3 5/7/3 6/8/3 8/6/3
f 5/7/4 1/9/4 2/10/4 6/8/4
f 3/11/5 1/12/5 5/7/5 7/5/5
f 8/6/6 6/8/6 2/13/6 4/14/6
f 9/15/1 11/16/1 12/17/1 10/18/1
f 11/16/2 15/19/2 16/20/2 12/17/2
f 15/19/7 13/21/7 14/22/7 16/20/7
f 13/21/4 9/23/4 10/24/4 14/22/4
f 11/25/5 9/26/5 13/21/5 15/19/5
f 16/20/6 14/22/6 10/27/6 12/28/6
f 17/29/1 19/30/1 20/31/1 18/32/1
f 19/30/2 23/33/2 24/34/2 20/31/2
f 23/33/7 21/35/7 22/36/7 24/34/7
f 21/35/4 17/37/4 18/38/4 22/36/4
f 19/39/5 17/40/5 21/35/5 23/33/5
f 24/34/6 22/36/6 18/41/6 20/42/6
f 25/43/1 27/44/1 28/45/1 26/46/1
f 27/44/2 31/47/2 32/48/2 28/45/2
f 31/47/7 29/49/7 30/50/7 32/48/7
f 29/49/4 25/51/4 26/52/4 30/50/4
f 27/53/5 25/54/5 29/49/5 31/47/5
f 32/48/6 30/50/6 26/55/6 28/56/6
f 33/57/1 35/58/1 36/59/1 34/60/1
f 35/58/2 39/61/2 40/62/2 36/59/2
f 39/61/7 37/63/7 38/64/7 40/62/7
f 37/63/4 33/65/4 34/66/4 38/64/4
f 35/67/5 33/68/5 37/63/5 39/61/5
f 40/62/6 38/64/6 34/69/6 36/70/6
f 41/71/1 43/72/1 44/73/1 42/74/1
f 43/72/2 47/75/2 48/76/2 44/73/2
f 47/75/7 45/77/7 46/78/7 48/76/7
f 45/77/4 41/79/4 42/80/4 46/78/4
f 43/81/5 41/82/5 45/77/5 47/75/5
f 48/76/6 46/78/6 42/83/6 44/84/6
f 49/85/1 51/86/1 52/87/1 50/88/1
f 51/86/2 55/89/2 56/90/2 52/87/2
f 55/89/7 53/91/7 54/92/7 56/90/7
f 53/91/4 49/93/4 50/94/4 54/92/4
f 51/95/5 49/96/5 53/91/5 55/89/5
f 56/90/6 54/92/6 50/97/6 52/98/6
f 57/99/1 59/100/1 60/101/1 58/102/1
f 59/100/2 63/103/2 64/104/2 60/101/2
f 63/103/8 61/105/8 62/106/8 64/104/8
f 61/105/4 57/107/4 58/108/4 62/106/4
f 59/109/5 57/110/5 61/105/5 63/103/5
f 64/104/6 62/106/6 58/111/6 60/112/6
f 65/113/1 67/114/1 68/115/1 66/116/1
f 67/114/2 71/117/2 72/118/2 68/115/2
f 71/117/9 69/119/9 70/120/9 72/118/9
f 69/119/4 65/121/4 66/122/4 70/120/4
f 67/123/5 65/124/5 69/119/5 71/117/5
f 72/118/6 70/120/6 66/125/6 68/126/6
f 73/127/1 75/128/1 76/129/1 74/130/1
f 75/128/2 79/131/2 80/132/2 76/129/2
f 79/131/10 77/133/10 78/134/10 80/132/10
f 77/133/4 73/135/4 74/136/4 78/134/4
f 75/137/5 73/138/5 77/133/5 79/131/5
f 80/132/6 78/134/6 74/139/6 76/140/6
f 81/141/1 83/142/1 84/143/1 82/144/1
f 83/142/2 87/145/2 88/146/2 84/143/2
f 87/145/11 85/147/11 86/148/11 88/146/11
f 85/147/4 81/149/4 82/150/4 86/148/4
f 83/151/5 81/152/5 85/147/5 87/145/5
f 88/146/6 86/148/6 82/153/6 84/154/6
f 89/155/1 91/156/1 92/157/1 90/158/1
f 91/156/2 95/159/2 96/160/2 92/157/2
f 95/159/12 93/161/12 94/162/12 96/160/12
f 93/161/4 89/163/4 90/164/4 94/162/4
f 91/165/5 89/166/5 93/161/5 95/159/5
f 96/160/6 94/162/6 90/167/6 92/168/6
f 97/169/1 99/170/1 100/171/1 98/172/1
f 99/170/2 103/173/2 104/174/2 100/171/2
f 103/173/13 101/175/13 102/176/13 104/174/13
f 101/175/4 97/177/4 98/178/4 102/176/4
f 99/179/5 97/180/5 101/175/5 103/173/5
f 104/174/6 102/176/6 98/181/6 100/182/6
f 105/183/1 107/184/1 108/185/1 106/186/1
f 107/184/2 111/187/2 112/188/2 108/185/2
f 111/187/13 109/189/13 110/190/13 112/188/13
f 109/189/4 105/191/4 106/192/4 110/190/4
f 107/193/5 105/194/5 109/189/5 111/187/5
f 112/188/6 110/190/6 106/195/6 108/196/6
f 113/197/14 115/198/14 116/199/14 114/200/14
f 115/198/4 119/201/4 120/202/4 116/199/4
f 119/201/15 117/203/15 118/204/15 120/202/15
f 117/203/2 113/205/2 114/206/2 118/204/2
f 115/207/5 113/208/5 117/203/5 119/201/5
f 120/202/6 118/204/6 114/209/6 116/210/6
f 121/211/1 123/212/1 124/213/1 122/214/1
f 123/212/2 127/215/2 128/216/2 124/213/2
f 127/215/8 125/217/8 126/218/8 128/216/8
f 125/217/4 121/219/4 122/220/4 126/218/4
f 123/221/5 121/222/5 125/217/5 127/215/5
f 128/216/6 126/218/6 122/223/6 124/224/6
f 129/225/1 131/226/1 132/227/1 130/228/1
f 131/226/2 135/229/2 136/230/2 132/227/2
f 135/229/16 133/231/16 134/232/16 136/230/16
f 133/231/4 129/233/4 130/234/4 134/232/4
f 131/235/5 129/236/5 133/231/5 135/229/5
f 136/230/6 134/232/6 130/237/6 132/238/6
f 137/239/14 139/240/14 140/241/14 138/242/14
f 139/240/4 143/243/4 144/244/4 140/241/4
f 143/243/17 141/245/17 142/246/17 144/244/17
f 141/245/2 137/247/2 138/248/2 142/246/2
f 139/249/5 137/250/5 141/245/5 143/243/5
f 144/244/6 142/246/6 138/251/6 140/252/6
f 145/253/1 147/254/1 148/255/1 146/256/1
f 147/254/2 151/257/2 152/258/2 148/255/2
f 151/257/18 149/259/18 150/260/18 152/258/18
f 149/259/4 145/261/4 146/262/4 150/260/4
f 147/263/5 145/264/5 149/259/5 151/257/5
f 152/258/6 150/260/6 146/265/6 148/266/6
f 153/267/1 155/268/1 156/269/1 154/270/1
f 155/268/2 159/271/2 160/272/2 156/269/2
f 159/271/19 157/273/19 158/274/19 160/272/19
f 157/273/4 153/275/4 154/276/4 158/274/4
f 155/277/5 153/278/5 157/273/5 159/271/5
f 160/272/6 158/274/6 154/279/6 156/280/6
f 161/281/1 163/282/1 164/283/1 162/284/1
f 163/282/2 167/285/2 168/286/2 164/283/2
f 167/285/19 165/287/19 166/288/19 168/286/19
f 165/287/4 161/289/4 162/290/4 166/288/4
f 163/291/5 161/292/5 165/287/5 167/285/5
f 168/286/6 166/288/6 162/293/6 164/294/6
f 169/295/1 171/296/1 172/297/1 170/298/1
f 171/296/2 175/299/2 176/300/2 172/297/2
f 175/299/20 173/301/20 174/302/20 176/300/20
f 173/301/4 169/303/4 170/304/4 174/302/4
f 171/305/5 169/306/5 173/301/5 175/299/5
f 176/300/6 174/302/6 170/307/6 172/308/6
