# Blender v2.80 (sub 75) OBJ File: 'Character006blend.blend'
# www.blender.org
o Rune_Stone_Cube.011
v -0.323777 0.001194 0.131782
v -0.191392 1.943853 0.077899
v -0.323777 0.001194 -0.131782
v -0.191392 1.943853 -0.077899
v 0.323777 0.001194 0.131782
v 0.191392 1.943853 0.077899
v 0.323777 0.001194 -0.131782
v 0.191392 1.943853 -0.077899
v -0.371220 0.476353 0.164615
v -0.371220 0.476353 -0.164615
v 0.371220 0.476353 -0.164615
v 0.371220 0.476353 0.164615
v -0.302294 1.462506 0.123739
v -0.302294 1.462506 -0.123739
v 0.302294 1.462506 -0.123739
v 0.302294 1.462506 0.123739
v -0.246886 1.872360 0.092430
v -0.246886 1.872360 -0.092430
v 0.246886 1.872360 -0.092430
v 0.246886 1.872360 0.092430
v -0.365584 0.001194 -0.000000
v -0.216106 1.943853 -0.000000
v 0.365584 0.001194 -0.000000
v 0.216106 1.943853 -0.000000
v 0.419153 0.476353 -0.000000
v -0.419153 0.476353 -0.000000
v 0.341328 1.462506 -0.000000
v -0.341328 1.462506 -0.000000
v 0.278765 1.872360 -0.000000
v -0.278765 1.872360 -0.000000
v -0.161888 0.001194 -0.164453
v -0.095696 1.992451 0.097212
v -0.185610 0.476352 0.205426
v -0.151147 1.511104 0.154417
v -0.123443 1.920957 0.115345
v -0.182792 0.001194 -0.000000
v -0.095696 1.992451 -0.097212
v -0.161888 0.001194 0.164453
v -0.185610 0.476352 -0.205426
v -0.151147 1.511104 -0.154417
v -0.123443 1.920957 -0.115345
v -0.108053 1.992451 -0.000000
v 0.095696 1.992451 -0.097212
v 0.161888 0.001194 0.164453
v 0.185610 0.476352 -0.205426
v 0.151147 1.511104 -0.154417
v 0.123443 1.920957 -0.115345
v 0.108053 1.992451 -0.000000
v 0.161888 0.001194 -0.164453
v 0.095696 1.992451 0.097212
v 0.185610 0.476352 0.205426
v 0.151147 1.511104 0.154417
v 0.123443 1.920957 0.115345
v 0.182792 0.001194 -0.000000
vt 0.613571 0.125000
vt 0.625000 0.125000
vt 0.625000 0.250000
vt 0.613571 0.250000
vt 0.613571 0.437500
vt 0.625000 0.437500
vt 0.625000 0.500000
vt 0.613571 0.500000
vt 0.613571 0.625000
vt 0.625000 0.625000
vt 0.625000 0.750000
vt 0.613571 0.750000
vt 0.613571 0.937500
vt 0.625000 0.937500
vt 0.625000 1.000000
vt 0.613571 1.000000
vt 0.312500 0.625000
vt 0.375000 0.625000
vt 0.375000 0.750000
vt 0.312500 0.750000
vt 0.812500 0.625000
vt 0.875000 0.625000
vt 0.875000 0.750000
vt 0.812500 0.750000
vt 0.375000 0.937500
vt 0.451150 0.937500
vt 0.451150 1.000000
vt 0.375000 1.000000
vt 0.451150 0.625000
vt 0.451150 0.750000
vt 0.375000 0.437500
vt 0.451150 0.437500
vt 0.451150 0.500000
vt 0.375000 0.500000
vt 0.375000 0.125000
vt 0.451150 0.125000
vt 0.451150 0.250000
vt 0.375000 0.250000
vt 0.548053 0.937500
vt 0.548053 1.000000
vt 0.548053 0.625000
vt 0.548053 0.750000
vt 0.548053 0.437500
vt 0.548053 0.500000
vt 0.548053 0.125000
vt 0.548053 0.250000
vt 0.548053 0.000000
vt 0.613571 0.000000
vt 0.451150 0.000000
vt 0.375000 0.000000
vt 0.812500 0.500000
vt 0.875000 0.500000
vt 0.312500 0.500000
vt 0.625000 0.000000
vt 0.687500 0.625000
vt 0.687500 0.500000
vt 0.613571 0.312500
vt 0.548053 0.312500
vt 0.613571 0.812500
vt 0.548053 0.812500
vt 0.451150 0.312500
vt 0.451150 0.812500
vt 0.375000 0.312500
vt 0.375000 0.812500
vt 0.687500 0.750000
vt 0.187500 0.750000
vt 0.187500 0.625000
vt 0.625000 0.812500
vt 0.625000 0.312500
vt 0.125000 0.625000
vt 0.125000 0.750000
vt 0.125000 0.500000
vt 0.187500 0.500000
vn -0.7352 0.6323 -0.2443
vn 0.3389 0.3926 -0.8550
vn 0.7352 0.6323 0.2443
vn -0.3389 0.3926 0.8550
vn 0.0000 -1.0000 0.0000
vn -0.4358 0.8953 0.0923
vn -0.2060 -0.0911 0.9743
vn 0.9512 -0.1111 0.2880
vn 0.2060 -0.0911 -0.9743
vn -0.9512 -0.1111 -0.2880
vn -0.2150 0.0553 0.9751
vn 0.9546 0.0770 0.2879
vn 0.2150 0.0553 -0.9751
vn -0.9546 0.0770 -0.2879
vn -0.2265 0.1061 0.9682
vn 0.9399 0.1470 0.3083
vn 0.2265 0.1061 -0.9682
vn -0.9399 0.1470 -0.3083
vn -0.9399 0.1470 0.3083
vn 0.9399 0.1470 -0.3083
vn -0.9546 0.0770 0.2879
vn 0.9546 0.0770 -0.2879
vn -0.9512 -0.1111 0.2880
vn 0.9512 -0.1111 -0.2880
vn -0.4358 0.8953 -0.0923
vn 0.7352 0.6323 -0.2443
vn -0.7352 0.6323 0.2443
vn 0.0000 1.0000 -0.0000
vn 0.0000 0.0949 -0.9955
vn 0.0000 0.0949 0.9955
vn 0.0000 0.0492 -0.9988
vn 0.0000 0.0492 0.9988
vn 0.0000 -0.0859 -0.9963
vn 0.0000 -0.0859 0.9963
vn 0.0000 0.2458 0.9693
vn 0.0000 0.2458 -0.9693
vn -0.3389 0.3926 -0.8550
vn -0.2060 -0.0911 -0.9743
vn -0.2150 0.0553 -0.9751
vn -0.2265 0.1061 -0.9682
vn 0.3389 0.3926 0.8550
vn 0.4358 0.8953 0.0923
vn 0.2060 -0.0911 0.9743
vn 0.2150 0.0553 0.9751
vn 0.2265 0.1061 0.9682
vn 0.4358 0.8953 -0.0923
s off
f 30/1/1 22/2/1 4/3/1 18/4/1
f 47/5/2 43/6/2 8/7/2 19/8/2
f 29/9/3 24/10/3 6/11/3 20/12/3
f 35/13/4 32/14/4 2/15/4 17/16/4
f 54/17/5 23/18/5 5/19/5 44/20/5
f 42/21/6 22/22/6 2/23/6 32/24/6
f 38/25/7 33/26/7 9/27/7 1/28/7
f 23/18/8 25/29/8 12/30/8 5/19/8
f 49/31/9 45/32/9 11/33/9 7/34/9
f 21/35/10 26/36/10 10/37/10 3/38/10
f 33/26/11 34/39/11 13/40/11 9/27/11
f 25/29/12 27/41/12 16/42/12 12/30/12
f 45/32/13 46/43/13 15/44/13 11/33/13
f 26/36/14 28/45/14 14/46/14 10/37/14
f 34/39/15 35/13/15 17/16/15 13/40/15
f 27/41/16 29/9/16 20/12/16 16/42/16
f 46/43/17 47/5/17 19/8/17 15/44/17
f 28/45/18 30/1/18 18/4/18 14/46/18
f 13/47/19 17/48/19 30/1/19 28/45/19
f 15/44/20 19/8/20 29/9/20 27/41/20
f 9/49/21 13/47/21 28/45/21 26/36/21
f 11/33/22 15/44/22 27/41/22 25/29/22
f 1/50/23 9/49/23 26/36/23 21/35/23
f 7/34/24 11/33/24 25/29/24 23/18/24
f 37/51/25 4/52/25 22/22/25 42/21/25
f 49/53/5 7/34/5 23/18/5 54/17/5
f 19/8/26 8/7/26 24/10/26 29/9/26
f 17/48/27 2/54/27 22/2/27 30/1/27
f 37/51/28 42/21/28 48/55/28 43/56/28
f 41/57/29 47/5/29 46/43/29 40/58/29
f 53/59/30 35/13/30 34/39/30 52/60/30
f 40/58/31 46/43/31 45/32/31 39/61/31
f 52/60/32 34/39/32 33/26/32 51/62/32
f 39/61/33 45/32/33 49/31/33 31/63/33
f 51/62/34 33/26/34 38/25/34 44/64/34
f 42/21/28 32/24/28 50/65/28 48/55/28
f 54/17/5 44/20/5 38/66/5 36/67/5
f 50/68/35 32/14/35 35/13/35 53/59/35
f 37/69/36 43/6/36 47/5/36 41/57/36
f 18/4/37 4/3/37 37/69/37 41/57/37
f 21/70/5 36/67/5 38/66/5 1/71/5
f 3/38/38 10/37/38 39/61/38 31/63/38
f 10/37/39 14/46/39 40/58/39 39/61/39
f 14/46/40 18/4/40 41/57/40 40/58/40
f 3/72/5 31/73/5 36/67/5 21/70/5
f 20/12/41 6/11/41 50/68/41 53/59/41
f 24/10/42 48/55/42 50/65/42 6/11/42
f 5/19/43 12/30/43 51/62/43 44/64/43
f 12/30/44 16/42/44 52/60/44 51/62/44
f 16/42/45 20/12/45 53/59/45 52/60/45
f 8/7/46 43/56/46 48/55/46 24/10/46
f 49/53/5 54/17/5 36/67/5 31/73/5
