# This file uses centimeters as units for non-parametric coordinates.

v -0.346779 -0.142606 0.679150
v -0.375172 0.001302 0.679002
v -0.346321 0.145116 0.678771
v -0.264637 0.266947 0.678492
v -0.142544 0.348242 0.678210
v 0.001358 0.376627 0.677964
v 0.145176 0.347780 0.677792
v 0.376690 0.000098 0.677920
v 0.348301 0.144007 0.677772
v 0.267006 0.266094 0.677726
v -0.373356 -0.153578 0.661042
v -0.403915 0.001324 0.660880
v -0.372864 0.156127 0.660629
v -0.284939 0.287265 0.660328
v -0.153519 0.374770 0.660024
v 0.001385 0.405325 0.659760
v 0.156181 0.374275 0.659578
v 0.405388 0.000028 0.659714
v 0.374832 0.154931 0.659552
v 0.287319 0.286349 0.659505
v -0.351082 -0.145148 -0.375125
v -0.374832 -0.154931 -0.362128
v -0.269135 -0.268218 -0.375078
v -0.287327 -0.286350 -0.362081
v -0.146332 -0.350555 -0.375149
v -0.156189 -0.374275 -0.362151
v -0.001366 -0.379631 -0.375318
v -0.001389 -0.405325 -0.362336
v 0.143696 -0.351021 -0.375566
v 0.153515 -0.374773 -0.362599
v 0.266762 -0.269074 -0.375853
v 0.284931 -0.287265 -0.362905
v 0.349102 -0.146267 -0.376133
v 0.372856 -0.156127 -0.363204
v 0.378178 -0.001301 -0.376365
v 0.403912 -0.001325 -0.363454
v 0.349567 0.143758 -0.376518
v 0.373356 0.153578 -0.363614
v 0.267620 0.266828 -0.376563
v 0.285851 0.284996 -0.363662
v 0.144810 0.349167 -0.376495
v 0.154709 0.372922 -0.363590
v -0.000156 0.378244 -0.376323
v -0.000095 0.403972 -0.363407
v -0.145218 0.349631 -0.376076
v -0.154991 0.373417 -0.363143
v -0.268284 0.267684 -0.375790
v -0.286411 0.285912 -0.362838
v -0.350620 0.144879 -0.375508
v -0.374336 0.154774 -0.362540
v -0.379700 -0.000088 -0.375278
v -0.405388 -0.000029 -0.362288
v -0.374126 -0.154280 0.130031
v -0.350338 -0.144463 0.142934
v -0.374092 -0.154246 0.155931
v 0.404655 -0.000639 0.154606
v 0.378925 -0.000616 0.141692
v 0.404621 -0.000674 0.128703
v 0.374100 0.154263 0.154445
v 0.350311 0.144443 0.141542
v 0.374065 0.154229 0.128545
v 0.286594 0.285681 0.154396
v 0.268364 0.267513 0.141499
v 0.286560 0.285647 0.128496
v 0.155453 0.373607 0.154469
v 0.145561 0.349853 0.141566
v 0.155418 0.373572 0.128567
v 0.000652 0.404657 0.154651
v 0.000591 0.378929 0.141736
v 0.000618 0.404622 0.128749
v -0.154247 0.374102 0.154915
v -0.144466 0.350316 0.141983
v -0.154285 0.374067 0.129013
v -0.285664 0.286597 0.155219
v -0.267532 0.268369 0.142266
v -0.285706 0.286563 0.129320
v -0.373592 0.155459 0.155520
v -0.349876 0.145565 0.142550
v -0.373631 0.155424 0.129621
v -0.404640 0.000656 0.155768
v -0.378952 0.000598 0.142784
v -0.404682 0.000622 0.129869
v -0.286392 -0.285397 -0.503487
v -0.373547 -0.154505 -0.503536
v -0.155773 -0.372974 -0.503560
v -0.403980 -0.000219 -0.503694
v -0.197399 -0.000548 -0.503991
v -0.373051 0.153966 -0.503942
v -0.187939 0.186729 -0.504253
v -0.285477 0.284583 -0.504241
v -0.154587 0.371737 -0.504547
v -0.001587 -0.403902 -0.503741
v -0.000629 0.195587 -0.504535
v -0.000237 0.402224 -0.464772
v 0.186050 -0.188460 -0.504296
v 0.152699 -0.373471 -0.504004
v 0.186649 0.186130 -0.504793
v 0.153946 0.371297 -0.464953
v 0.371162 -0.155694 -0.504608
v 0.283588 -0.286310 -0.504307
v 0.402092 -0.001510 -0.504857
v 0.371655 0.152774 -0.505014
v 0.284504 0.283669 -0.505063
v -0.286640 -0.285629 -0.678880
v -0.373798 -0.154736 -0.678927
v -0.188793 -0.188097 -0.679150
v -0.156025 -0.373206 -0.678952
v -0.404232 -0.000450 -0.679088
v -0.197601 -0.000735 -0.645169
v -0.001476 -0.197518 -0.656643
v -0.001842 -0.404134 -0.679134
v 0.185856 -0.188640 -0.640500
v 0.152500 -0.373651 -0.640207
v -0.189621 0.005600 -0.628540
v -0.188122 0.186562 -0.630244
v -0.000820 0.195412 -0.636544
v 0.002007 0.000681 -0.644051
v -0.188709 -0.188024 -0.623738
v -0.197544 -0.000689 -0.610034
v 0.000237 -0.000278 -0.623417
v -0.001419 -0.197465 -0.616111
v 0.195339 -0.001336 -0.623032
v 0.185928 -0.188574 -0.591109
v -0.000221 0.196135 -0.617948
v 0.186562 0.186048 -0.567334
v 0.185993 -0.188512 -0.543526
v 0.190670 -0.001957 -0.557749
v 0.402035 -0.001562 -0.544632
v 0.371109 -0.155747 -0.544382
v 0.186989 0.186024 -0.548032
v 0.371624 0.152743 -0.528419
v 0.153831 0.371192 -0.544766
v 0.284473 0.283644 -0.524137
v -0.284184 0.283598 -0.390661
v -0.371410 0.153501 -0.390363
v -0.402210 -0.000071 -0.390117
v -0.371902 -0.153743 -0.389955
v -0.285088 -0.284116 -0.389910
v -0.154991 -0.371344 -0.389980
v -0.001419 -0.402148 -0.390164
v 0.152248 -0.371839 -0.390424
v 0.282623 -0.285025 -0.390727
v 0.369850 -0.154928 -0.391024
v 0.400654 -0.001356 -0.391270
v 0.370338 0.152313 -0.391431
v 0.283524 0.282688 -0.391477
v 0.153431 0.369915 -0.391406
v -0.000137 0.400718 -0.391227
v -0.153809 0.370406 -0.390964
v -0.188091 0.186586 -0.612252
v -0.404152 -0.000379 -0.625179
v -0.373722 -0.154665 -0.625018
v -0.286564 -0.285558 -0.624972
v -0.155949 -0.373135 -0.625043
v -0.001762 -0.404062 -0.625226
v 0.152561 -0.373596 -0.598344
v -0.000446 0.195831 -0.555073
v -0.188011 0.186665 -0.552377
v -0.197468 -0.000611 -0.551245
v -0.404057 -0.000290 -0.557829
v -0.373623 -0.154576 -0.557669
v -0.286469 -0.285469 -0.557620
v -0.155853 -0.373046 -0.557693
v -0.001667 -0.403973 -0.557875
v 0.152634 -0.373527 -0.546045
vt 0.661007 0.263369
vt 0.684201 0.279102
vt 0.650856 0.290553
vt 0.631736 0.257720
vt 0.696982 0.301398
vt 0.670751 0.324171
vt 0.725359 0.313274
vt 0.731871 0.354657
vt 0.692998 0.378952
vt 0.690303 0.339779
vt 0.720220 0.391247
vt 0.698443 0.420930
vt 0.614013 0.301934
vt 0.602398 0.263253
vt 0.648290 0.300866
vt 0.670560 0.330980
vt 0.628070 0.345684
vt 0.614701 0.310036
vt 0.667909 0.334637
vt 0.673350 0.367151
vt 0.643615 0.379937
vt 0.631388 0.346852
vt 0.665736 0.442606
vt 0.652899 0.401754
vt 0.579676 0.313952
vt 0.577190 0.279173
vt 0.591784 0.359094
vt 0.574616 0.321225
vt 0.642561 0.382973
vt 0.605998 0.398852
vt 0.627869 0.445192
vt 0.612842 0.407163
vt 0.552625 0.273602
vt 0.557009 0.319053
vt 0.526533 0.345651
vt 0.530617 0.307585
vt 0.564515 0.322710
vt 0.580487 0.364353
vt 0.540667 0.382620
vt 0.534198 0.348844
vt 0.604533 0.402566
vt 0.561991 0.411394
vt 0.615650 0.436744
vt 0.588852 0.431974
vt 0.007614 0.314585
vt 0.038454 0.314821
vt 0.038369 0.321581
vt 0.006293 0.321425
vt 0.070333 0.314562
vt 0.070353 0.321372
vt 0.102305 0.314309
vt 0.102336 0.321123
vt 0.134292 0.314058
vt 0.134323 0.320873
vt 0.166282 0.313812
vt 0.166313 0.320627
vt 0.198269 0.313570
vt 0.198301 0.320385
vt 0.262100 0.313040
vt 0.292969 0.312280
vt 0.294396 0.319216
vt 0.262271 0.319862
vt 0.230239 0.313326
vt 0.230284 0.320142
vt 0.038979 0.424624
vt 0.006825 0.424883
vt 0.071031 0.424391
vt 0.103069 0.424143
vt 0.135101 0.423894
vt 0.167133 0.423647
vt 0.199170 0.423405
vt 0.295415 0.422653
vt 0.263284 0.422896
vt 0.231218 0.423161
vt 0.263376 0.434459
vt 0.295510 0.434202
vt 0.295870 0.534896
vt 0.263856 0.534937
vt 0.231327 0.434680
vt 0.231885 0.535087
vt 0.199287 0.434915
vt 0.199929 0.535291
vt 0.167253 0.435158
vt 0.167977 0.535531
vt 0.135223 0.435405
vt 0.136021 0.535785
vt 0.103191 0.435656
vt 0.104065 0.536051
vt 0.071153 0.435910
vt 0.072109 0.536321
vt 0.039102 0.436183
vt 0.040146 0.536604
vt 0.006962 0.436423
vt 0.008047 0.536967
vt 0.009273 0.542650
vt 0.040301 0.542360
vt 0.040320 0.547775
vt 0.008404 0.547992
vt 0.516598 0.536920
vt 0.515523 0.542696
vt 0.484779 0.542606
vt 0.484805 0.536796
vt 0.516510 0.548110
vt 0.484791 0.548064
vt 0.453366 0.542405
vt 0.453411 0.536645
vt 0.453305 0.547820
vt 0.421875 0.542028
vt 0.421933 0.536267
vt 0.421796 0.547440
vt 0.390346 0.541637
vt 0.390397 0.535874
vt 0.390270 0.547047
vt 0.358804 0.541298
vt 0.358843 0.535536
vt 0.358737 0.546708
vt 0.327269 0.541010
vt 0.327309 0.535249
vt 0.327204 0.546418
vt 0.295758 0.540676
vt 0.295663 0.546098
vt 0.263856 0.540696
vt 0.263830 0.546102
vt 0.231920 0.540845
vt 0.231924 0.546251
vt 0.199979 0.541048
vt 0.199997 0.546455
vt 0.168037 0.541290
vt 0.168066 0.546699
vt 0.136085 0.541546
vt 0.136116 0.546955
vt 0.104133 0.541813
vt 0.104168 0.547225
vt 0.072187 0.542083
vt 0.072224 0.547496
vt 0.294342 0.428482
vt 0.263277 0.428702
vt 0.231270 0.428922
vt 0.199229 0.429160
vt 0.167193 0.429402
vt 0.135162 0.429649
vt 0.103129 0.429899
vt 0.071094 0.430149
vt 0.039093 0.430378
vt 0.008015 0.430600
vt 0.676151 0.231322
vt 0.713563 0.261738
vt 0.704323 0.267136
vt 0.671366 0.241366
vt 0.630208 0.222125
vt 0.630751 0.233319
vt 0.715589 0.307894
vt 0.682212 0.335950
vt 0.584279 0.234881
vt 0.590401 0.243898
vt 0.560668 0.275204
vt 0.684737 0.374266
vt 0.648080 0.393546
vt 0.533194 0.385975
vt 0.558547 0.415064
vt 0.587344 0.436203
vt 0.104369 0.570409
vt 0.072416 0.570678
vt 0.040454 0.570954
vt 0.008428 0.571147
vt 0.516688 0.571264
vt 0.484767 0.571250
vt 0.453090 0.571012
vt 0.421518 0.570626
vt 0.390002 0.570228
vt 0.358504 0.569885
vt 0.326996 0.569592
vt 0.295472 0.569307
vt 0.263807 0.569274
vt 0.231983 0.569415
vt 0.200082 0.561458
vt 0.168188 0.561691
vt 0.136333 0.570150
vt 0.675851 0.368852
vt 0.704910 0.303935
vt 0.693160 0.273459
vt 0.665548 0.253447
vt 0.631379 0.246814
vt 0.597372 0.254535
vt 0.569806 0.277276
vn -0.289768 -0.288738 -0.912505
vn -0.215858 -0.034732 -0.975807
vn 0.149043 0.159132 -0.975942
vn -0.063883 -0.238875 -0.968947
vn -0.177672 0.314394 -0.932518
vn 0.328341 0.370339 -0.868931
vn -0.823911 0.168338 -0.541140
vn -0.519861 0.214716 -0.826826
vn -0.077140 0.145665 -0.986322
vn -0.242676 0.294516 -0.924321
vn -0.486899 0.486448 -0.725464
vn -0.133052 0.508620 -0.850649
vn 0.110463 0.295500 -0.948935
vn 0.104001 -0.194778 -0.975318
vn 0.211402 0.247818 -0.945460
vn -0.146184 0.495017 -0.856498
vn 0.096521 -0.011820 -0.995261
vn 0.026282 0.202134 -0.979005
vn -0.161811 -0.108106 -0.980882
vn -0.147293 0.108598 -0.983113
vn 0.052438 0.113831 -0.992115
vn 0.050118 -0.079090 -0.995607
vn 0.038079 0.540416 -0.840536
vn 0.059135 0.380911 -0.922719
vn 0.386989 0.267076 -0.882559
vn 0.368633 -0.185492 -0.910880
vn 0.312596 0.025735 -0.949537
vn 0.639782 0.002657 -0.768552
vn 0.181071 0.594831 -0.783192
vn 0.353921 0.362083 -0.862343
vn 0.116579 0.675249 -0.728319
vn -0.355893 0.372590 -0.857040
vn 0.465428 -0.857960 -0.217446
vn 0.303785 -0.301292 -0.903846
vn 0.852281 -0.472308 -0.224815
vn 0.484810 -0.488363 -0.725576
vn 0.681680 -0.281624 -0.675278
vn 0.331122 0.016093 -0.943451
vn 0.236865 0.013710 -0.971446
vn 0.203174 -0.239233 -0.949467
vn 0.070445 0.328690 -0.941807
vn 0.245869 0.133513 -0.960064
vn -0.432470 0.359347 -0.826946
vn 0.327148 0.292679 -0.898506
vn -0.530457 -0.103764 0.841337
vn -0.533298 0.001979 0.845925
vn -0.998799 0.001669 0.048964
vn -0.979963 -0.193237 0.048289
vn -0.492303 0.206468 0.845582
vn -0.922154 0.383790 0.048348
vn -0.376161 0.379694 0.845184
vn -0.705111 0.707497 0.047609
vn -0.202558 0.495313 0.844769
vn -0.380703 0.923509 0.046857
vn 0.002061 0.535655 0.844435
vn 0.001665 0.998931 0.046207
vn 0.206553 0.494588 0.844227
vn 0.383793 0.922285 0.045760
vn 0.495356 0.204886 0.844183
vn 0.532872 0.105994 0.839531
vn 0.980093 0.193383 0.044949
vn 0.923510 0.380843 0.045695
vn 0.379777 0.378449 0.844125
vn 0.707495 0.705247 0.045580
vn -0.999143 0.001551 -0.041364
vn -0.980293 -0.193394 -0.040311
vn -0.922481 0.383753 -0.041981
vn -0.705391 0.707529 -0.042725
vn -0.380915 0.923587 -0.043477
vn 0.001532 0.999025 -0.044128
vn 0.383744 0.922363 -0.044577
vn 0.980167 0.193306 -0.043662
vn 0.923576 0.380806 -0.044647
vn 0.707518 0.705277 -0.044758
vn 0.923660 0.380897 0.042077
vn 0.980247 0.193395 0.041399
vn 0.979059 0.184599 -0.085834
vn 0.923533 0.380780 -0.045744
vn 0.707605 0.705362 0.041956
vn 0.707477 0.705247 -0.045860
vn 0.383841 0.922438 0.042132
vn 0.383714 0.922322 -0.045679
vn 0.001659 0.999092 0.042581
vn 0.001531 0.998976 -0.045227
vn -0.380776 0.923656 0.043232
vn -0.380899 0.923541 -0.044576
vn -0.705226 0.707617 0.043982
vn -0.705352 0.707502 -0.043822
vn -0.922309 0.383858 0.044720
vn -0.922435 0.383742 -0.043084
vn -0.998971 0.001646 0.045335
vn -0.999097 0.001530 -0.042469
vn -0.980119 -0.193306 0.044726
vn -0.976095 -0.201075 -0.082506
vn -0.917530 -0.378433 -0.122178
vn -0.992458 0.001414 -0.122573
vn -0.986107 0.001806 0.166099
vn -0.911629 -0.375777 0.166508
vn -0.702934 -0.700694 -0.122111
vn -0.319869 -0.318745 -0.892236
vn -0.698315 -0.696127 0.166624
vn -0.381378 -0.916300 -0.122247
vn -0.174099 -0.416513 -0.892304
vn -0.378674 -0.910440 0.166447
vn -0.001784 -0.992448 -0.122657
vn -0.002016 -0.451023 -0.892510
vn -0.001345 -0.986124 0.166007
vn 0.378080 -0.917526 -0.123290
vn 0.170191 -0.417057 -0.892804
vn 0.376238 -0.911647 0.165363
vn 0.700359 -0.702931 -0.124036
vn 0.316305 -0.319777 -0.893137
vn 0.696584 -0.698338 0.164602
vn 0.915963 -0.381362 -0.124799
vn 0.414027 -0.173985 -0.893483
vn 0.910896 -0.378705 0.163864
vn 0.992089 -0.001769 -0.125525
vn 0.986583 -0.001350 0.163255
vn 0.917152 0.378084 -0.126033
vn 0.912099 0.376231 0.162864
vn 0.702566 0.700343 -0.126177
vn 0.709493 0.682270 0.176432
vn 0.380987 0.915967 -0.125908
vn 0.395057 0.893864 0.211983
vn 0.001389 0.992106 -0.125398
vn -0.019319 0.976982 0.212443
vn -0.378459 0.917179 -0.124706
vn -0.391089 0.903034 0.177706
vn -0.700715 0.702600 -0.123901
vn -0.696100 0.698786 0.164750
vn -0.916323 0.381021 -0.123188
vn -0.910426 0.379131 0.165481
vn 0.981096 0.193514 -0.001541
vn 0.924497 0.381185 -0.001721
vn 0.708218 0.705991 -0.001881
vn 0.384155 0.923267 -0.001737
vn 0.001584 0.999998 -0.001320
vn -0.381203 0.924491 -0.000652
vn -0.705964 0.708247 0.000176
vn -0.923265 0.384162 0.000911
vn -0.999998 0.001599 0.001509
vn -0.981096 -0.193514 0.001728
vn -0.708186 -0.705932 0.011507
vn -0.924435 -0.381171 0.011380
vn -0.924489 -0.381205 0.001825
vn -0.708236 -0.705973 0.001945
vn -0.384128 -0.923210 0.011330
vn -0.384166 -0.923262 0.001770
vn -0.685662 0.727920 0.000017
vn -0.632961 0.774184 -0.000144
vn -0.005255 -0.999925 0.011053
vn -0.012855 -0.999916 0.001338
vn 0.715178 -0.698942 -0.000103
vn -0.695560 0.718465 0.002091
vn -0.004442 0.999988 0.002209
vn 0.999932 -0.007045 0.009295
vn 0.927225 0.374380 0.009620
vn 0.707990 0.706166 0.008950
vn -0.693124 0.720013 -0.034068
vn -0.713164 0.700997 0.000105
vn -0.924491 -0.381199 0.001835
vn -0.708235 -0.705974 0.001942
vn -0.384166 -0.923262 0.001766
vn -0.014576 -0.999893 0.001342
vn 0.723743 -0.690070 -0.000117
s 1
f 104/1/1 105/2/2 106/3/3 107/4/4
f 105/2/2 108/5/5 109/6/6 106/3/3
f 86/7/7 88/8/8 89/9/9 87/10/10
f 88/8/8 90/11/11 91/12/12 89/9/9
f 107/4/4 106/3/3 110/13/13 111/14/14
f 118/15/15 119/16/16 120/17/17 121/18/18
f 114/19/19 115/20/20 116/21/21 117/22/22
f 89/9/9 91/12/12 94/23/23 93/24/24
f 111/14/14 110/13/13 112/25/25 113/26/26
f 121/18/18 120/17/17 122/27/27 123/28/28
f 120/17/17 124/29/29 125/30/30 122/27/27
f 93/24/24 94/23/23 98/31/31 97/32/32
f 96/33/33 95/34/34 99/35/35 100/36/36
f 126/37/37 127/38/38 128/39/39 129/40/40
f 127/38/38 130/41/41 131/42/42 128/39/39
f 130/41/41 132/43/43 133/44/44 131/42/42
f 1/45/45 2/46/46 12/47/47 11/48/48
f 2/46/46 3/49/49 13/50/50 12/47/47
f 3/49/49 4/51/51 14/52/52 13/50/50
f 4/51/51 5/53/53 15/54/54 14/52/52
f 5/53/53 6/55/55 16/56/56 15/54/54
f 6/55/55 7/57/57 17/58/58 16/56/56
f 9/59/59 8/60/60 18/61/61 19/62/62
f 7/57/57 10/63/63 20/64/64 17/58/58
f 10/63/63 9/59/59 19/62/62 20/64/64
f 11/48/48 12/47/47 80/65/65 55/66/66
f 12/47/47 13/50/50 77/67/67 80/65/65
f 13/50/50 14/52/52 74/68/68 77/67/67
f 14/52/52 15/54/54 71/69/69 74/68/68
f 15/54/54 16/56/56 68/70/70 71/69/69
f 16/56/56 17/58/58 65/71/71 68/70/70
f 19/62/62 18/61/61 56/72/72 59/73/73
f 17/58/58 20/64/64 62/74/74 65/71/71
f 20/64/64 19/62/62 59/73/73 62/74/74
f 61/75/75 58/76/76 36/77/77 38/78/78
f 64/79/79 61/75/75 38/78/78 40/80/80
f 67/81/81 64/79/79 40/80/80 42/82/82
f 70/83/83 67/81/81 42/82/82 44/84/84
f 73/85/85 70/83/83 44/84/84 46/86/86
f 76/87/87 73/85/85 46/86/86 48/88/88
f 79/89/89 76/87/87 48/88/88 50/90/90
f 82/91/91 79/89/89 50/90/90 52/92/92
f 53/93/93 82/91/91 52/92/92 22/94/94
f 21/95/95 51/96/96 136/97/97 137/98/98
f 21/95/95 22/94/94 52/92/92 51/96/96
f 22/99/94 21/100/95 23/101/99 24/102/100
f 23/101/99 21/100/95 137/103/98 138/104/101
f 24/102/100 23/101/99 25/105/102 26/106/103
f 25/105/102 23/101/99 138/104/101 139/107/104
f 26/106/103 25/105/102 27/108/105 28/109/106
f 27/108/105 25/105/102 139/107/104 140/110/107
f 28/109/106 27/108/105 29/111/108 30/112/109
f 29/111/108 27/108/105 140/110/107 141/113/110
f 30/112/109 29/111/108 31/114/111 32/115/112
f 31/114/111 29/111/108 141/113/110 142/116/113
f 32/115/112 31/114/111 33/117/114 34/118/115
f 33/117/114 31/114/111 142/116/113 143/119/116
f 34/118/115 33/117/114 35/120/117 36/77/77
f 35/120/117 33/117/114 143/119/116 144/121/118
f 36/77/77 35/120/117 37/122/119 38/78/78
f 37/122/119 35/120/117 144/121/118 145/123/120
f 38/78/78 37/122/119 39/124/121 40/80/80
f 39/124/121 37/122/119 145/123/120 146/125/122
f 40/80/80 39/124/121 41/126/123 42/82/82
f 41/126/123 39/124/121 146/125/122 147/127/124
f 42/82/82 41/126/123 43/128/125 44/84/84
f 43/128/125 41/126/123 147/127/124 148/129/126
f 44/84/84 43/128/125 45/130/127 46/86/86
f 45/130/127 43/128/125 148/129/126 149/131/128
f 46/86/86 45/130/127 47/132/129 48/88/88
f 47/132/129 45/130/127 149/131/128 134/133/130
f 48/88/88 47/132/129 49/134/131 50/90/90
f 49/134/131 47/132/129 134/133/130 135/135/132
f 50/90/90 49/134/131 51/96/96 52/92/92
f 51/96/96 49/134/131 135/135/132 136/97/97
f 56/72/72 57/136/133 60/137/134 59/73/73
f 57/136/133 58/76/76 61/75/75 60/137/134
f 59/73/73 60/137/134 63/138/135 62/74/74
f 60/137/134 61/75/75 64/79/79 63/138/135
f 62/74/74 63/138/135 66/139/136 65/71/71
f 63/138/135 64/79/79 67/81/81 66/139/136
f 65/71/71 66/139/136 69/140/137 68/70/70
f 66/139/136 67/81/81 70/83/83 69/140/137
f 68/70/70 69/140/137 72/141/138 71/69/69
f 69/140/137 70/83/83 73/85/85 72/141/138
f 71/69/69 72/141/138 75/142/139 74/68/68
f 72/141/138 73/85/85 76/87/87 75/142/139
f 74/68/68 75/142/139 78/143/140 77/67/67
f 75/142/139 76/87/87 79/89/89 78/143/140
f 77/67/67 78/143/140 81/144/141 80/65/65
f 78/143/140 79/89/89 82/91/91 81/144/141
f 53/93/93 54/145/142 81/144/141 82/91/91
f 54/145/142 55/66/66 80/65/65 81/144/141
f 83/146/143 84/147/144 161/148/145 162/149/146
f 85/150/147 83/146/143 162/149/146 163/151/148
f 84/147/144 86/7/7 160/152/149 161/148/145
f 86/7/7 87/10/10 159/153/150 160/152/149
f 92/154/151 85/150/147 163/151/148 164/155/152
f 95/34/34 96/33/33 165/156/153 126/37/37
f 96/33/33 92/154/151 164/155/152 165/156/153
f 87/10/10 89/9/9 158/157/154 159/153/150
f 89/9/9 93/24/24 157/158/155 158/157/154
f 93/24/24 97/32/32 130/41/41 157/158/155
f 101/159/156 99/35/35 129/40/40 128/39/39
f 99/35/35 95/34/34 126/37/37 129/40/40
f 102/160/157 101/159/156 128/39/39 131/42/42
f 97/32/32 98/31/31 132/43/43 130/41/41
f 98/31/31 103/161/158 133/44/44 132/43/43
f 103/161/158 102/160/157 131/42/42 133/44/44
f 135/135/132 134/133/130 90/162/11 88/163/8
f 136/97/97 135/135/132 88/163/8 86/164/7
f 137/98/98 136/97/97 86/164/7 84/165/144
f 138/104/101 137/103/98 84/166/144 83/167/143
f 139/107/104 138/104/101 83/167/143 85/168/147
f 140/110/107 139/107/104 85/168/147 92/169/151
f 141/113/110 140/110/107 92/169/151 96/170/33
f 142/116/113 141/113/110 96/170/33 100/171/36
f 143/119/116 142/116/113 100/171/36 99/172/35
f 144/121/118 143/119/116 99/172/35 101/173/156
f 145/123/120 144/121/118 101/173/156 102/174/157
f 146/125/122 145/123/120 102/174/157 103/175/158
f 147/127/124 146/125/122 103/175/158 98/176/31
f 148/129/126 147/127/124 98/176/31 94/177/23
f 149/131/128 148/129/126 94/177/23 91/178/12
f 134/133/130 149/131/128 91/178/12 90/162/11
f 150/179/159 124/29/29 116/21/21 115/20/20
f 119/16/16 150/179/159 115/20/20 114/19/19
f 120/17/17 119/16/16 114/19/19 117/22/22
f 124/29/29 120/17/17 117/22/22 116/21/21
f 119/16/16 118/15/15 106/3/3 109/6/6
f 151/180/160 119/16/16 109/6/6 108/5/5
f 152/181/161 151/180/160 108/5/5 105/2/2
f 153/182/162 152/181/161 105/2/2 104/1/1
f 154/183/163 153/182/162 104/1/1 107/4/4
f 155/184/164 154/183/163 107/4/4 111/14/14
f 156/185/165 155/184/164 111/14/14 113/26/26
f 123/28/28 156/185/165 113/26/26 112/25/25
f 121/18/18 123/28/28 112/25/25 110/13/13
f 118/15/15 121/18/18 110/13/13 106/3/3
f 127/38/38 126/37/37 123/28/28 122/27/27
f 130/41/41 127/38/38 122/27/27 125/30/30
f 157/158/155 130/41/41 125/30/30 124/29/29
f 158/157/154 157/158/155 124/29/29 150/179/159
f 159/153/150 158/157/154 150/179/159 119/16/16
f 160/152/149 159/153/150 119/16/16 151/180/160
f 161/148/145 160/152/149 151/180/160 152/181/161
f 162/149/146 161/148/145 152/181/161 153/182/162
f 163/151/148 162/149/146 153/182/162 154/183/163
f 164/155/152 163/151/148 154/183/163 155/184/164
f 165/156/153 164/155/152 155/184/164 156/185/165
f 126/37/37 165/156/153 156/185/165 123/28/28
