# This file uses centimeters as units for non-parametric coordinates.

v -0.157381 0.513991 -0.380141
v -0.147610 0.490236 -0.367142
v -0.157636 0.513939 -0.354243
v -0.288435 0.425952 -0.381600
v -0.270340 0.407791 -0.368507
v -0.288690 0.425901 -0.355703
v -0.375823 0.294459 -0.382716
v -0.352173 0.284653 -0.369554
v -0.376077 0.294408 -0.356819
v -0.406240 0.139531 -0.383322
v -0.380660 0.139570 -0.370119
v -0.406494 0.139481 -0.357422
v -0.375057 -0.015244 -0.383319
v -0.351456 -0.005373 -0.370119
v -0.375313 -0.015295 -0.357421
v 0.372601 -0.013410 -0.375981
v 0.348695 -0.003655 -0.363245
v 0.372347 -0.013461 -0.350082
v 0.403017 0.141518 -0.375377
v 0.377183 0.141430 -0.362678
v 0.402761 0.141467 -0.349479
v 0.371834 0.296295 -0.375377
v 0.347979 0.286371 -0.362680
v 0.371580 0.296243 -0.349480
v 0.283798 0.427356 -0.375983
v 0.265537 0.409106 -0.363247
v 0.283544 0.427305 -0.350086
v 0.152311 0.514750 -0.377101
v 0.142401 0.490948 -0.364295
v 0.152055 0.514700 -0.351203
v -0.002612 0.545173 -0.378560
v -0.002675 0.519436 -0.365662
v -0.002865 0.545122 -0.352662
v -0.162465 0.512970 0.137893
v -0.152694 0.489215 0.150892
v -0.144662 0.490305 0.158138
v -0.293517 0.424931 0.136435
v -0.275423 0.406770 0.149526
v -0.274601 0.400623 0.158938
v -0.380906 0.293438 0.135318
v -0.357256 0.283632 0.148479
v -0.360372 0.268135 0.163190
v -0.411322 0.138511 0.134714
v -0.385742 0.138548 0.147916
v -0.388924 0.113011 0.170246
v -0.380141 -0.016266 0.134714
v -0.356541 -0.006394 0.147916
v -0.355899 -0.041131 0.179042
v 0.367518 -0.014431 0.142052
v 0.343613 -0.004675 0.154790
v 0.391408 -0.029237 0.200082
v 0.397935 0.140496 0.142658
v 0.372098 0.140408 0.155354
v 0.419955 0.125887 0.193023
v 0.366750 0.295273 0.142657
v 0.342896 0.285350 0.155353
v 0.386930 0.280030 0.184228
v 0.278717 0.426335 0.142051
v 0.260453 0.408085 0.154785
v 0.297363 0.409726 0.175039
v 0.147228 0.513729 0.140935
v 0.137318 0.489927 0.153741
v 0.164886 0.495231 0.166855
v -0.007694 0.544151 0.139472
v -0.007759 0.518415 0.152372
v 0.009672 0.523526 0.160923
v -0.158890 0.515285 0.649460
v -0.149084 0.492378 0.663882
v -0.288830 0.425603 0.650256
v -0.270774 0.408395 0.664627
v -0.374604 0.293116 0.654508
v -0.351094 0.284326 0.668610
v -0.403149 0.137992 0.661570
v -0.377829 0.139059 0.675222
v -0.370127 -0.016152 0.670362
v -0.346906 -0.005291 0.683454
v 0.377178 -0.004257 0.691400
v 0.352920 0.005848 0.703157
v 0.405725 0.150867 0.684341
v 0.379652 0.151115 0.696542
v 0.372699 0.305010 0.675545
v 0.348728 0.295465 0.688310
v 0.283136 0.434706 0.666358
v 0.264854 0.416922 0.679708
v 0.150656 0.520212 0.658173
v 0.140788 0.496993 0.672040
v -0.004563 0.548507 0.652238
v -0.004563 0.523490 0.666486
v -0.288503 0.427874 -0.539613
v -0.156711 0.516409 -0.538147
v -0.189238 0.329558 -0.578884
v -0.375991 0.295718 -0.580784
v -0.001067 0.547767 -0.536558
v -0.000158 0.339267 -0.577009
v 0.155119 0.517253 -0.575137
v 0.175599 0.370296 -0.579940
v 0.287351 0.429366 -0.574011
v 0.370813 0.296053 -0.598807
v -0.198013 0.140428 -0.579344
v -0.406580 0.139916 -0.581390
v 0.000335 0.140915 -0.577397
v 0.407243 0.141914 -0.573401
v -0.188298 -0.048656 -0.579621
v -0.375223 -0.015733 -0.581390
v 0.376654 -0.013887 -0.574008
v 0.028480 0.337414 -0.623998
v 0.189579 0.330611 -0.638521
v 0.199296 0.141527 -0.638798
v 0.000778 0.141004 -0.622478
v 0.376506 0.297688 -0.636752
v 0.407865 0.142039 -0.636751
v -0.167326 0.143929 -0.613128
v 0.001443 -0.057311 -0.641133
v -0.187676 -0.048531 -0.642970
v 0.190515 -0.047602 -0.639257
v 0.377276 -0.013763 -0.637360
v 0.206200 0.310231 -0.687299
v 0.366431 0.285902 -0.674626
v 0.397791 0.130252 -0.674624
v 0.199941 0.141657 -0.704700
v 0.377922 -0.013633 -0.703260
v 0.188686 -0.042473 -0.689030
vt 0.775394 0.353237
vt 0.803417 0.337934
vt 0.794176 0.376547
vt 0.755794 0.379507
vt 0.835040 0.332801
vt 0.834101 0.377051
vt 0.867331 0.340269
vt 0.872368 0.370070
vt 0.895023 0.355675
vt 0.918673 0.380971
vt 0.788545 0.416723
vt 0.745328 0.409347
vt 0.826558 0.415706
vt 0.843560 0.382999
vt 0.875620 0.384812
vt 0.872021 0.425050
vt 0.832040 0.422098
vt 0.882516 0.393396
vt 0.912092 0.394393
vt 0.924800 0.422217
vt 0.884952 0.426010
vt 0.779607 0.456383
vt 0.745096 0.441032
vt 0.796572 0.422174
vt 0.831683 0.463363
vt 0.792070 0.460881
vt 0.871470 0.463364
vt 0.924169 0.452926
vt 0.882588 0.462646
vt 0.198956 0.324050
vt 0.230984 0.324040
vt 0.231093 0.424472
vt 0.199037 0.424484
vt 0.166924 0.324039
vt 0.166993 0.424463
vt 0.134880 0.324026
vt 0.134966 0.424388
vt 0.102743 0.323973
vt 0.102858 0.424332
vt 0.391129 0.323660
vt 0.423243 0.323510
vt 0.423455 0.423881
vt 0.391333 0.424013
vt 0.359096 0.323765
vt 0.359306 0.424153
vt 0.327068 0.323867
vt 0.327267 0.424289
vt 0.295040 0.323949
vt 0.295216 0.424380
vt 0.263012 0.324007
vt 0.263154 0.424442
vt 0.198886 0.212147
vt 0.230858 0.212128
vt 0.230939 0.312521
vt 0.198914 0.312531
vt 0.166910 0.212150
vt 0.166886 0.312517
vt 0.134920 0.212120
vt 0.134845 0.312475
vt 0.390730 0.211773
vt 0.422853 0.211342
vt 0.423217 0.312010
vt 0.391097 0.312107
vt 0.358743 0.211887
vt 0.359046 0.312244
vt 0.326768 0.211970
vt 0.327012 0.312349
vt 0.294797 0.212040
vt 0.294986 0.312430
vt 0.262827 0.212093
vt 0.262962 0.312488
vt 0.167006 0.436003
vt 0.199065 0.436013
vt 0.199049 0.468273
vt 0.166867 0.476441
vt 0.134976 0.435955
vt 0.134613 0.476353
vt 0.102848 0.435728
vt 0.102278 0.476062
vt 0.231132 0.435996
vt 0.231113 0.430234
vt 0.263179 0.430205
vt 0.263204 0.435969
vt 0.199052 0.430248
vt 0.167004 0.430230
vt 0.135028 0.430146
vt 0.103980 0.429991
vt 0.422340 0.429641
vt 0.391305 0.429819
vt 0.423474 0.435291
vt 0.391390 0.435581
vt 0.359341 0.429915
vt 0.359385 0.435674
vt 0.327307 0.430056
vt 0.327350 0.435824
vt 0.295249 0.430144
vt 0.295285 0.435908
vt 0.230962 0.318280
vt 0.262987 0.318247
vt 0.198935 0.318290
vt 0.166907 0.318276
vt 0.134916 0.318226
vt 0.103846 0.318178
vt 0.102703 0.312470
vt 0.422109 0.317811
vt 0.391058 0.317908
vt 0.359069 0.318006
vt 0.327040 0.318108
vt 0.295012 0.318189
vt 0.230837 0.206368
vt 0.262802 0.206333
vt 0.198869 0.206387
vt 0.166904 0.206390
vt 0.135007 0.206355
vt 0.102843 0.211765
vt 0.104031 0.205901
vt 0.421645 0.205571
vt 0.390617 0.206056
vt 0.358703 0.206131
vt 0.326735 0.206210
vt 0.294767 0.206280
vt 0.231149 0.468240
vt 0.263238 0.468191
vt 0.295378 0.476345
vt 0.327578 0.476255
vt 0.359559 0.481235
vt 0.391762 0.475981
vt 0.424104 0.475648
vt 0.915633 0.387413
vt 0.943148 0.411844
vt 0.931601 0.416870
vt 0.951276 0.445793
vt 0.938279 0.449279
vt 0.565197 0.964676
vt 0.548814 0.939395
vt 0.543352 0.909768
vt 0.549644 0.880308
vt 0.566731 0.855497
vt 0.592012 0.839114
vt 0.691463 0.941399
vt 0.674376 0.966210
vt 0.649095 0.982593
vt 0.619469 0.988055
vt 0.590008 0.981763
vn -0.588226 0.650705 -0.480181
vn -0.257265 0.712440 -0.652874
vn -0.019806 0.111624 -0.993553
vn -0.664132 0.292936 -0.687835
vn -0.025799 0.772606 -0.634362
vn -0.122622 0.159086 -0.979620
vn 0.239477 0.750845 -0.615534
vn -0.046268 0.337655 -0.940132
vn 0.634604 0.652990 -0.413378
vn 0.870095 0.473977 -0.135203
vn -0.077496 0.041877 -0.996113
vn -0.718161 -0.000413 -0.695877
vn -0.207691 0.188406 -0.959879
vn -0.270561 0.265045 -0.925499
vn -0.142287 0.447912 -0.882683
vn -0.333099 0.031831 -0.942354
vn -0.127329 0.127175 -0.983674
vn -0.235126 0.305026 -0.922862
vn 0.288598 0.281036 -0.915276
vn 0.327305 0.032870 -0.944347
vn -0.233574 0.054943 -0.970785
vn -0.271900 0.016628 -0.962182
vn -0.583351 -0.117530 -0.803671
vn -0.222826 0.365950 -0.903565
vn -0.028031 0.085877 -0.995911
vn -0.238058 0.123314 -0.963391
vn -0.280588 0.061385 -0.957863
vn 0.213939 0.006127 -0.976828
vn -0.374900 0.055624 -0.925395
vn -0.708570 0.704599 0.038343
vn -0.385008 0.921959 0.041946
vn -0.384146 0.922133 -0.045858
vn -0.707708 0.704772 -0.049460
vn -0.924320 0.379956 0.035585
vn -0.923458 0.380130 -0.052215
vn -0.999416 -0.002533 0.034093
vn -0.998554 -0.002360 -0.053707
vn -0.979770 -0.197377 0.033057
vn -0.978925 -0.197208 -0.053059
vn 0.998554 0.002367 0.053708
vn 0.979887 -0.192578 0.052298
vn 0.980732 -0.192408 -0.033822
vn 0.999415 0.002539 -0.034094
vn 0.921569 0.384482 0.053706
vn 0.922431 0.384654 -0.034096
vn 0.704214 0.708066 0.052211
vn 0.705075 0.708239 -0.035594
vn 0.379582 0.923836 0.049453
vn 0.380442 0.924009 -0.038353
vn -0.002900 0.998944 0.045847
vn -0.002039 0.999117 -0.041956
vn -0.717542 0.696408 -0.012210
vn -0.396724 0.917828 -0.014174
vn -0.394495 0.917229 -0.055368
vn -0.718355 0.694230 -0.044848
vn -0.929303 0.369314 -0.001714
vn -0.930547 0.363919 -0.040556
vn -0.999783 -0.013656 0.015719
vn -0.999060 -0.021868 -0.037438
vn 0.997244 0.018127 0.071940
vn 0.980937 -0.176849 0.080538
vn 0.982491 -0.181264 -0.043064
vn 0.998498 0.009775 -0.053904
vn 0.915715 0.398677 0.050230
vn 0.918874 0.389765 -0.061266
vn 0.694579 0.718889 0.027544
vn 0.699584 0.711454 -0.066453
vn 0.367505 0.929993 0.007338
vn 0.373034 0.925313 -0.068138
vn -0.015710 0.999850 -0.007312
vn -0.011202 0.997815 -0.065121
vn -0.923149 0.367520 0.112810
vn -0.711981 0.690280 0.128830
vn -0.994396 -0.002659 0.105686
vn -0.975058 -0.196440 0.103310
vn -0.382428 0.913272 0.140297
vn -0.384932 0.922943 -0.001967
vn -0.002467 0.999995 0.001945
vn 0.008033 0.990609 0.136489
vn -0.708809 0.705378 -0.005580
vn -0.924779 0.380413 -0.008316
vn -0.999949 -0.002458 -0.009817
vn -0.980254 -0.197489 -0.010012
vn 0.981213 -0.192702 0.009288
vn 0.999949 0.002444 0.009842
vn 0.973794 -0.191664 0.122432
vn 0.993152 0.016327 0.115681
vn 0.922896 0.384924 0.009849
vn 0.917702 0.382669 0.106713
vn 0.705317 0.708843 0.008318
vn 0.709736 0.695072 0.114675
vn 0.380349 0.924826 0.005552
vn 0.386199 0.913668 0.126736
vn -0.249307 0.517485 0.818569
vn -0.035857 0.658280 0.751919
vn -0.416933 0.407973 0.812235
vn -0.595789 0.262525 0.759023
vn -0.789320 0.027046 0.613386
vn -0.934882 -0.198659 0.294160
vn -0.977330 -0.210412 -0.023507
vn 0.881562 -0.188779 -0.432680
vn 0.919809 -0.013548 -0.392133
vn 0.893638 0.362433 -0.264675
vn 0.700576 0.712362 0.041631
vn 0.308513 0.816757 0.487574
vn -0.031864 0.057594 0.997832
vn -0.029017 0.058206 0.997883
vn -0.034261 0.055939 0.997846
vn -0.035844 0.053495 0.997925
vn -0.036370 0.050633 0.998055
vn -0.977793 -0.208029 0.025392
vn -0.034715 0.049503 0.998171
vn -0.023071 0.049688 0.998498
vn -0.021449 0.050871 0.998475
vn -0.022058 0.053714 0.998313
vn -0.023709 0.056108 0.998143
vn -0.026154 0.057685 0.997992
vn 0.999690 0.017507 0.017713
vn 0.981099 -0.192688 0.017802
vn 0.652367 0.713627 -0.255255
vn 0.997716 0.006962 -0.067195
vn 0.983675 -0.178049 -0.026112
s 1
f 89/1/1 90/2/2 91/3/3 92/4/4
f 90/2/2 93/5/5 94/6/6 91/3/3
f 93/5/5 95/7/7 96/8/8 94/6/6
f 95/7/7 97/9/9 98/10/10 96/8/8
f 92/4/4 91/3/3 99/11/11 100/12/12
f 91/3/3 94/6/6 101/13/13 99/11/11
f 106/14/14 107/15/15 108/16/16 109/17/17
f 117/18/18 118/19/19 119/20/20 120/21/21
f 100/12/12 99/11/11 103/22/22 104/23/23
f 112/24/24 109/17/17 113/25/25 114/26/26
f 109/17/17 108/16/16 115/27/27 113/25/25
f 120/21/21 119/20/20 121/28/28 122/29/29
f 37/30/30 34/31/31 3/32/32 6/33/33
f 40/34/34 37/30/30 6/33/33 9/35/35
f 43/36/36 40/34/34 9/35/35 12/37/37
f 46/38/38 43/36/36 12/37/37 15/39/39
f 52/40/40 49/41/41 18/42/42 21/43/43
f 55/44/44 52/40/40 21/43/43 24/45/45
f 58/46/46 55/44/44 24/45/45 27/47/47
f 61/48/48 58/46/46 27/47/47 30/49/49
f 64/50/50 61/48/48 30/49/49 33/51/51
f 34/31/31 64/50/50 33/51/51 3/32/32
f 69/52/52 67/53/53 36/54/54 39/55/55
f 71/56/56 69/52/52 39/55/55 42/57/57
f 73/58/58 71/56/56 42/57/57 45/59/59
f 79/60/60 77/61/61 51/62/62 54/63/63
f 81/64/64 79/60/60 54/63/63 57/65/65
f 83/66/66 81/64/64 57/65/65 60/67/67
f 85/68/68 83/66/66 60/67/67 63/69/69
f 87/70/70 85/68/68 63/69/69 66/71/71
f 67/53/53 87/70/70 66/71/71 36/54/54
f 7/72/72 4/73/73 89/74/1 92/75/4
f 10/76/74 7/72/72 92/75/4 100/77/12
f 13/78/75 10/76/74 100/77/12 104/79/23
f 1/80/76 2/81/77 32/82/78 31/83/79
f 2/81/77 3/32/32 33/51/51 32/82/78
f 3/32/32 2/81/77 5/84/80 6/33/33
f 2/81/77 1/80/76 4/73/73 5/84/80
f 6/33/33 5/84/80 8/85/81 9/35/35
f 5/84/80 4/73/73 7/72/72 8/85/81
f 9/35/35 8/85/81 11/86/82 12/37/37
f 8/85/81 7/72/72 10/76/74 11/86/82
f 12/37/37 11/86/82 14/87/83 15/39/39
f 11/86/82 10/76/74 13/78/75 14/87/83
f 18/42/42 17/88/84 20/89/85 21/43/43
f 17/88/84 16/90/86 19/91/87 20/89/85
f 21/43/43 20/89/85 23/92/88 24/45/45
f 20/89/85 19/91/87 22/93/89 23/92/88
f 24/45/45 23/92/88 26/94/90 27/47/47
f 23/92/88 22/93/89 25/95/91 26/94/90
f 27/47/47 26/94/90 29/96/92 30/49/49
f 26/94/90 25/95/91 28/97/93 29/96/92
f 30/49/49 29/96/92 32/82/78 33/51/51
f 29/96/92 28/97/93 31/83/79 32/82/78
f 34/31/31 35/98/94 65/99/95 64/50/50
f 35/98/94 36/54/54 66/71/71 65/99/95
f 36/54/54 35/98/94 38/100/96 39/55/55
f 35/98/94 34/31/31 37/30/30 38/100/96
f 39/55/55 38/100/96 41/101/97 42/57/57
f 38/100/96 37/30/30 40/34/34 41/101/97
f 42/57/57 41/101/97 44/102/98 45/59/59
f 41/101/97 40/34/34 43/36/36 44/102/98
f 45/59/59 44/102/98 47/103/99 48/104/100
f 44/102/98 43/36/36 46/38/38 47/103/99
f 51/62/62 50/105/101 53/106/102 54/63/63
f 50/105/101 49/41/41 52/40/40 53/106/102
f 54/63/63 53/106/102 56/107/103 57/65/65
f 53/106/102 52/40/40 55/44/44 56/107/103
f 57/65/65 56/107/103 59/108/104 60/67/67
f 56/107/103 55/44/44 58/46/46 59/108/104
f 60/67/67 59/108/104 62/109/105 63/69/69
f 59/108/104 58/46/46 61/48/48 62/109/105
f 63/69/69 62/109/105 65/99/95 66/71/71
f 62/109/105 61/48/48 64/50/50 65/99/95
f 67/53/53 68/110/106 88/111/107 87/70/70
f 68/110/106 67/53/53 69/52/52 70/112/108
f 70/112/108 69/52/52 71/56/56 72/113/109
f 72/113/109 71/56/56 73/58/58 74/114/110
f 74/114/110 73/58/58 75/115/111 76/116/112
f 78/117/113 77/61/61 79/60/60 80/118/114
f 80/118/114 79/60/60 81/64/64 82/119/115
f 82/119/115 81/64/64 83/66/66 84/120/116
f 84/120/116 83/66/66 85/68/68 86/121/117
f 86/121/117 85/68/68 87/70/70 88/111/107
f 1/80/76 90/122/2 89/74/1 4/73/73
f 31/83/79 93/123/5 90/122/2 1/80/76
f 28/97/93 95/124/7 93/123/5 31/83/79
f 25/95/91 97/125/9 95/124/7 28/97/93
f 22/93/89 98/126/10 97/125/9 25/95/91
f 19/91/87 102/127/118 98/126/10 22/93/89
f 16/90/86 105/128/119 102/127/118 19/91/87
f 94/6/6 96/8/8 107/15/15 106/14/14
f 101/13/13 94/6/6 106/14/14 109/17/17
f 96/8/8 98/10/10 110/129/120 107/15/15
f 98/10/10 102/130/118 111/131/121 110/129/120
f 99/11/11 101/13/13 109/17/17 112/24/24
f 103/22/22 99/11/11 112/24/24 114/26/26
f 102/130/118 105/132/119 116/133/122 111/131/121
f 107/15/15 110/129/120 118/19/19 117/18/18
f 110/129/120 111/131/121 119/20/20 118/19/19
f 108/16/16 107/15/15 117/18/18 120/21/21
f 111/131/121 116/133/122 121/28/28 119/20/20
f 115/27/27 108/16/16 120/21/21 122/29/29
f 88/134/107 68/135/106 70/136/108 72/137/109 74/138/110 76/139/112 78/140/113 80/141/114 82/142/115 84/143/116 86/144/117
f 45/59/59 48/104/100 75/115/111 73/58/58
