# This file uses centimeters as units for non-parametric coordinates.

v -0.379577 -0.003707 0.682494
v -0.380264 0.142972 0.682191
v -0.324768 0.278747 0.682097
v -0.221536 0.382952 0.682229
v -0.086288 0.439718 0.682568
v 0.079907 0.437115 0.674502
v 0.196165 0.384909 0.683629
v 0.357821 -0.000248 0.684967
v 0.357132 0.146432 0.684663
v 0.300368 0.281678 0.684193
v -0.407659 -0.009479 0.664250
v -0.408399 0.148406 0.663920
v -0.348663 0.294555 0.663819
v -0.237545 0.406721 0.663961
v -0.091963 0.467823 0.664326
v 0.065922 0.468564 0.664855
v 0.212071 0.408829 0.665469
v 0.386076 -0.005756 0.666910
v 0.385338 0.152129 0.666580
v 0.324236 0.297712 0.666075
v -0.359466 -0.009772 -0.380347
v -0.404878 -0.011476 -0.358624
v -0.302246 -0.146107 -0.379872
v -0.323599 -0.160463 -0.366966
v -0.197208 -0.250161 -0.379306
v -0.211435 -0.271578 -0.366358
v -0.060346 -0.306101 -0.378730
v -0.065286 -0.331314 -0.365746
v 0.087508 -0.305410 -0.378235
v 0.092598 -0.330576 -0.365216
v 0.223839 -0.248188 -0.377894
v 0.238180 -0.269471 -0.364852
v 0.327898 -0.143148 -0.377761
v 0.349299 -0.157305 -0.364710
v 0.383837 -0.006285 -0.377854
v 0.409035 -0.011157 -0.364811
v 0.383147 0.141566 -0.378163
v 0.408295 0.146729 -0.365138
v 0.325926 0.277901 -0.378636
v 0.347191 0.292312 -0.365643
v 0.220888 0.381958 -0.379204
v 0.235028 0.403429 -0.366249
v 0.084025 0.437898 -0.379778
v 0.088879 0.463164 -0.366864
v -0.063827 0.437204 -0.380274
v -0.069006 0.462423 -0.367393
v -0.200163 0.379983 -0.380614
v -0.234766 0.404724 -0.358911
v -0.304220 0.274945 -0.380747
v -0.345882 0.292557 -0.359053
v -0.360159 0.138081 -0.380655
v -0.405620 0.146408 -0.358952
v -0.386356 -0.013865 0.124684
v -0.361208 -0.008705 0.137708
v -0.405962 -0.010520 0.159142
v 0.387774 -0.006797 0.161803
v 0.382096 -0.005218 0.140201
v 0.407381 -0.010142 0.127344
v 0.387036 0.151089 0.161475
v 0.381403 0.142634 0.139893
v 0.406639 0.147744 0.127018
v 0.325932 0.296671 0.160968
v 0.324183 0.278970 0.139422
v 0.345537 0.293327 0.126512
v 0.213768 0.407788 0.160362
v 0.219145 0.383026 0.138853
v 0.233374 0.404443 0.125904
v 0.067620 0.467523 0.159748
v 0.082281 0.438966 0.138278
v 0.087225 0.464178 0.125290
v -0.090265 0.466782 0.159219
v -0.065571 0.438272 0.137782
v -0.070657 0.463437 0.124760
v -0.235847 0.405680 0.158855
v -0.201900 0.381050 0.137439
v -0.216243 0.402336 0.124399
v -0.346964 0.293514 0.158713
v -0.305959 0.276012 0.137308
v -0.327360 0.290169 0.124256
v -0.406702 0.147365 0.158813
v -0.361900 0.139149 0.137402
v -0.387096 0.144020 0.124356
v -0.321785 -0.159851 -0.508366
v -0.382644 -0.014850 -0.508870
v -0.210069 -0.270526 -0.507762
v -0.383382 0.142407 -0.509195
v -0.180584 0.103056 -0.508431
v -0.323885 0.287973 -0.509295
v -0.135915 0.285174 -0.508659
v -0.213209 0.399693 -0.509154
v -0.068208 0.460549 -0.508792
v -0.064504 -0.330025 -0.507150
v 0.049694 0.258487 -0.507979
v 0.088913 0.461370 -0.468228
v 0.160460 -0.153911 -0.506756
v 0.092751 -0.329289 -0.506624
v 0.231816 0.213820 -0.507274
v 0.234480 0.401873 -0.467616
v 0.348429 -0.156707 -0.506120
v 0.237753 -0.268425 -0.506261
v 0.407925 -0.011141 -0.506220
v 0.407189 0.146114 -0.506544
v 0.346331 0.291117 -0.507050
v -0.321197 -0.160213 -0.683757
v -0.382055 -0.015211 -0.684262
v -0.206686 -0.082922 -0.683531
v -0.209480 -0.270888 -0.683154
v -0.382791 0.142045 -0.684588
v -0.180111 0.102766 -0.649610
v -0.024639 -0.127536 -0.660063
v -0.063915 -0.330386 -0.682542
v 0.160918 -0.154192 -0.642959
v 0.093209 -0.329569 -0.642825
v -0.171154 0.107496 -0.632940
v -0.135494 0.284915 -0.634648
v 0.050139 0.258215 -0.639987
v 0.016161 0.066449 -0.647466
v -0.206871 -0.082808 -0.628119
v -0.180225 0.102837 -0.614474
v 0.014139 0.065862 -0.626843
v -0.024774 -0.127453 -0.619531
v 0.205523 0.027966 -0.625456
v 0.160750 -0.154090 -0.593568
v 0.050768 0.258831 -0.621388
v 0.232027 0.213691 -0.569816
v 0.160591 -0.153992 -0.545986
v 0.200495 0.028306 -0.560198
v 0.408060 -0.011223 -0.545996
v 0.348561 -0.156788 -0.545895
v 0.232346 0.213608 -0.550512
v 0.407267 0.146065 -0.529949
v 0.234745 0.401709 -0.547427
v 0.346394 0.291078 -0.526122
v -0.212694 0.398598 -0.395568
v -0.322929 0.287323 -0.395709
v -0.382190 0.142335 -0.395610
v -0.381458 -0.014295 -0.395283
v -0.320841 -0.158721 -0.394783
v -0.209568 -0.268955 -0.394180
v -0.064579 -0.328217 -0.393573
v 0.092049 -0.327484 -0.393047
v 0.236475 -0.266863 -0.392686
v 0.346709 -0.155588 -0.392545
v 0.405968 -0.010601 -0.392643
v 0.405236 0.146027 -0.392970
v 0.344618 0.290455 -0.393470
v 0.233347 0.400688 -0.394072
v 0.088360 0.459949 -0.394682
v -0.068269 0.459213 -0.395207
v -0.135553 0.284952 -0.616655
v -0.382974 0.142157 -0.630679
v -0.382238 -0.015100 -0.630353
v -0.321378 -0.160101 -0.629850
v -0.209661 -0.270776 -0.629245
v -0.064096 -0.330275 -0.628634
v 0.093067 -0.329483 -0.600963
v 0.050173 0.258640 -0.558515
v -0.135753 0.285075 -0.556782
v -0.180423 0.102959 -0.555685
v -0.383201 0.142295 -0.563329
v -0.382465 -0.014961 -0.563003
v -0.321605 -0.159962 -0.562499
v -0.209888 -0.270637 -0.561895
v -0.064323 -0.330136 -0.561284
v 0.092892 -0.329376 -0.548663
vt 0.661007 0.263369
vt 0.684201 0.279102
vt 0.650856 0.290553
vt 0.631736 0.257720
vt 0.696982 0.301398
vt 0.670751 0.324171
vt 0.725359 0.313274
vt 0.731871 0.354657
vt 0.692998 0.378952
vt 0.690303 0.339779
vt 0.720220 0.391247
vt 0.698443 0.420930
vt 0.614013 0.301934
vt 0.602398 0.263253
vt 0.648290 0.300866
vt 0.670560 0.330980
vt 0.628070 0.345684
vt 0.614701 0.310036
vt 0.667909 0.334637
vt 0.673350 0.367151
vt 0.643615 0.379937
vt 0.631388 0.346852
vt 0.665736 0.442606
vt 0.652899 0.401754
vt 0.579676 0.313952
vt 0.577190 0.279173
vt 0.591784 0.359094
vt 0.574616 0.321225
vt 0.642561 0.382973
vt 0.605998 0.398852
vt 0.627869 0.445192
vt 0.612842 0.407163
vt 0.552625 0.273602
vt 0.557009 0.319053
vt 0.526533 0.345651
vt 0.530617 0.307585
vt 0.564515 0.322710
vt 0.580487 0.364353
vt 0.540667 0.382620
vt 0.534198 0.348844
vt 0.604533 0.402566
vt 0.561991 0.411394
vt 0.615650 0.436744
vt 0.588852 0.431974
vt 0.007614 0.314585
vt 0.038454 0.314821
vt 0.038369 0.321581
vt 0.006293 0.321425
vt 0.070333 0.314562
vt 0.070353 0.321372
vt 0.102305 0.314309
vt 0.102336 0.321123
vt 0.134292 0.314058
vt 0.134323 0.320873
vt 0.166282 0.313812
vt 0.166313 0.320627
vt 0.198269 0.313570
vt 0.198301 0.320385
vt 0.262100 0.313040
vt 0.292969 0.312280
vt 0.294396 0.319216
vt 0.262271 0.319862
vt 0.230239 0.313326
vt 0.230284 0.320142
vt 0.038979 0.424624
vt 0.006825 0.424883
vt 0.071031 0.424391
vt 0.103069 0.424143
vt 0.135101 0.423894
vt 0.167133 0.423647
vt 0.199170 0.423405
vt 0.295415 0.422653
vt 0.263284 0.422896
vt 0.231218 0.423161
vt 0.263376 0.434459
vt 0.295510 0.434202
vt 0.295870 0.534896
vt 0.263856 0.534937
vt 0.231327 0.434680
vt 0.231885 0.535087
vt 0.199287 0.434915
vt 0.199929 0.535291
vt 0.167253 0.435158
vt 0.167977 0.535531
vt 0.135223 0.435405
vt 0.136021 0.535785
vt 0.103191 0.435656
vt 0.104065 0.536051
vt 0.071153 0.435910
vt 0.072109 0.536321
vt 0.039102 0.436183
vt 0.040146 0.536604
vt 0.006962 0.436423
vt 0.008047 0.536967
vt 0.009273 0.542650
vt 0.040301 0.542360
vt 0.040320 0.547775
vt 0.008404 0.547992
vt 0.516598 0.536920
vt 0.515523 0.542696
vt 0.484779 0.542606
vt 0.484805 0.536796
vt 0.516510 0.548110
vt 0.484791 0.548064
vt 0.453366 0.542405
vt 0.453411 0.536645
vt 0.453305 0.547820
vt 0.421875 0.542028
vt 0.421933 0.536267
vt 0.421796 0.547440
vt 0.390346 0.541637
vt 0.390397 0.535874
vt 0.390270 0.547047
vt 0.358804 0.541298
vt 0.358843 0.535536
vt 0.358737 0.546708
vt 0.327269 0.541010
vt 0.327309 0.535249
vt 0.327204 0.546418
vt 0.295758 0.540676
vt 0.295663 0.546098
vt 0.263856 0.540696
vt 0.263830 0.546102
vt 0.231920 0.540845
vt 0.231924 0.546251
vt 0.199979 0.541048
vt 0.199997 0.546455
vt 0.168037 0.541290
vt 0.168066 0.546699
vt 0.136085 0.541546
vt 0.136116 0.546955
vt 0.104133 0.541813
vt 0.104168 0.547225
vt 0.072187 0.542083
vt 0.072224 0.547496
vt 0.294342 0.428482
vt 0.263277 0.428702
vt 0.231270 0.428922
vt 0.199229 0.429160
vt 0.167193 0.429402
vt 0.135162 0.429649
vt 0.103129 0.429899
vt 0.071094 0.430149
vt 0.039093 0.430378
vt 0.008015 0.430600
vt 0.676151 0.231322
vt 0.713563 0.261738
vt 0.704323 0.267136
vt 0.671366 0.241366
vt 0.630208 0.222125
vt 0.630751 0.233319
vt 0.715589 0.307894
vt 0.682212 0.335950
vt 0.584279 0.234881
vt 0.590401 0.243898
vt 0.560668 0.275204
vt 0.684737 0.374266
vt 0.648080 0.393546
vt 0.533194 0.385975
vt 0.558547 0.415064
vt 0.587344 0.436203
vt 0.104369 0.570409
vt 0.072416 0.570678
vt 0.040454 0.570954
vt 0.008428 0.571147
vt 0.516688 0.571264
vt 0.484767 0.571250
vt 0.453090 0.571012
vt 0.421518 0.570626
vt 0.390002 0.570228
vt 0.358504 0.569885
vt 0.326996 0.569592
vt 0.295472 0.569307
vt 0.263807 0.569274
vt 0.231983 0.569415
vt 0.200082 0.561458
vt 0.168188 0.561691
vt 0.136333 0.570150
vt 0.675851 0.368852
vt 0.704910 0.303935
vt 0.693160 0.273459
vt 0.665548 0.253447
vt 0.631379 0.246814
vt 0.597372 0.254535
vt 0.569806 0.277276
vn -0.334505 -0.229743 -0.913961
vn -0.213622 0.005659 -0.976900
vn 0.181331 0.127103 -0.975174
vn -0.102990 -0.223509 -0.969245
vn -0.110384 0.341340 -0.933436
vn 0.396767 0.300735 -0.867257
vn -0.774539 0.320395 -0.545377
vn -0.465780 0.308202 -0.829494
vn -0.043276 0.156588 -0.986715
vn -0.178014 0.334103 -0.925574
vn -0.382580 0.568920 -0.727986
vn -0.030287 0.523715 -0.851355
vn 0.169068 0.268336 -0.948373
vn 0.070234 -0.211926 -0.974759
vn 0.259160 0.202427 -0.944383
vn -0.045712 0.512878 -0.857243
vn 0.097550 -0.030869 -0.994752
vn 0.068914 0.192517 -0.978871
vn -0.174382 -0.076626 -0.981692
vn -0.119180 0.133461 -0.983862
vn 0.077987 0.100848 -0.991841
vn 0.039278 -0.088166 -0.995331
vn 0.143711 0.522626 -0.840363
vn 0.134670 0.361928 -0.922427
vn 0.434908 0.188253 -0.880577
vn 0.331527 -0.252734 -0.908964
vn 0.316595 -0.034763 -0.947924
vn 0.632617 -0.119037 -0.765262
vn 0.294117 0.549111 -0.782286
vn 0.420283 0.287810 -0.860539
vn 0.245701 0.640308 -0.727761
vn -0.274781 0.432220 -0.858884
vn 0.296040 -0.930668 -0.214984
vn 0.245933 -0.354187 -0.902258
vn 0.748848 -0.625022 -0.220394
vn 0.387464 -0.571905 -0.723047
vn 0.619575 -0.406023 -0.671768
vn 0.332941 -0.047725 -0.941739
vn 0.240072 -0.032289 -0.970218
vn 0.159090 -0.274301 -0.948393
vn 0.136009 0.308486 -0.941455
vn 0.271489 0.083670 -0.958798
vn -0.352659 0.433711 -0.829172
vn 0.381054 0.224679 -0.896837
vn -0.544710 -0.000806 0.838624
vn -0.527537 0.103565 0.843196
vn -0.980732 0.190373 0.043843
vn -0.999053 -0.004598 0.043274
vn -0.448646 0.296608 0.843054
vn -0.833275 0.551137 0.043595
vn -0.301878 0.444766 0.843239
vn -0.558986 0.828012 0.043946
vn -0.093062 0.469017 0.878272
vn -0.199289 0.978769 0.047916
vn 0.104302 0.436652 0.893564
vn 0.188741 0.980854 0.047992
vn 0.281912 0.412567 0.866207
vn 0.551347 0.833086 0.044543
vn 0.520899 0.108482 0.846697
vn 0.539096 0.004280 0.842233
vn 0.998739 0.004767 0.049968
vn 0.978590 0.199550 0.050409
vn 0.440179 0.300770 0.846038
vn 0.827754 0.558934 0.049162
vn -0.978722 0.189761 -0.078062
vn -0.996482 -0.004850 -0.083669
vn -0.832102 0.549401 -0.075919
vn -0.559316 0.826059 -0.069229
vn -0.201329 0.977756 -0.058819
vn 0.187816 0.981127 -0.045990
vn 0.549092 0.835135 -0.032351
vn 0.999966 0.004654 -0.006743
vn 0.979515 0.201098 -0.010484
vn 0.827318 0.561386 -0.019764
vn 0.978763 0.199586 0.046786
vn 0.998911 0.004772 0.046412
vn 0.996722 -0.003773 -0.080817
vn 0.979058 0.199404 -0.041024
vn 0.827906 0.559015 0.045537
vn 0.828201 0.558835 -0.042272
vn 0.550985 0.833352 0.044040
vn 0.551280 0.833172 -0.043768
vn 0.190160 0.980832 0.042523
vn 0.190454 0.980651 -0.045285
vn -0.187692 0.981172 0.045526
vn -0.185877 0.981394 -0.048114
vn -0.536043 0.841939 0.061626
vn -0.542607 0.838815 -0.044351
vn -0.830388 0.551691 0.078063
vn -0.834900 0.548690 -0.043386
vn -0.978349 0.190097 0.081833
vn -0.980854 0.190092 -0.042324
vn -0.996692 -0.004507 0.081151
vn -0.995477 -0.014057 -0.093960
vn -0.865536 -0.175821 -0.468971
vn -0.819704 0.158866 -0.550315
vn -0.968834 0.188224 0.161035
vn -0.967032 -0.196624 0.161829
vn -0.806762 -0.526728 -0.267756
vn -0.380008 -0.238903 -0.893599
vn -0.818093 -0.551485 0.163059
vn -0.546985 -0.827892 -0.124109
vn -0.245171 -0.377055 -0.893152
vn -0.544692 -0.822334 0.164554
vn -0.188625 -0.974368 -0.122588
vn -0.082696 -0.443451 -0.892476
vn -0.188451 -0.967941 0.166062
vn 0.198552 -0.972555 -0.121298
vn 0.092826 -0.442616 -0.891894
vn 0.196405 -0.966136 0.167351
vn 0.555558 -0.822705 -0.120464
vn 0.254673 -0.374684 -0.891490
vn 0.551275 -0.817187 0.168230
vn 0.828033 -0.547647 -0.120178
vn 0.378176 -0.249985 -0.891342
vn 0.822119 -0.543785 0.168575
vn 0.974505 -0.189272 -0.120483
vn 0.967726 -0.187541 0.168328
vn 0.972698 0.197875 -0.121261
vn 0.965924 0.197300 0.167523
vn 0.822866 0.554882 -0.122466
vn 0.824716 0.536132 0.180015
vn 0.547816 0.827367 -0.123939
vn 0.555740 0.803361 0.213928
vn 0.189433 0.973845 -0.125460
vn 0.164533 0.963259 0.212277
vn -0.214390 0.949948 -0.227235
vn -0.214344 0.960836 0.175644
vn -0.510043 0.765591 -0.392081
vn -0.552368 0.817877 0.161139
vn -0.707789 0.479792 -0.518492
vn -0.823227 0.544467 0.160791
vn 0.857567 0.005072 0.514348
vn 0.850294 0.155183 0.502910
vn 0.767681 0.479869 0.424726
vn 0.561919 0.779950 0.275546
vn 0.227233 0.972021 0.059500
vn -0.165977 0.970767 -0.173391
vn -0.505005 0.785877 -0.356886
vn -0.733005 0.497183 -0.464233
vn -0.849882 0.164832 -0.500530
vn -0.898866 -0.005119 -0.438194
vn -0.828847 -0.559420 0.007912
vn -0.979842 -0.199665 0.006665
vn -0.979855 -0.199691 -0.002870
vn -0.828855 -0.559462 -0.001624
vn -0.551677 -0.834005 0.009410
vn -0.551673 -0.834061 -0.000135
vn -0.535787 0.844346 -0.003536
vn -0.475321 0.879806 -0.003416
vn -0.194120 -0.980915 0.011091
vn -0.201529 -0.979482 0.001338
vn 0.570259 -0.821457 0.003600
vn -0.547286 0.836944 -0.001495
vn 0.184543 0.982822 0.002121
vn 0.980535 -0.195814 0.014439
vn 0.981199 0.192466 0.014351
vn 0.828588 0.559718 0.012516
vn -0.544476 0.837930 -0.037668
vn -0.567894 0.823094 -0.003619
vn -0.979856 -0.199687 -0.002898
vn -0.828853 -0.559465 -0.001640
vn -0.551670 -0.834063 -0.000136
vn -0.203220 -0.979132 0.001334
vn 0.580320 -0.814381 0.003629
s 1
f 104/1/1 105/2/2 106/3/3 107/4/4
f 105/2/2 108/5/5 109/6/6 106/3/3
f 86/7/7 88/8/8 89/9/9 87/10/10
f 88/8/8 90/11/11 91/12/12 89/9/9
f 107/4/4 106/3/3 110/13/13 111/14/14
f 118/15/15 119/16/16 120/17/17 121/18/18
f 114/19/19 115/20/20 116/21/21 117/22/22
f 89/9/9 91/12/12 94/23/23 93/24/24
f 111/14/14 110/13/13 112/25/25 113/26/26
f 121/18/18 120/17/17 122/27/27 123/28/28
f 120/17/17 124/29/29 125/30/30 122/27/27
f 93/24/24 94/23/23 98/31/31 97/32/32
f 96/33/33 95/34/34 99/35/35 100/36/36
f 126/37/37 127/38/38 128/39/39 129/40/40
f 127/38/38 130/41/41 131/42/42 128/39/39
f 130/41/41 132/43/43 133/44/44 131/42/42
f 1/45/45 2/46/46 12/47/47 11/48/48
f 2/46/46 3/49/49 13/50/50 12/47/47
f 3/49/49 4/51/51 14/52/52 13/50/50
f 4/51/51 5/53/53 15/54/54 14/52/52
f 5/53/53 6/55/55 16/56/56 15/54/54
f 6/55/55 7/57/57 17/58/58 16/56/56
f 9/59/59 8/60/60 18/61/61 19/62/62
f 7/57/57 10/63/63 20/64/64 17/58/58
f 10/63/63 9/59/59 19/62/62 20/64/64
f 11/48/48 12/47/47 80/65/65 55/66/66
f 12/47/47 13/50/50 77/67/67 80/65/65
f 13/50/50 14/52/52 74/68/68 77/67/67
f 14/52/52 15/54/54 71/69/69 74/68/68
f 15/54/54 16/56/56 68/70/70 71/69/69
f 16/56/56 17/58/58 65/71/71 68/70/70
f 19/62/62 18/61/61 56/72/72 59/73/73
f 17/58/58 20/64/64 62/74/74 65/71/71
f 20/64/64 19/62/62 59/73/73 62/74/74
f 61/75/75 58/76/76 36/77/77 38/78/78
f 64/79/79 61/75/75 38/78/78 40/80/80
f 67/81/81 64/79/79 40/80/80 42/82/82
f 70/83/83 67/81/81 42/82/82 44/84/84
f 73/85/85 70/83/83 44/84/84 46/86/86
f 76/87/87 73/85/85 46/86/86 48/88/88
f 79/89/89 76/87/87 48/88/88 50/90/90
f 82/91/91 79/89/89 50/90/90 52/92/92
f 53/93/93 82/91/91 52/92/92 22/94/94
f 21/95/95 51/96/96 136/97/97 137/98/98
f 21/95/95 22/94/94 52/92/92 51/96/96
f 22/99/94 21/100/95 23/101/99 24/102/100
f 23/101/99 21/100/95 137/103/98 138/104/101
f 24/102/100 23/101/99 25/105/102 26/106/103
f 25/105/102 23/101/99 138/104/101 139/107/104
f 26/106/103 25/105/102 27/108/105 28/109/106
f 27/108/105 25/105/102 139/107/104 140/110/107
f 28/109/106 27/108/105 29/111/108 30/112/109
f 29/111/108 27/108/105 140/110/107 141/113/110
f 30/112/109 29/111/108 31/114/111 32/115/112
f 31/114/111 29/111/108 141/113/110 142/116/113
f 32/115/112 31/114/111 33/117/114 34/118/115
f 33/117/114 31/114/111 142/116/113 143/119/116
f 34/118/115 33/117/114 35/120/117 36/77/77
f 35/120/117 33/117/114 143/119/116 144/121/118
f 36/77/77 35/120/117 37/122/119 38/78/78
f 37/122/119 35/120/117 144/121/118 145/123/120
f 38/78/78 37/122/119 39/124/121 40/80/80
f 39/124/121 37/122/119 145/123/120 146/125/122
f 40/80/80 39/124/121 41/126/123 42/82/82
f 41/126/123 39/124/121 146/125/122 147/127/124
f 42/82/82 41/126/123 43/128/125 44/84/84
f 43/128/125 41/126/123 147/127/124 148/129/126
f 44/84/84 43/128/125 45/130/127 46/86/86
f 45/130/127 43/128/125 148/129/126 149/131/128
f 46/86/86 45/130/127 47/132/129 48/88/88
f 47/132/129 45/130/127 149/131/128 134/133/130
f 48/88/88 47/132/129 49/134/131 50/90/90
f 49/134/131 47/132/129 134/133/130 135/135/132
f 50/90/90 49/134/131 51/96/96 52/92/92
f 51/96/96 49/134/131 135/135/132 136/97/97
f 56/72/72 57/136/133 60/137/134 59/73/73
f 57/136/133 58/76/76 61/75/75 60/137/134
f 59/73/73 60/137/134 63/138/135 62/74/74
f 60/137/134 61/75/75 64/79/79 63/138/135
f 62/74/74 63/138/135 66/139/136 65/71/71
f 63/138/135 64/79/79 67/81/81 66/139/136
f 65/71/71 66/139/136 69/140/137 68/70/70
f 66/139/136 67/81/81 70/83/83 69/140/137
f 68/70/70 69/140/137 72/141/138 71/69/69
f 69/140/137 70/83/83 73/85/85 72/141/138
f 71/69/69 72/141/138 75/142/139 74/68/68
f 72/141/138 73/85/85 76/87/87 75/142/139
f 74/68/68 75/142/139 78/143/140 77/67/67
f 75/142/139 76/87/87 79/89/89 78/143/140
f 77/67/67 78/143/140 81/144/141 80/65/65
f 78/143/140 79/89/89 82/91/91 81/144/141
f 53/93/93 54/145/142 81/144/141 82/91/91
f 54/145/142 55/66/66 80/65/65 81/144/141
f 83/146/143 84/147/144 161/148/145 162/149/146
f 85/150/147 83/146/143 162/149/146 163/151/148
f 84/147/144 86/7/7 160/152/149 161/148/145
f 86/7/7 87/10/10 159/153/150 160/152/149
f 92/154/151 85/150/147 163/151/148 164/155/152
f 95/34/34 96/33/33 165/156/153 126/37/37
f 96/33/33 92/154/151 164/155/152 165/156/153
f 87/10/10 89/9/9 158/157/154 159/153/150
f 89/9/9 93/24/24 157/158/155 158/157/154
f 93/24/24 97/32/32 130/41/41 157/158/155
f 101/159/156 99/35/35 129/40/40 128/39/39
f 99/35/35 95/34/34 126/37/37 129/40/40
f 102/160/157 101/159/156 128/39/39 131/42/42
f 97/32/32 98/31/31 132/43/43 130/41/41
f 98/31/31 103/161/158 133/44/44 132/43/43
f 103/161/158 102/160/157 131/42/42 133/44/44
f 135/135/132 134/133/130 90/162/11 88/163/8
f 136/97/97 135/135/132 88/163/8 86/164/7
f 137/98/98 136/97/97 86/164/7 84/165/144
f 138/104/101 137/103/98 84/166/144 83/167/143
f 139/107/104 138/104/101 83/167/143 85/168/147
f 140/110/107 139/107/104 85/168/147 92/169/151
f 141/113/110 140/110/107 92/169/151 96/170/33
f 142/116/113 141/113/110 96/170/33 100/171/36
f 143/119/116 142/116/113 100/171/36 99/172/35
f 144/121/118 143/119/116 99/172/35 101/173/156
f 145/123/120 144/121/118 101/173/156 102/174/157
f 146/125/122 145/123/120 102/174/157 103/175/158
f 147/127/124 146/125/122 103/175/158 98/176/31
f 148/129/126 147/127/124 98/176/31 94/177/23
f 149/131/128 148/129/126 94/177/23 91/178/12
f 134/133/130 149/131/128 91/178/12 90/162/11
f 150/179/159 124/29/29 116/21/21 115/20/20
f 119/16/16 150/179/159 115/20/20 114/19/19
f 120/17/17 119/16/16 114/19/19 117/22/22
f 124/29/29 120/17/17 117/22/22 116/21/21
f 119/16/16 118/15/15 106/3/3 109/6/6
f 151/180/160 119/16/16 109/6/6 108/5/5
f 152/181/161 151/180/160 108/5/5 105/2/2
f 153/182/162 152/181/161 105/2/2 104/1/1
f 154/183/163 153/182/162 104/1/1 107/4/4
f 155/184/164 154/183/163 107/4/4 111/14/14
f 156/185/165 155/184/164 111/14/14 113/26/26
f 123/28/28 156/185/165 113/26/26 112/25/25
f 121/18/18 123/28/28 112/25/25 110/13/13
f 118/15/15 121/18/18 110/13/13 106/3/3
f 127/38/38 126/37/37 123/28/28 122/27/27
f 130/41/41 127/38/38 122/27/27 125/30/30
f 157/158/155 130/41/41 125/30/30 124/29/29
f 158/157/154 157/158/155 124/29/29 150/179/159
f 159/153/150 158/157/154 150/179/159 119/16/16
f 160/152/149 159/153/150 119/16/16 151/180/160
f 161/148/145 160/152/149 151/180/160 152/181/161
f 162/149/146 161/148/145 152/181/161 153/182/162
f 163/151/148 162/149/146 153/182/162 154/183/163
f 164/155/152 163/151/148 154/183/163 155/184/164
f 165/156/153 164/155/152 155/184/164 156/185/165
f 126/37/37 165/156/153 156/185/165 123/28/28
