# This file uses centimeters as units for non-parametric coordinates.

v 0.740648 -0.020325 1.219076
v -0.797709 -0.025917 0.710897
v 0.679451 -0.028918 0.453713
v -0.445321 -0.037930 -0.356910
v 0.601877 -0.039810 -0.516496
v -0.797261 -0.048165 -1.270659
v 0.517548 -0.051651 -1.571186
v -0.436324 0.535218 1.369737
v 0.506265 0.545790 1.048389
v 0.348409 0.914762 0.724177
v -0.690059 0.921541 0.938421
v 0.412835 0.777444 -0.121871
v -0.543337 0.785356 0.029451
v -0.569162 0.365785 -0.423304
v 0.367131 0.367736 -0.557872
v 0.309431 0.402712 -1.279813
v -0.628116 0.401520 -1.160941
v 0.140559 -0.014415 1.504951
v 0.100634 0.764310 1.329272
v -0.066417 1.157011 0.889845
v -0.014270 1.029318 -0.148552
v -0.013991 -0.038653 -0.418079
v -0.042396 0.363223 -0.424012
v -0.104872 0.401991 -1.223246
v -0.100064 -0.050739 -1.494566
v 0.651890 -0.033339 0.059901
v 0.319797 1.018199 0.365567
v -0.099529 1.262201 0.500933
v -0.722410 1.034518 0.532973
v -0.830659 -0.030736 0.281626
v -0.804938 -0.044330 -0.929300
v -0.596411 0.503614 -0.765132
v -0.080525 0.488522 -0.833816
v 0.340463 0.505213 -0.892419
v 0.673689 -0.047150 -1.169354
v -0.460674 -0.015849 1.408382
vt 0.599494 0.072741
vt 0.659880 0.103881
vt 0.639641 0.171181
vt 0.580943 0.150432
vt 0.631178 0.214697
vt 0.571404 0.205070
vt 0.526576 0.499567
vt 0.575159 0.510948
vt 0.564623 0.567357
vt 0.510679 0.551344
vt 0.784261 0.063392
vt 0.819748 0.245786
vt 0.692051 0.183028
vt 0.726129 0.126099
vt 0.787109 0.330354
vt 0.675642 0.233882
vt 0.587014 0.402538
vt 0.521198 0.385389
vt 0.558018 0.277308
vt 0.625277 0.282454
vt 0.436318 0.243199
vt 0.444257 0.143263
vt 0.578495 0.448945
vt 0.530692 0.448074
vt 0.696205 0.565580
vt 0.643004 0.642703
vt 0.608722 0.573623
vt 0.614954 0.518149
vt 0.550442 0.648327
vt 0.455510 0.584504
vt 0.436368 0.505011
vt 0.684172 -0.000000
vt 0.681253 0.423936
vt 0.667480 0.308609
vt 0.621351 0.462994
vt 0.572410 0.009979
vn -0.551854 0.239140 0.798918
vn 0.189220 0.550293 0.813249
vn 0.077781 0.869117 0.488453
vn -0.762043 0.451071 0.464571
vn -0.051113 0.991177 -0.122291
vn -0.806288 0.564584 -0.176476
vn -0.564987 0.801836 0.194547
vn 0.006810 0.998836 0.047745
vn -0.123017 0.722551 -0.680285
vn -0.466603 0.681512 -0.563758
vn 0.815703 0.377826 0.438037
vn 0.940339 0.336925 -0.047363
vn 0.829877 0.542665 0.129688
vn 0.831590 0.442494 0.335645
vn 0.955009 0.295378 -0.026646
vn 0.793432 0.603096 -0.082106
vn -0.122693 0.559893 -0.819431
vn -0.825734 0.307878 -0.472625
vn -0.646081 0.391131 -0.655436
vn -0.090453 0.659903 -0.745886
vn -0.953114 0.138825 -0.268889
vn -0.961209 0.055608 0.270157
vn 0.117592 0.564714 0.816866
vn -0.542113 0.459476 0.703559
vn 0.832726 0.543200 -0.107245
vn 0.334935 0.629451 -0.701149
vn 0.321029 0.742460 -0.587957
vn 0.552601 0.833443 0.002034
vn -0.158129 0.460860 -0.873271
vn -0.564528 0.468508 -0.679565
vn -0.959372 0.220525 0.175994
vn 0.239935 0.249753 0.938112
vn 0.799276 0.516686 -0.306909
vn 0.633209 0.494753 -0.595201
vn 0.592085 0.612133 0.524146
vn -0.596050 0.092411 0.797612
s 1
f 8/1/1 19/2/2 20/3/3 11/4/4
f 11/4/4 20/3/3 28/5/5 29/6/6
f 32/7/7 33/8/8 24/9/9 17/10/10
f 1/11/11 3/12/12 10/13/13 9/14/14
f 3/12/12 26/15/15 27/16/16 10/13/13
f 22/17/17 4/18/18 13/19/19 21/20/20
f 30/21/21 2/22/22 11/4/4 29/6/6
f 4/18/18 22/17/17 23/23/23 14/24/24
f 35/25/25 7/26/26 16/27/27 34/28/28
f 25/29/29 6/30/30 17/10/10 24/9/9
f 6/30/30 31/31/31 32/7/7 17/10/10
f 18/32/32 1/11/11 9/14/14 19/2/2
f 20/3/3 19/2/2 9/14/14 10/13/13
f 28/5/5 20/3/3 10/13/13 27/16/16
f 5/33/33 22/17/17 21/20/20 12/34/34
f 23/23/23 22/17/17 5/33/33 15/35/35
f 24/9/9 33/8/8 34/28/28 16/27/27
f 7/26/26 25/29/29 24/9/9 16/27/27
f 26/15/15 5/33/33 12/34/34 27/16/16
f 21/20/20 28/5/5 27/16/16 12/34/34
f 29/6/6 28/5/5 21/20/20 13/19/19
f 4/18/18 30/21/21 29/6/6 13/19/19
f 32/7/7 31/31/31 4/18/18 14/24/24
f 14/24/24 23/23/23 33/8/8 32/7/7
f 34/28/28 33/8/8 23/23/23 15/35/35
f 5/33/33 35/25/25 34/28/28 15/35/35
f 19/2/2 8/1/1 36/36/36 18/32/32
f 11/4/4 2/22/22 36/36/36 8/1/1
