# This file uses centimeters as units for non-parametric coordinates.

v 0.087592 -0.007456 0.213481
v -0.105105 0.257197 0.272990
v -0.205118 0.378797 0.283949
v -0.238181 -0.007456 0.191720
v -0.384361 0.236917 0.243155
v -0.311967 0.493647 0.039725
v -0.431541 0.394914 0.218825
v 0.359008 -0.007456 0.129655
v 0.128293 0.298037 0.166267
v -0.096157 0.491329 0.170413
v -0.133199 0.200868 -0.241208
v -0.055464 -0.007456 -0.295462
v -0.383842 -0.007456 0.064419
v -0.388640 0.201744 0.079127
v -0.241514 0.429205 -0.129492
v -0.397211 0.363062 0.050202
v 0.431540 -0.007456 -0.038486
v 0.109458 0.342727 0.069527
v 0.018654 0.472135 0.052642
vt 0.878526 0.288092
vt 0.861837 0.318509
vt 0.861819 0.200825
vt 0.882591 0.212527
vt 0.895227 0.263215
vt 0.894530 0.229116
vt 0.947352 0.279104
vt 0.976206 0.338435
vt 0.935737 0.266296
vt 0.996081 0.235384
vt 0.950718 0.224411
vt 0.908374 0.207436
vt 0.923685 0.179443
vt 0.933917 0.227915
vt 0.909927 0.223253
vt 0.998049 0.304878
vt 0.961445 0.267699
vt 0.935570 0.248368
vt 0.906313 0.245250
vn -0.009193 0.395912 -0.918243
vn 0.150635 0.467586 -0.871018
vn -0.908387 -0.148995 -0.390683
vn -0.907962 -0.153153 -0.390063
vn -0.185815 0.527714 -0.828849
vn -0.869414 0.063109 -0.490037
vn 0.613525 0.616024 -0.494067
vn 0.602687 0.614250 -0.509378
vn 0.500287 0.743098 -0.444431
vn -0.073460 -0.258821 0.963128
vn -0.092628 -0.224159 0.970141
vn -0.494642 -0.249400 0.832544
vn -0.267060 -0.300365 0.915675
vn -0.014893 0.485733 0.873981
vn -0.663618 0.500728 0.555772
vn 0.369921 0.235415 0.898742
vn 0.344451 0.098401 0.933633
vn 0.671387 0.440998 0.595617
vn 0.569221 0.373676 0.732361
vn 0.182339 0.896894 0.402906
vn -0.313302 0.949031 -0.034376
s 1
f 11/1/1 12/2/2 13/3/3 14/4/4
f 15/5/5 11/1/1 14/4/4 16/6/6
f 18/7/7 17/8/8 12/2/2 11/1/1
f 19/9/9 18/7/7 11/1/1 15/5/5
f 1/10/10 2/11/11 5/12/12 4/13/13
f 2/11/11 3/14/14 7/15/15 5/12/12
f 2/11/16 1/10/17 8/16/18 9/17/19
f 3/14/14 2/11/16 9/17/19 10/18/20
f 3/14/14 10/18/20 6/19/21 7/15/15
f 4/13/13 5/12/12 14/4/4 13/3/3
f 5/12/12 7/15/15 16/6/6 14/4/4
f 7/15/15 6/19/21 15/5/5 16/6/6
f 9/17/19 8/16/18 17/8/8 18/7/7
f 10/18/20 9/17/19 18/7/7 19/9/9
f 6/19/21 10/18/20 19/9/9 15/5/5
