# This file uses centimeters as units for non-parametric coordinates.

v 0.285672 -0.015827 0.298900
v -0.269750 -0.015827 -0.005753
v 0.285672 -0.015827 -0.019974
v -0.197939 0.352950 0.221041
v 0.195783 0.352950 0.151002
v 0.142050 0.534671 -0.019974
v -0.251673 0.534671 -0.005753
v 0.195783 0.443958 -0.328482
v -0.197939 0.443958 -0.328482
v 0.032046 -0.015827 0.379808
v 0.021662 0.472300 0.221041
v -0.032071 0.654021 -0.005753
v 0.021662 0.563308 -0.328482
v 0.287269 -0.015827 -0.174340
v 0.142050 0.575833 -0.173116
v -0.032916 0.689807 -0.173884
v -0.251673 0.575833 -0.173116
v -0.287270 -0.015827 -0.175140
v -0.145332 -0.015827 -0.391321
v 0.032046 -0.015827 -0.391321
v 0.285672 -0.015827 -0.391321
v -0.197939 -0.015827 0.305400
vt 0.834822 0.074745
vt 0.869268 0.062734
vt 0.879549 0.089450
vt 0.852367 0.102918
vt 0.887953 0.105000
vt 0.866752 0.119034
vt 0.900072 0.000000
vt 0.958754 0.047531
vt 0.900456 0.076724
vt 0.897644 0.048034
vt 0.972951 0.079116
vt 0.906704 0.097055
vt 0.927429 0.178194
vt 0.884409 0.186086
vt 0.876590 0.141999
vt 0.901143 0.120834
vt 0.822619 0.164973
vt 0.800526 0.132384
vt 0.839092 0.009278
vt 0.968857 0.132047
vt 0.925396 0.115869
vt 0.800518 0.053130
vn -0.720746 0.264990 0.640551
vn 0.077894 0.555332 0.827973
vn -0.022900 0.877896 0.478303
vn -0.874891 0.369035 0.313656
vn -0.061600 0.963835 -0.259284
vn -0.881476 0.395763 -0.257627
vn 0.772968 0.352454 0.527538
vn 0.969640 0.244389 0.008472
vn 0.865293 0.468509 0.178234
vn 0.821025 0.385067 0.421475
vn 0.972150 0.229031 0.049698
vn 0.866665 0.496810 -0.045519
vn 0.000396 0.120742 -0.992684
vn -0.489338 0.081386 -0.868288
vn -0.564091 0.168307 -0.808377
vn 0.027112 0.412939 -0.910355
vn -0.973130 0.031076 -0.228148
vn -0.986060 0.043786 0.160524
vn 0.097398 0.324401 0.940892
vn 0.692819 0.236626 -0.681183
vn 0.681096 0.286936 -0.673629
vn -0.698161 0.179285 0.693129
s 1
f 4/1/1 11/2/2 12/3/3 7/4/4
f 7/4/4 12/3/3 16/5/5 17/6/6
f 1/7/7 3/8/8 6/9/9 5/10/10
f 3/8/8 14/11/11 15/12/12 6/9/9
f 20/13/13 19/14/14 9/15/15 13/16/16
f 18/17/17 2/18/18 7/4/4 17/6/6
f 10/19/19 1/7/7 5/10/10 11/2/2
f 12/3/3 11/2/2 5/10/10 6/9/9
f 16/5/5 12/3/3 6/9/9 15/12/12
f 21/20/20 20/13/13 13/16/16 8/21/21
f 14/11/11 21/20/20 8/21/21 15/12/12
f 13/16/16 16/5/5 15/12/12 8/21/21
f 17/6/6 16/5/5 13/16/16 9/15/15
f 19/14/14 18/17/17 17/6/6 9/15/15
f 11/2/2 4/1/1 22/22/22 10/19/19
f 4/1/1 7/4/4 2/18/18 22/22/22
