# This file uses centimeters as units for non-parametric coordinates.

v 0.082428 0.246712 -0.310198
v 0.024827 0.017998 -0.282094
v 0.420697 0.113057 -0.026988
v 0.413984 0.009236 -0.033321
v 0.147704 0.410738 -0.345791
v 0.380220 0.305919 -0.230003
v 0.415427 0.279355 -0.083900
v -0.319750 0.258694 -0.093458
v -0.182326 0.090458 0.296428
v -0.420698 -0.004705 -0.046401
v -0.219276 -0.003576 0.326354
v 0.196225 0.173672 0.334278
v 0.174438 0.001943 0.332666
v -0.197577 0.518995 -0.115756
v -0.149863 0.462776 0.221021
v 0.191796 0.457231 0.253994
v -0.081228 0.501067 -0.208274
v -0.002983 0.529751 -0.109814
v 0.251822 0.470303 0.064333
v 0.245728 0.138657 0.175115
v 0.239866 0.004663 0.115016
v -0.197892 0.000517 -0.316362
v -0.173005 0.280887 -0.251526
v 0.366997 0.163478 -0.215335
v 0.340726 0.012541 -0.208280
vt 0.881304 0.581046
vt 0.852924 0.653436
vt 0.818547 0.638690
vt 0.872619 0.567939
vt 0.951828 0.597250
vt 0.958620 0.576025
vt 0.896790 0.620807
vt 0.884675 0.660063
vt 0.937696 0.627109
vt 0.906211 0.710499
vt 0.891368 0.736719
vt 0.843288 0.712643
vt 0.870074 0.687181
vt 0.996823 0.676564
vt 0.984790 0.671550
vt 0.975409 0.619230
vt 0.996491 0.620695
vt 0.952058 0.689651
vt 0.917203 0.692004
vt 0.894150 0.673003
vt 0.906442 0.662214
vt 0.965190 0.674378
vt 0.941986 0.649260
vt 0.960406 0.702338
vt 0.968731 0.721167
vn -0.563874 0.311860 0.764716
vn -0.945821 0.320703 -0.050714
vn -0.926926 0.374786 -0.018537
vn -0.622438 0.346552 0.701764
vn 0.287142 0.181688 0.940499
vn 0.350820 0.035396 0.935774
vn -0.523056 0.553635 0.647997
vn -0.801618 0.597765 0.009282
vn 0.256947 0.626517 0.735836
vn 0.016022 -0.019599 -0.999679
vn 0.078729 -0.015185 -0.996780
vn -0.490312 0.158125 -0.857082
vn -0.501966 0.198063 -0.841903
vn 0.942137 -0.213225 0.258674
vn 0.911819 0.024376 0.409868
vn 0.884821 0.037799 0.464395
vn 0.809271 -0.201898 0.551650
vn 0.617029 0.519625 -0.590986
vn 0.196859 0.552917 -0.809648
vn -0.188621 0.779129 -0.597812
vn 0.206042 0.978022 -0.031933
vn 0.846502 0.512512 0.144102
vn 0.548987 0.819611 0.163860
vn 0.545023 -0.168869 -0.821239
vn 0.473591 -0.150697 -0.867757
s 1
f 9/1/1 8/2/2 10/3/3 11/4/4
f 12/5/5 9/1/1 11/4/4 13/6/6
f 15/7/7 14/8/8 8/2/2 9/1/1
f 16/9/9 15/7/7 9/1/1 12/5/5
f 1/10/10 2/11/11 22/12/12 23/13/13
f 4/14/14 3/15/15 20/16/16 21/17/17
f 6/18/18 5/19/19 17/20/20 18/21/21
f 5/19/19 1/10/10 23/13/13 17/20/20
f 7/22/22 6/18/18 18/21/21 19/23/23
f 3/15/15 7/22/22 19/23/23 20/16/16
f 18/21/21 17/20/20 14/8/8 15/7/7
f 19/23/23 18/21/21 15/7/7 16/9/9
f 20/16/16 19/23/23 16/9/9 12/5/5
f 21/17/17 20/16/16 12/5/5 13/6/6
f 23/13/13 22/12/12 10/3/3 8/2/2
f 17/20/20 23/13/13 8/2/2 14/8/8
f 2/11/11 1/10/10 24/24/24 25/25/25
f 1/10/10 5/19/19 6/18/18 24/24/24
f 24/24/24 6/18/18 7/22/22 3/15/15
f 25/25/25 24/24/24 3/15/15 4/14/14
