# This file uses centimeters as units for non-parametric coordinates.

v 0.109006 -0.008094 -0.662373
v 0.249718 -0.008094 -0.638993
v 0.433997 -0.020051 -0.657114
v 0.122651 0.028683 -0.676565
v 0.249665 0.028683 -0.655455
v 0.415999 0.017890 -0.671814
v 0.083647 0.014664 -0.826243
v 0.249665 0.028683 -0.802399
v 0.405821 0.028683 -0.802399
v 0.088921 0.014664 -0.921583
v 0.249665 0.028683 -0.966103
v 0.376734 0.028683 -0.945034
v 0.071644 -0.023624 -0.933813
v 0.249718 -0.008094 -0.983139
v 0.390500 -0.008094 -0.959801
v 0.065796 -0.023624 -0.828192
v 0.422711 -0.008094 -0.801785
v -0.347925 -0.013255 0.255340
v -0.197999 -0.017976 0.286304
v -0.043397 -0.030412 0.264425
v -0.333051 0.024694 0.238384
v -0.197719 0.020433 0.266330
v -0.058164 0.009208 0.246587
v -0.337007 0.005853 0.060205
v -0.197719 0.020433 0.088983
v -0.038640 0.020433 0.088983
v -0.307516 0.013273 -0.059757
v -0.197719 0.020433 -0.108593
v -0.091108 0.020433 -0.083163
v -0.319639 -0.025908 -0.074951
v -0.197999 -0.017976 -0.129048
v -0.079893 -0.017976 -0.100880
v -0.352308 -0.034129 0.057949
v -0.021764 -0.017976 0.089824
v -0.032184 -0.010693 1.018064
v 0.072352 -0.010693 1.180656
v 0.182755 -0.010693 1.279011
v -0.008886 0.023968 1.021589
v 0.085476 0.023968 1.168359
v 0.185132 0.023968 1.257141
v 0.099269 0.010808 0.925981
v 0.211625 0.023968 1.069826
v 0.300009 0.023968 1.182979
v 0.251202 0.010808 0.868211
v 0.352162 0.023968 0.960054
v 0.393307 0.023968 1.050014
v 0.255942 -0.025272 0.848144
v 0.367796 -0.010693 0.949894
v 0.413374 -0.010693 1.049547
v 0.087626 -0.025272 0.912149
v 0.310010 -0.010693 1.196851
v -0.382629 -0.009017 0.809608
v -0.242391 -0.009017 0.872049
v -0.101669 -0.007185 0.819380
v -0.370078 0.028450 0.795736
v -0.243486 0.028450 0.852102
v -0.116462 0.030103 0.804559
v -0.440547 0.014242 0.679285
v -0.243486 0.028450 0.679285
v -0.088472 0.028450 0.679285
v -0.387414 0.015905 0.527927
v -0.243486 0.028450 0.486757
v -0.139598 0.028450 0.511537
v -0.401834 -0.022914 0.512920
v -0.242391 -0.009017 0.467304
v -0.127302 -0.009017 0.494755
v -0.460695 -0.024757 0.680593
v -0.070661 -0.009017 0.680593
v 0.004048 -0.009333 -0.137366
v 0.139819 -0.009333 -0.105337
v 0.275590 -0.009333 -0.137366
v 0.016865 0.024978 -0.152106
v 0.139418 0.024978 -0.123202
v 0.261971 0.024978 -0.152106
v -0.030933 0.011973 -0.284075
v 0.139418 0.024978 -0.284075
v 0.292826 0.035063 -0.291792
v 0.003892 0.006256 -0.428131
v 0.139418 0.024978 -0.463297
v 0.261971 0.024978 -0.416044
v -0.010314 -0.030073 -0.443152
v 0.139819 -0.009333 -0.482109
v 0.275590 -0.009333 -0.429756
v -0.048904 -0.023740 -0.283554
v 0.309769 0.001840 -0.292113
v -0.290235 -0.004836 -1.287213
v -0.366092 -0.009157 -1.169413
v -0.398391 -0.020538 -1.030203
v -0.280662 0.029896 -1.268921
v -0.349136 0.025996 -1.162590
v -0.378284 0.015722 -1.036932
v -0.127233 0.012652 -1.213562
v -0.197719 0.025996 -1.104126
v -0.250160 0.025996 -0.968308
v -0.034530 0.019443 -1.148834
v -0.029031 0.025996 -1.038994
v -0.085887 0.025996 -0.956354
v -0.017560 -0.016416 -1.154175
v -0.011474 -0.009157 -1.032492
v -0.074459 -0.009157 -0.940933
v -0.120264 -0.023940 -1.225886
v -0.256448 -0.009157 -0.954182
v 0.068364 -0.006653 0.620676
v 0.227946 -0.003863 0.606811
v 0.361949 -0.003361 0.551624
v 0.079072 0.026545 0.601814
v 0.223115 0.029063 0.589298
v 0.344071 0.029517 0.539478
v 0.021447 0.006830 0.467571
v 0.196065 0.022013 0.436052
v 0.333640 0.023894 0.411682
v 0.029078 0.002247 0.355329
v 0.165930 0.014159 0.265327
v 0.283772 0.017732 0.290872
v 0.012990 -0.033571 0.347624
v 0.164595 -0.020375 0.247913
v 0.295147 -0.016416 0.276209
v 0.004530 -0.028494 0.471962
v 0.350380 -0.009590 0.410051
v -0.406551 -0.015090 -0.524613
v -0.242269 -0.015090 -0.500119
v -0.108146 -0.025878 -0.519102
v -0.389982 0.018094 -0.538098
v -0.241695 0.018094 -0.515993
v -0.120630 0.008356 -0.533121
v -0.359064 0.005445 -0.694811
v -0.241695 0.018094 -0.669846
v -0.103691 0.018094 -0.669846
v -0.305843 0.005445 -0.766903
v -0.219186 0.018094 -0.801428
v -0.150684 0.018094 -0.785088
v -0.313333 -0.029103 -0.778092
v -0.217330 -0.015090 -0.816342
v -0.141445 -0.015090 -0.798239
v -0.372295 -0.029103 -0.698229
v -0.089391 -0.015090 -0.670567
vt 0.494920 0.429067
vt 0.610032 0.357842
vt 0.618796 0.388253
vt 0.527706 0.432603
vt 0.755183 0.325700
vt 0.747536 0.359917
vt 0.653052 0.497535
vt 0.534447 0.555369
vt 0.769742 0.461092
vt 0.691618 0.618739
vt 0.560533 0.626225
vt 0.782839 0.575436
vt 0.698563 0.649799
vt 0.549521 0.658888
vt 0.815443 0.580759
vt 0.800348 0.452516
vt 0.502976 0.566041
vt 0.370060 0.050922
vt 0.511738 0.010111
vt 0.510214 0.044112
vt 0.402962 0.062169
vt 0.636813 0.027489
vt 0.620431 0.059709
vt 0.506917 0.182478
vt 0.396814 0.204163
vt 0.630852 0.183968
vt 0.506703 0.335613
vt 0.419558 0.299739
vt 0.591049 0.319649
vt 0.503308 0.369625
vt 0.402260 0.329571
vt 0.619604 0.338961
vt 0.663834 0.184765
vt 0.363335 0.208465
vt 0.128944 0.407983
vt 0.290683 0.347035
vt 0.294420 0.377549
vt 0.161521 0.413260
vt 0.409259 0.345786
vt 0.399666 0.376655
vt 0.316349 0.500838
vt 0.175459 0.526729
vt 0.426560 0.480806
vt 0.341642 0.637425
vt 0.233908 0.640952
vt 0.413541 0.608233
vt 0.347037 0.667810
vt 0.224666 0.672342
vt 0.442624 0.620441
vt 0.456751 0.476890
vt 0.144815 0.535291
vt 0.094385 0.029716
vt 0.235469 0.009107
vt 0.226281 0.041165
vt 0.118152 0.053918
vt 0.338048 0.076069
vt 0.314857 0.100558
vt 0.190952 0.170085
vt 0.042963 0.130593
vt 0.307476 0.201450
vt 0.152324 0.314852
vt 0.049244 0.256725
vt 0.236032 0.320153
vt 0.142167 0.346432
vt 0.024353 0.280939
vt 0.258857 0.345070
vt 0.338922 0.210614
vt 0.009611 0.121068
vt 0.355967 0.725331
vt 0.474031 0.668586
vt 0.478658 0.698714
vt 0.386004 0.735037
vt 0.586885 0.673509
vt 0.578062 0.703569
vt 0.498764 0.822380
vt 0.367678 0.844762
vt 0.617490 0.809200
vt 0.521742 0.959263
vt 0.411163 0.953466
vt 0.612404 0.910064
vt 0.526185 0.989698
vt 0.398362 0.983832
vt 0.641433 0.921052
vt 0.646378 0.804693
vt 0.336779 0.850593
vt 0.682756 0.057855
vt 0.811101 0.016195
vt 0.810748 0.047341
vt 0.713196 0.067137
vt 0.926043 0.028263
vt 0.912040 0.058238
vt 0.811962 0.174006
vt 0.711913 0.197206
vt 0.925371 0.171580
vt 0.816448 0.314086
vt 0.735640 0.283937
vt 0.893112 0.296905
vt 0.814382 0.345301
vt 0.720731 0.311755
vt 0.919823 0.313697
vt 0.955563 0.171294
vt 0.681420 0.202163
vt 0.043619 0.697725
vt 0.187667 0.671581
vt 0.185865 0.701142
vt 0.072069 0.710640
vt 0.301833 0.694476
vt 0.287040 0.721719
vt 0.186374 0.822859
vt 0.047020 0.824315
vt 0.295652 0.822707
vt 0.187212 0.956791
vt 0.067102 0.910854
vt 0.275583 0.924376
vt 0.186135 0.987366
vt 0.047985 0.935930
vt 0.302908 0.938197
vt 0.325132 0.823744
vt 0.015942 0.825500
vt 0.633659 0.723061
vt 0.770411 0.653723
vt 0.776108 0.682068
vt 0.664726 0.721468
vt 0.879966 0.644110
vt 0.872422 0.673938
vt 0.800249 0.799741
vt 0.714460 0.838050
vt 0.904921 0.777404
vt 0.839382 0.894913
vt 0.766100 0.886462
vt 0.890554 0.874091
vt 0.843025 0.922982
vt 0.758037 0.914580
vt 0.917699 0.884452
vt 0.933017 0.773233
vt 0.689796 0.853551
vt 0.903886 0.900124
vt 0.747950 0.909996
vt 0.896276 0.654481
vt 0.644480 0.697847
vt 0.290161 0.951327
vt 0.038244 0.923578
vt 0.315706 0.709917
vt 0.059648 0.681967
vt 0.903576 0.326729
vt 0.707675 0.298504
vt 0.940594 0.041482
vt 0.700391 0.038001
vt 0.631635 0.934432
vt 0.385505 0.974132
vt 0.601995 0.683338
vt 0.368670 0.709193
vt 0.239055 0.353855
vt 0.015496 0.264913
vt 0.348131 0.095098
vt 0.110227 0.021118
vt 0.430160 0.635080
vt 0.209979 0.663270
vt 0.426528 0.358668
vt 0.141784 0.386797
vt 0.601384 0.352598
vt 0.388488 0.314624
vt 0.652223 0.042460
vt 0.390045 0.029884
vt 0.803945 0.600852
vt 0.532073 0.645671
vt 0.775276 0.338496
vt 0.506292 0.407692
vn -0.149985 0.403826 0.902457
vn 0.004006 0.408608 0.912701
vn -0.003414 0.408601 0.912707
vn -0.149985 0.403826 0.902457
vn 0.115503 0.405995 0.906547
vn 0.115503 0.405995 0.906547
vn -0.041353 0.998272 -0.041741
vn -0.001147 0.999999 -0.000168
vn -0.021064 0.999776 -0.001872
vn -0.067277 0.997566 -0.018338
vn 0.035327 0.998670 0.037541
vn 0.019662 0.999588 0.020895
vn -0.040852 0.999165 -0.000832
vn -0.085596 0.996328 -0.001743
vn 0.000000 1.000000 0.000000
vn -0.276748 0.403518 -0.872114
vn -0.091991 0.418413 -0.903586
vn -0.096126 0.418243 -0.903234
vn -0.276748 0.403518 -0.872114
vn 0.148746 0.415858 -0.897183
vn 0.148746 0.415858 -0.897183
vn 0.904017 0.413520 -0.108415
vn 0.894599 0.407952 -0.182395
vn 0.894599 0.407952 -0.182395
vn 0.903018 0.412889 -0.118668
vn 0.908314 0.416702 -0.036392
vn 0.908314 0.416702 -0.036392
vn -0.904249 0.424064 -0.050044
vn -0.904411 0.417032 0.090141
vn -0.903034 0.415416 0.109360
vn -0.904249 0.424064 -0.050044
vn -0.892775 0.406313 0.194583
vn -0.892775 0.406313 0.194583
vn -0.166221 0.455872 0.874386
vn 0.005760 0.461280 0.887236
vn -0.006286 0.461349 0.887196
vn -0.166221 0.455872 0.874386
vn 0.160538 0.454402 0.876211
vn 0.160538 0.454402 0.876211
vn -0.026644 0.998260 -0.052608
vn 0.007767 0.999946 -0.006923
vn -0.012901 0.999912 -0.003129
vn -0.055057 0.998283 -0.020022
vn 0.039902 0.998562 0.035791
vn 0.021517 0.999582 0.019300
vn -0.035374 0.999354 0.006322
vn -0.085717 0.996202 0.015318
vn 0.000000 1.000000 0.000000
vn -0.389430 0.435200 -0.811755
vn -0.111890 0.467780 -0.876734
vn -0.108482 0.467938 -0.877078
vn -0.389430 0.435200 -0.811754
vn 0.206152 0.458823 -0.864282
vn 0.206152 0.458823 -0.864282
vn 0.914088 0.400141 -0.065806
vn 0.883855 0.382392 -0.269400
vn 0.883855 0.382392 -0.269400
vn 0.912650 0.399008 -0.088670
vn 0.905293 0.400808 0.140703
vn 0.905293 0.400808 0.140703
vn -0.910882 0.360040 -0.201656
vn -0.927866 0.360494 -0.095441
vn -0.928290 0.360431 -0.091476
vn -0.910882 0.360040 -0.201656
vn -0.933491 0.358191 -0.017152
vn -0.933491 0.358191 -0.017152
vn -0.749212 0.454595 0.481689
vn -0.684359 0.459875 0.565834
vn -0.686407 0.459792 0.563415
vn -0.749212 0.454595 0.481689
vn -0.590949 0.459079 0.663345
vn -0.590949 0.459079 0.663345
vn 0.011714 0.998497 -0.053547
vn 0.006877 0.999482 -0.031436
vn -0.008413 0.999310 -0.036175
vn -0.012477 0.997969 -0.062461
vn 0.000000 1.000000 0.000000
vn 0.000000 1.000000 0.000000
vn -0.024479 0.998787 -0.042731
vn -0.041979 0.996427 -0.073281
vn 0.000000 1.000000 0.000000
vn 0.565466 0.456391 -0.686991
vn 0.679363 0.471279 -0.562462
vn 0.676672 0.471065 -0.565874
vn 0.565466 0.456391 -0.686991
vn 0.802816 0.469746 -0.367185
vn 0.802816 0.469746 -0.367185
vn 0.628761 0.438470 0.642186
vn 0.741955 0.422450 0.520615
vn 0.741955 0.422450 0.520615
vn 0.638761 0.437611 0.632836
vn 0.486511 0.442041 0.753596
vn 0.486511 0.442041 0.753596
vn -0.321273 0.427655 -0.844923
vn -0.441419 0.441866 -0.780963
vn -0.437053 0.441482 -0.783632
vn -0.321273 0.427655 -0.844923
vn -0.560974 0.447906 -0.696196
vn -0.560974 0.447906 -0.696196
vn -0.367491 0.428657 0.825351
vn -0.025435 0.469210 0.882720
vn -0.040346 0.468639 0.882468
vn -0.367491 0.428657 0.825351
vn 0.307080 0.454222 0.836292
vn 0.307080 0.454222 0.836292
vn -0.036856 0.998517 -0.040066
vn -0.022113 0.999482 -0.023392
vn -0.034266 0.999327 -0.013073
vn -0.062560 0.997836 -0.020215
vn -0.006906 0.999957 -0.006195
vn -0.003370 0.999990 -0.003023
vn -0.043405 0.999049 -0.004061
vn -0.079102 0.996839 -0.007401
vn 0.000000 1.000000 0.000000
vn -0.282488 0.435446 -0.854744
vn -0.081397 0.457360 -0.885548
vn -0.082123 0.457316 -0.885504
vn -0.282488 0.435446 -0.854744
vn 0.206523 0.455629 -0.865881
vn 0.206524 0.455629 -0.865881
vn 0.902004 0.426473 -0.067155
vn 0.874084 0.406210 -0.266403
vn 0.874084 0.406210 -0.266403
vn 0.901374 0.425754 -0.079112
vn 0.883735 0.426871 0.191815
vn 0.883735 0.426871 0.191815
vn -0.852988 0.430766 -0.294705
vn -0.888013 0.459432 0.018846
vn -0.886723 0.459762 0.048398
vn -0.852989 0.430766 -0.294705
vn -0.796181 0.425842 0.429830
vn -0.796181 0.425842 0.429830
vn -0.205014 0.450060 0.869146
vn 0.001448 0.461765 0.887001
vn -0.001264 0.461741 0.887014
vn -0.205014 0.450060 0.869146
vn 0.204572 0.453865 0.867270
vn 0.204572 0.453865 0.867270
vn -0.040609 0.998463 -0.037712
vn -0.036643 0.999319 -0.004302
vn -0.055378 0.998322 -0.016956
vn -0.077553 0.996446 -0.032868
vn -0.032505 0.999016 0.030186
vn -0.032375 0.999475 -0.000830
vn -0.074279 0.996803 -0.029444
vn -0.106426 0.993896 -0.029040
vn -0.032224 0.999033 -0.029925
vn -0.282022 0.458683 -0.842659
vn 0.020542 0.480817 -0.876581
vn -0.009787 0.480623 -0.876873
vn -0.282022 0.458683 -0.842659
vn 0.319760 0.458366 -0.829249
vn 0.319760 0.458366 -0.829249
vn 0.890849 0.454299 -0.000999
vn 0.861632 0.441785 -0.249833
vn 0.861632 0.441785 -0.249833
vn 0.890856 0.454284 0.000951
vn 0.869120 0.441064 0.223816
vn 0.869120 0.441064 0.223816
vn -0.871149 0.434938 -0.227880
vn -0.893318 0.449424 -0.001195
vn -0.892968 0.449587 0.021913
vn -0.871149 0.434938 -0.227880
vn -0.859006 0.436121 0.268155
vn -0.859006 0.436121 0.268155
vn -0.755821 0.455881 -0.470008
vn -0.829740 0.461305 -0.314213
vn -0.825366 0.461372 -0.325433
vn -0.755821 0.455881 -0.470008
vn -0.875195 0.454443 -0.165878
vn -0.875195 0.454443 -0.165878
vn 0.058674 0.998260 -0.005907
vn 0.003661 0.999946 0.009739
vn 0.007566 0.999912 -0.010908
vn 0.038509 0.998282 -0.044149
vn -0.047761 0.998562 0.024331
vn -0.025755 0.999582 0.013121
vn 0.006845 0.999354 -0.035277
vn 0.016585 0.996202 -0.085481
vn 0.000000 1.000000 0.000000
vn 0.897507 0.435267 -0.070876
vn 0.858165 0.467816 0.211426
vn 0.857262 0.467973 0.214714
vn 0.897507 0.435267 -0.070876
vn 0.732019 0.458828 0.503612
vn 0.732019 0.458828 0.503612
vn -0.267876 0.400179 0.876413
vn -0.067069 0.382395 0.921562
vn -0.067069 0.382395 0.921562
vn -0.245978 0.399039 0.883325
vn -0.457298 0.400883 0.793833
vn -0.457298 0.400883 0.793834
vn 0.516226 0.360007 -0.777114
vn 0.423240 0.360525 -0.831198
vn 0.419700 0.360464 -0.833017
vn 0.516226 0.360007 -0.777114
vn 0.352223 0.358269 -0.864628
vn 0.352223 0.358269 -0.864628
vn 0.067850 0.476240 0.876694
vn 0.195868 0.482772 0.853562
vn 0.194945 0.482754 0.853783
vn 0.067850 0.476240 0.876694
vn 0.332436 0.480514 0.811537
vn 0.332436 0.480514 0.811537
vn -0.065424 0.995156 -0.073381
vn -0.046889 0.997075 -0.060352
vn -0.055250 0.997252 -0.049346
vn -0.082502 0.995069 -0.055053
vn -0.021136 0.998885 -0.042224
vn -0.021135 0.998885 -0.042224
vn -0.064669 0.997157 -0.038686
vn -0.100431 0.994303 -0.035716
vn -0.021134 0.998885 -0.042224
vn -0.527929 0.398524 -0.749980
vn -0.244864 0.444068 -0.861885
vn -0.245403 0.444023 -0.861755
vn -0.527929 0.398524 -0.749980
vn 0.177782 0.437648 -0.881396
vn 0.177782 0.437648 -0.881396
vn 0.866068 0.444338 -0.229106
vn 0.826204 0.430862 -0.362967
vn 0.826204 0.430862 -0.362967
vn 0.865221 0.444090 -0.232759
vn 0.888717 0.449061 -0.092337
vn 0.888717 0.449061 -0.092337
vn -0.902928 0.422531 -0.078665
vn -0.887742 0.441373 0.130785
vn -0.885989 0.441791 0.140869
vn -0.902928 0.422531 -0.078665
vn -0.845904 0.442208 0.298157
vn -0.845904 0.442208 0.298157
vn -0.133164 0.429528 0.893182
vn 0.001040 0.431466 0.902129
vn -0.003088 0.431522 0.902097
vn -0.133164 0.429528 0.893182
vn 0.160251 0.423627 0.891549
vn 0.160251 0.423627 0.891549
vn -0.039627 0.998219 -0.044601
vn -0.002007 0.999976 -0.006580
vn -0.022739 0.999651 -0.013440
vn -0.062425 0.997028 -0.045139
vn 0.039902 0.998562 0.035792
vn 0.025743 0.999402 0.023092
vn -0.044780 0.998858 -0.016650
vn -0.125067 0.991058 -0.046501
vn 0.000000 1.000000 -0.000000
vn -0.390179 0.359194 -0.847785
vn -0.141500 0.399198 -0.905880
vn -0.135772 0.399794 -0.906494
vn -0.390179 0.359194 -0.847785
vn 0.211615 0.410441 -0.886993
vn 0.211615 0.410441 -0.886993
vn 0.914495 0.395999 -0.082972
vn 0.857577 0.377211 -0.349676
vn 0.857577 0.377211 -0.349676
vn 0.912564 0.395610 -0.103535
vn 0.910303 0.389376 0.140479
vn 0.910303 0.389376 0.140479
vn -0.755299 0.344385 -0.557604
vn -0.867784 0.365645 -0.336532
vn -0.866073 0.365444 -0.341127
vn -0.755299 0.344385 -0.557604
vn -0.906257 0.367740 -0.208484
vn -0.906257 0.367740 -0.208484
s 1
f 1/168/1 2/2/2 5/3/3 4/4/4
f 2/2/2 3/5/5 6/6/6 5/3/3
s 2
f 4/4/7 5/3/8 8/7/9 7/8/10
f 5/3/8 6/6/11 9/9/12 8/7/9
f 7/8/10 8/7/9 11/10/13 10/11/14
f 8/7/9 9/9/12 12/12/15 11/10/13
s 3
f 10/11/16 11/10/17 14/13/18 13/14/19
f 11/10/17 12/12/20 15/165/21 14/13/18
s 4
f 17/16/22 15/15/23 12/12/24 9/9/25
f 3/167/26 17/16/22 9/9/25 6/6/27
s 5
f 13/166/28 16/17/29 7/8/30 10/11/31
f 16/17/29 1/1/32 4/4/33 7/8/30
s 6
f 18/164/34 19/19/35 22/20/36 21/21/37
f 19/19/35 20/22/38 23/23/39 22/20/36
s 7
f 21/21/40 22/20/41 25/24/42 24/25/43
f 22/20/41 23/23/44 26/26/45 25/24/42
f 24/25/43 25/24/42 28/27/46 27/28/47
f 25/24/42 26/26/45 29/29/48 28/27/46
s 8
f 27/28/49 28/27/50 31/30/51 30/31/52
f 28/27/50 29/29/53 32/161/54 31/30/51
s 9
f 34/33/55 32/32/56 29/29/57 26/26/58
f 20/163/59 34/33/55 26/26/58 23/23/60
s 10
f 30/162/61 33/34/62 24/25/63 27/28/64
f 33/34/62 18/18/65 21/21/66 24/25/63
s 11
f 35/160/67 36/36/68 39/37/69 38/38/70
f 36/36/68 37/39/71 40/40/72 39/37/69
s 12
f 38/38/73 39/37/74 42/41/75 41/42/76
f 39/37/74 40/40/77 43/43/78 42/41/75
f 41/42/76 42/41/75 45/44/79 44/45/80
f 42/41/75 43/43/78 46/46/81 45/44/79
s 13
f 44/45/82 45/44/83 48/47/84 47/48/85
f 45/44/83 46/46/86 49/157/87 48/47/84
s 14
f 51/50/88 49/49/89 46/46/90 43/43/91
f 37/159/92 51/50/88 43/43/91 40/40/93
s 15
f 47/158/94 50/51/95 41/42/96 44/45/97
f 50/51/95 35/35/98 38/38/99 41/42/96
s 16
f 52/156/100 53/53/101 56/54/102 55/55/103
f 53/53/101 54/56/104 57/57/105 56/54/102
s 17
f 55/55/106 56/54/107 59/58/108 58/59/109
f 56/54/107 57/57/110 60/60/111 59/58/108
f 58/59/109 59/58/108 62/61/112 61/62/113
f 59/58/108 60/60/111 63/63/114 62/61/112
s 18
f 61/62/115 62/61/116 65/64/117 64/65/118
f 62/61/116 63/63/119 66/153/120 65/64/117
s 19
f 68/67/121 66/66/122 63/63/123 60/60/124
f 54/155/125 68/67/121 60/60/124 57/57/126
s 20
f 64/154/127 67/68/128 58/59/129 61/62/130
f 67/68/128 52/52/131 55/55/132 58/59/129
s 21
f 69/152/133 70/70/134 73/71/135 72/72/136
f 70/70/134 71/73/137 74/74/138 73/71/135
s 22
f 72/72/139 73/71/140 76/75/141 75/76/142
f 73/71/140 74/74/143 77/77/144 76/75/141
f 75/76/142 76/75/141 79/78/145 78/79/146
f 76/75/141 77/77/144 80/80/147 79/78/145
s 23
f 78/79/148 79/78/149 82/81/150 81/82/151
f 79/78/149 80/80/152 83/149/153 82/81/150
s 24
f 85/84/154 83/83/155 80/80/156 77/77/157
f 71/151/158 85/84/154 77/77/157 74/74/159
s 25
f 81/150/160 84/85/161 75/76/162 78/79/163
f 84/85/161 69/69/164 72/72/165 75/76/162
s 26
f 86/148/166 87/87/167 90/88/168 89/89/169
f 87/87/167 88/90/170 91/91/171 90/88/168
s 27
f 89/89/172 90/88/173 93/92/174 92/93/175
f 90/88/173 91/91/176 94/94/177 93/92/174
f 92/93/175 93/92/174 96/95/178 95/96/179
f 93/92/174 94/94/177 97/97/180 96/95/178
s 28
f 95/96/181 96/95/182 99/98/183 98/99/184
f 96/95/182 97/97/185 100/145/186 99/98/183
s 29
f 102/101/187 100/100/188 97/97/189 94/94/190
f 88/147/191 102/101/187 94/94/190 91/91/192
s 30
f 98/146/193 101/102/194 92/93/195 95/96/196
f 101/102/194 86/86/197 89/89/198 92/93/195
s 31
f 103/144/199 104/104/200 107/105/201 106/106/202
f 104/104/200 105/107/203 108/108/204 107/105/201
s 32
f 106/106/205 107/105/206 110/109/207 109/110/208
f 107/105/206 108/108/209 111/111/210 110/109/207
f 109/110/208 110/109/207 113/112/211 112/113/212
f 110/109/207 111/111/210 114/114/213 113/112/211
s 33
f 112/113/214 113/112/215 116/115/216 115/116/217
f 113/112/215 114/114/218 117/141/219 116/115/216
s 34
f 119/118/220 117/117/221 114/114/222 111/111/223
f 105/143/224 119/118/220 111/111/223 108/108/225
s 35
f 115/142/226 118/119/227 109/110/228 112/113/229
f 118/119/227 103/103/230 106/106/231 109/110/228
s 36
f 120/140/232 121/121/233 124/122/234 123/123/235
f 121/121/233 122/124/236 125/125/237 124/122/234
s 37
f 123/123/238 124/122/239 127/126/240 126/127/241
f 124/122/239 125/125/242 128/128/243 127/126/240
f 126/127/241 127/126/240 130/129/244 129/130/245
f 127/126/240 128/128/243 131/131/246 130/129/244
s 38
f 129/130/247 130/129/248 133/132/249 132/133/250
f 130/129/248 131/131/251 134/137/252 133/132/249
s 39
f 136/135/253 134/134/254 131/131/255 128/128/256
f 122/139/257 136/135/253 128/128/256 125/125/258
s 40
f 132/138/259 135/136/260 126/127/261 129/130/262
f 135/136/260 120/120/263 123/123/264 126/127/261
