# This file uses centimeters as units for non-parametric coordinates.

v -0.301887 -0.009396 0.340984
v 0.301886 -0.009396 0.142159
v -0.299941 -0.009396 -0.182145
v 0.301886 -0.009396 -0.369940
v -0.201185 0.380382 0.344568
v 0.201184 0.380382 0.113997
v 0.201184 0.380382 -0.229096
v -0.201185 0.380382 -0.162245
v 0.301886 -0.009396 -0.126620
v 0.201184 0.380382 -0.069215
v -0.201185 0.380382 0.073928
v -0.301887 -0.009396 0.082030
v 0.007533 -0.009396 -0.197519
v -0.003285 0.460426 -0.195125
v -0.003198 0.460601 0.008467
v -0.003285 0.429533 0.231165
v 0.057675 -0.009396 0.358427
v 0.276651 0.203243 0.135523
v 0.021896 0.241273 0.325513
v -0.277936 0.205220 0.346965
v -0.271751 0.204218 0.086846
v -0.276303 0.201969 -0.173943
v 0.001169 0.279647 -0.235949
v 0.274368 0.203566 -0.309896
v 0.271795 0.204568 -0.103960
vt 0.360952 0.052097
vt 0.386371 0.068758
vt 0.383795 0.089979
vt 0.355543 0.075651
vt 0.392463 0.000000
vt 0.435900 0.057768
vt 0.409881 0.064175
vt 0.374260 0.029012
vt 0.430569 0.111833
vt 0.405470 0.100135
vt 0.401964 0.151869
vt 0.328268 0.151889
vt 0.343533 0.117180
vt 0.389731 0.127237
vt 0.277887 0.046377
vt 0.308894 0.001322
vt 0.323863 0.022515
vt 0.303346 0.054410
vt 0.376810 0.107162
vt 0.350885 0.096819
vt 0.277657 0.100968
vt 0.301234 0.093179
vt 0.327641 0.063454
vt 0.323857 0.088842
vt 0.337740 0.037775
vn 0.194929 0.818202 0.540877
vn 0.660409 0.649056 0.377605
vn 0.681319 0.731815 0.015836
vn -0.020758 0.999123 0.036358
vn 0.357134 0.112342 0.927273
vn 0.867221 0.154211 0.473442
vn 0.844434 0.251595 0.472896
vn 0.354945 0.195290 0.914262
vn 0.991403 0.130830 -0.001861
vn 0.971381 0.237515 -0.002353
vn 0.230515 0.100563 -0.967858
vn -0.265464 -0.021031 -0.963891
vn -0.232624 0.094780 -0.967937
vn 0.323898 0.211329 -0.922188
vn -0.992087 0.125500 -0.003715
vn -0.622529 0.124328 0.772658
vn -0.612829 0.247168 0.750566
vn -0.968527 0.248884 -0.003533
vn 0.453759 0.677517 -0.578855
vn -0.111084 0.830709 -0.545512
vn -0.684945 0.034073 -0.727798
vn -0.714344 0.147439 -0.684086
vn -0.682792 0.730374 0.018655
vn -0.636255 0.614082 -0.466994
vn -0.420593 0.671063 0.610554
s 1
f 16/1/1 6/2/2 10/3/3 15/4/4
f 17/5/5 2/6/6 18/7/7 19/8/8
f 2/6/6 9/9/9 25/10/10 18/7/7
f 4/11/11 13/12/12 23/13/13 24/14/14
f 12/15/15 1/16/16 20/17/17 21/18/18
f 9/9/9 4/11/11 24/14/14 25/10/10
f 15/4/4 10/3/3 7/19/19 14/20/20
f 3/21/21 12/15/15 21/18/18 22/22/22
f 23/13/13 13/12/12 3/21/21 22/22/22
f 11/23/23 15/4/4 14/20/20 8/24/24
f 5/25/25 16/1/1 15/4/4 11/23/23
f 1/16/16 17/5/5 19/8/8 20/17/17
f 19/8/8 18/7/7 6/2/2 16/1/1
f 20/17/17 19/8/8 16/1/1 5/25/25
f 21/18/18 20/17/17 5/25/25 11/23/23
f 22/22/22 21/18/18 11/23/23 8/24/24
f 14/20/20 23/13/13 22/22/22 8/24/24
f 24/14/14 23/13/13 14/20/20 7/19/19
f 25/10/10 24/14/14 7/19/19 10/3/3
f 18/7/7 25/10/10 10/3/3 6/2/2
