# This file uses centimeters as units for non-parametric coordinates.

v -0.528928 -0.006689 0.220180
v -0.183654 -0.006689 0.411526
v 0.181430 -0.006689 0.411526
v -0.548736 -0.006689 -0.424552
v -0.183654 -0.006689 -0.424552
v 0.181430 -0.006689 -0.424552
v -0.395534 0.589972 0.090677
v -0.151150 0.745322 0.234910
v -0.151150 0.745322 -0.354028
v -0.373114 0.521676 -0.268476
v 0.143076 0.745322 0.234910
v 0.143076 0.745322 -0.354028
v 0.368868 0.607254 0.229245
v 0.341023 0.519083 -0.335854
v 0.437301 0.669259 -0.079587
v 0.143076 0.855371 -0.079587
v -0.151150 0.855371 -0.079587
v -0.445374 0.548241 -0.079587
v -0.548736 -0.006689 -0.084017
v -0.324366 -0.006689 0.306220
v -0.264552 0.548241 0.234910
v -0.244491 0.643059 -0.099096
v -0.264552 0.548241 -0.354028
v -0.324366 -0.006689 -0.424552
v -0.151150 0.469316 0.293522
v -0.267045 0.359395 0.276421
v -0.467321 0.387656 0.171859
v -0.483796 0.353044 -0.075856
v -0.432863 0.330997 -0.328144
v -0.267713 0.356240 -0.394194
v -0.147732 0.475024 -0.415908
v 0.130004 0.356054 -0.405201
v 0.427586 0.319447 -0.376169
v 0.454756 0.265043 -0.078850
v 0.388394 0.368921 0.212698
v 0.143076 0.469316 0.293522
v -0.020463 -0.006689 0.448174
v -0.023095 0.495984 0.303666
v -0.027947 0.780698 0.235455
v -0.030237 0.892238 -0.077451
v -0.022961 0.786550 -0.355566
v -0.030325 0.443010 -0.416960
v -0.028054 0.000259 -0.459686
v 0.546514 -0.006689 0.164817
v 0.546514 -0.006689 -0.084017
v 0.548735 -0.006900 -0.337866
vt 0.783063 0.444731
vt 0.792664 0.419031
vt 0.799984 0.467458
vt 0.778503 0.469367
vt 0.813367 0.424606
vt 0.827279 0.423108
vt 0.834909 0.456199
vt 0.822274 0.459397
vt 0.845434 0.417294
vt 0.871775 0.410423
vt 0.887846 0.445273
vt 0.852877 0.452668
vt 0.715450 0.415767
vt 0.742664 0.372799
vt 0.780518 0.399637
vt 0.761674 0.432008
vt 0.790806 0.568705
vt 0.746163 0.549194
vt 0.778430 0.514987
vt 0.807665 0.525652
vt 0.713975 0.483604
vt 0.758277 0.474244
vt 0.774894 0.346421
vt 0.808898 0.331584
vt 0.821629 0.394091
vt 0.802143 0.399252
vt 0.858590 0.571672
vt 0.822738 0.574400
vt 0.828514 0.515160
vt 0.847731 0.519326
vt 0.854583 0.329678
vt 0.941568 0.375781
vt 0.891613 0.394707
vt 0.847032 0.388198
vt 0.962016 0.430044
vt 0.927088 0.435431
vt 0.961954 0.488616
vt 0.906140 0.554698
vt 0.875660 0.520022
vt 0.915892 0.488163
vt 0.893915 0.482773
vt 0.861498 0.483374
vt 0.842016 0.485085
vt 0.827334 0.489386
vt 0.810221 0.502729
vt 0.792199 0.495972
vn -0.607777 0.724666 0.324755
vn -0.648648 0.475857 0.593983
vn -0.770483 0.636543 -0.034200
vn -0.784625 0.614126 -0.084928
vn -0.651443 0.579744 0.489407
vn 0.000088 0.733151 0.680065
vn -0.000096 0.999958 0.009212
vn -0.689780 0.724007 0.004181
vn 0.353523 0.693535 0.627718
vn 0.723396 0.407080 0.557660
vn 0.842526 0.537299 -0.038211
vn 0.447123 0.893431 -0.043138
vn -0.841776 0.189037 0.505647
vn -0.442590 0.173944 0.879692
vn -0.456953 0.207884 0.864857
vn -0.831207 0.239301 0.501827
vn -0.151468 0.156862 -0.975936
vn -0.801280 0.298353 -0.518590
vn -0.789249 0.298808 -0.536469
vn -0.222701 0.162552 -0.961239
vn -0.975871 0.217356 -0.020786
vn -0.971462 0.233764 -0.040205
vn -0.317587 0.237705 0.917951
vn 0.001100 0.264416 0.964408
vn 0.000936 0.247720 0.968831
vn -0.251811 0.232747 0.939372
vn 0.021073 0.074360 -0.997009
vn -0.117691 0.058722 -0.991313
vn -0.154804 0.133536 -0.978879
vn 0.022361 0.114437 -0.993179
vn 0.356056 0.217857 0.908715
vn 0.791576 0.300246 0.532222
vn 0.741098 0.180988 0.646543
vn 0.270449 0.195735 0.942627
vn 0.938051 0.345995 0.018653
vn 0.967049 0.254501 0.006711
vn 0.740646 0.234656 -0.629587
vn 0.163460 0.040455 -0.985720
vn 0.156804 0.093884 -0.983157
vn 0.638267 0.173085 -0.750104
vn 0.652584 0.364858 -0.664088
vn 0.376596 0.581869 -0.720835
vn 0.031739 0.653381 -0.756364
vn -0.587998 0.567320 -0.576547
vn -0.634542 0.467199 -0.615696
vn -0.686607 0.569662 -0.451726
s 1
f 7/1/1 21/2/2 22/3/3 18/4/4
f 8/5/5 39/6/6 40/7/7 17/8/8
f 11/9/9 13/10/10 15/11/11 16/12/12
f 1/13/13 20/14/14 26/15/15 27/16/16
f 24/17/17 4/18/18 29/19/19 30/20/20
f 19/21/21 1/13/13 27/16/16 28/22/22
f 2/23/23 37/24/24 38/25/25 25/26/26
f 43/27/27 5/28/28 31/29/29 42/30/30
f 3/31/31 44/32/32 35/33/33 36/34/34
f 44/32/32 45/35/35 34/36/36 35/33/33
f 46/37/37 6/38/38 32/39/39 33/40/40
f 34/36/36 45/35/35 46/37/37 33/40/40
f 16/12/12 15/11/11 14/41/41 12/42/42
f 17/8/8 40/7/7 41/43/43 9/44/44
f 18/4/4 22/3/3 23/45/45 10/46/46
f 4/18/18 19/21/21 28/22/22 29/19/19
f 20/14/14 2/23/23 25/26/26 26/15/15
f 22/3/3 21/2/2 8/5/5 17/8/8
f 23/45/45 22/3/3 17/8/8 9/44/44
f 5/28/28 24/17/17 30/20/20 31/29/29
f 26/15/15 25/26/26 8/5/5 21/2/2
f 27/16/16 26/15/15 21/2/2 7/1/1
f 28/22/22 27/16/16 7/1/1 18/4/4
f 29/19/19 28/22/22 18/4/4 10/46/46
f 30/20/20 29/19/19 10/46/46 23/45/45
f 31/29/29 30/20/20 23/45/45 9/44/44
f 42/30/30 31/29/29 9/44/44 41/43/43
f 33/40/40 32/39/39 12/42/42 14/41/41
f 15/11/11 34/36/36 33/40/40 14/41/41
f 35/33/33 34/36/36 15/11/11 13/10/10
f 36/34/34 35/33/33 13/10/10 11/9/9
f 25/26/26 38/25/25 39/6/6 8/5/5
f 37/24/24 3/31/31 36/34/34 38/25/25
f 39/6/6 38/25/25 36/34/34 11/9/9
f 40/7/7 39/6/6 11/9/9 16/12/12
f 41/43/43 40/7/7 16/12/12 12/42/42
f 32/39/39 42/30/30 41/43/43 12/42/42
f 6/38/38 43/27/27 42/30/30 32/39/39
