# This file uses centimeters as units for non-parametric coordinates.

v -0.368096 0.003109 0.013094
v -0.159429 0.003109 -0.398760
v -0.099705 0.557036 0.248566
v 0.270797 0.738129 0.234820
v 0.335071 0.797978 0.006297
v -0.086822 0.546647 0.010071
v 0.270797 0.637961 -0.234977
v 0.021702 0.543947 -0.204126
v 0.319205 0.785060 -0.125725
v -0.012548 0.545781 -0.103578
v -0.225285 0.003109 -0.205427
v 0.127995 0.824259 0.216675
v 0.152924 0.882228 0.096726
v 0.152924 0.837548 -0.114970
v 0.136649 0.656013 -0.232778
v 0.081011 0.003109 -0.448916
v -0.410405 0.010132 0.235127
v -0.099705 0.564781 0.147799
v 0.099399 0.870391 0.176534
v 0.310372 0.773449 0.136485
v 0.359264 0.004776 0.237211
v -0.071953 0.272894 -0.303671
v 0.109688 0.342261 -0.352693
v 0.304538 0.324736 -0.384909
v 0.375242 0.320587 -0.158690
v 0.410404 0.323735 -0.015800
v 0.375987 0.301725 0.141299
v 0.336499 0.383062 0.390007
v 0.051144 0.304031 0.344317
v -0.232282 0.276987 0.344182
v -0.253793 0.296917 0.163885
v -0.230693 0.284851 0.000282
v -0.123847 0.281967 -0.142889
v -0.392868 0.003109 0.471668
v -0.016928 0.003109 0.534523
v 0.319526 0.003109 0.471668
v 0.410404 0.014244 -0.015801
v 0.367934 0.003109 -0.248012
v 0.296040 0.003109 -0.443754
vt 0.079134 0.787405
vt 0.108687 0.796701
vt 0.111626 0.805315
vt 0.070867 0.805962
vt 0.105969 0.825118
vt 0.076467 0.824471
vt 0.039642 0.706849
vt 0.115466 0.697372
vt 0.114903 0.743858
vt 0.066393 0.746235
vt 0.209082 0.780839
vt 0.206320 0.845288
vt 0.169617 0.832425
vt 0.176373 0.807138
vt 0.000000 0.792194
vt 0.013451 0.746120
vt 0.048984 0.773934
vt 0.041061 0.802604
vt 0.173268 0.892359
vt 0.157608 0.853284
vt 0.080441 0.913675
vt 0.032167 0.888479
vt 0.059630 0.861139
vt 0.091467 0.869825
vt 0.009690 0.848936
vt 0.047686 0.833713
vt 0.129111 0.913671
vt 0.124765 0.875710
vt 0.100288 0.841264
vt 0.082499 0.838695
vt 0.182178 0.732087
vt 0.155558 0.770081
vt 0.131091 0.803018
vt 0.126925 0.817280
vt 0.122156 0.831039
vt 0.118716 0.845558
vt 0.086429 0.774617
vt 0.112049 0.791791
vt 0.130989 0.791062
vn -0.842573 0.537655 -0.031596
vn -0.610595 0.790873 0.041140
vn -0.411358 0.900944 -0.138149
vn -0.805725 0.506724 -0.306656
vn -0.441585 0.778316 -0.446349
vn -0.798690 0.478921 -0.364320
vn -0.457697 0.599468 0.656621
vn -0.067100 0.452443 0.889265
vn -0.084268 0.372828 0.924066
vn -0.439702 0.551139 0.709159
vn 0.984358 -0.002655 0.176161
vn 0.999920 0.011572 0.005143
vn 0.996246 0.085615 0.012768
vn 0.978348 0.070530 0.194576
vn -0.845191 0.412565 -0.339768
vn -0.871964 0.489566 -0.001861
vn -0.876576 0.480064 -0.033962
vn -0.829286 0.426014 -0.361660
vn 0.959889 0.038690 -0.277697
vn 0.954773 0.103239 -0.278838
vn -0.165157 0.286643 -0.943694
vn -0.594880 0.395627 -0.699713
vn -0.611904 0.403868 -0.680047
vn -0.201168 0.340097 -0.918622
vn -0.820302 0.381760 -0.425869
vn -0.811363 0.395042 -0.430850
vn 0.522049 0.183177 -0.833013
vn 0.557386 0.245224 -0.793213
vn -0.307525 0.487532 -0.817154
vn -0.672140 0.436757 -0.597890
vn 0.479531 0.296054 0.826076
vn 0.517399 0.302926 0.800334
vn 0.912043 0.317261 0.259852
vn 0.903581 0.428363 0.006851
vn 0.785319 0.464310 -0.409500
vn 0.565820 0.369825 -0.736938
vn -0.397088 0.418548 0.816786
vn -0.186128 0.477546 0.858665
vn 0.442978 0.379891 0.812067
s 1
f 18/1/1 19/2/2 13/3/3 6/4/4
f 6/4/4 13/3/3 14/5/5 10/6/6
f 34/7/7 35/8/8 29/9/9 30/10/10
f 21/11/11 37/12/12 26/13/13 27/14/14
f 1/15/15 17/16/16 31/17/17 32/18/18
f 37/12/12 38/19/19 25/20/20 26/13/13
f 16/21/21 2/22/22 22/23/23 23/24/24
f 11/25/25 1/15/15 32/18/18 33/26/26
f 25/20/20 38/19/19 39/27/27 24/28/28
f 10/6/6 14/5/5 15/29/29 8/30/30
f 2/22/22 11/25/25 33/26/26 22/23/23
f 29/9/9 35/8/8 36/31/31 28/32/32
f 13/3/3 19/2/2 20/33/33 5/34/34
f 14/5/5 13/3/3 5/34/34 9/35/35
f 15/29/29 14/5/5 9/35/35 7/36/36
f 39/27/27 16/21/21 23/24/24 24/28/28
f 17/16/16 34/7/7 30/10/10 31/17/17
f 3/37/37 12/38/38 19/2/2 18/1/1
f 20/33/33 19/2/2 12/38/38 4/39/39
f 36/31/31 21/11/11 27/14/14 28/32/32
f 23/24/24 22/23/23 8/30/30 15/29/29
f 24/28/28 23/24/24 15/29/29 7/36/36
f 9/35/35 25/20/20 24/28/28 7/36/36
f 26/13/13 25/20/20 9/35/35 5/34/34
f 27/14/14 26/13/13 5/34/34 20/33/33
f 28/32/32 27/14/14 20/33/33 4/39/39
f 12/38/38 29/9/9 28/32/32 4/39/39
f 30/10/10 29/9/9 12/38/38 3/37/37
f 31/17/17 30/10/10 3/37/37 18/1/1
f 32/18/18 31/17/17 18/1/1 6/4/4
f 33/26/26 32/18/18 6/4/4 10/6/6
f 22/23/23 33/26/26 10/6/6 8/30/30
