# This file uses centimeters as units for non-parametric coordinates.

v 4.089559 -0.122171 2.213714
v 4.576322 -0.112076 2.442285
v 5.205742 -0.096717 2.345452
v 4.308032 4.393022 1.493026
v 4.754019 4.350380 1.495970
v 5.170566 4.082240 1.447793
v 4.265724 4.237532 1.068849
v 4.722350 4.854807 0.855114
v 5.207068 4.027925 1.093934
v 4.313943 3.928668 0.720961
v 4.758914 3.939167 0.660942
v 5.207598 3.879811 0.666269
v 3.847928 -0.116018 1.043141
v 4.577312 -0.098697 0.983275
v 5.306654 -0.081932 0.983924
v 3.800659 -0.123228 1.712090
v 5.306159 -0.088621 1.713429
v 4.237343 2.891168 1.894916
v 4.135405 2.758153 1.349605
v 4.104428 2.521164 0.874038
v 4.662442 2.431155 0.778719
v 5.175986 2.298811 0.791275
v 5.272393 2.431456 1.299512
v 5.279115 2.500720 1.767841
v 4.786550 2.770558 1.865308
v 3.927134 0.699505 2.316858
v 3.860934 0.580079 1.681351
v 3.951894 0.423540 0.964179
v 4.592757 0.380519 0.977503
v 5.297904 0.318574 0.970067
v 5.316561 0.439692 1.668665
v 5.287642 0.536063 2.271576
v 4.632652 0.640043 2.371983
vt 0.175473 0.004471
vt 0.251876 0.001856
vt 0.261484 0.096182
vt 0.176342 0.105850
vt 0.340319 0.008405
vt 0.343609 0.089171
vt 0.198962 0.581982
vt 0.263484 0.677737
vt 0.141072 0.576697
vt 0.255451 0.576074
vt 0.312641 0.549178
vt 0.132654 0.678155
vt 0.469999 0.572787
vt 0.358181 0.555552
vt 0.390587 0.616895
vt 0.670817 0.157383
vt 0.592968 0.133078
vt 0.609112 0.074237
vt 0.700090 0.093146
vt 0.508032 0.104154
vt 0.518640 0.054181
vt 0.094476 0.012143
vt 0.426809 0.027771
vt 0.419113 0.096130
vt 0.097892 0.102028
vt 0.123953 0.384663
vt 0.197160 0.384331
vt 0.591154 0.413383
vt 0.523177 0.386939
vt 0.463173 0.355918
vt 0.395140 0.353669
vt 0.335592 0.345442
vt 0.268679 0.373621
vt 0.005017 0.100980
vt 0.057584 0.369763
vt 0.086911 0.551359
vt 0.526025 0.583070
vt 0.345278 0.581513
vt 0.171396 0.633045
vt 0.382672 0.673988
vt 0.415916 0.553478
vt 0.381923 0.731056
vt 0.007639 0.028333
vn -0.654132 -0.063987 0.753669
vn -0.054438 0.020960 0.998297
vn 0.077762 0.169628 0.982435
vn -0.657078 0.165751 0.735374
vn 0.607192 0.031879 0.793916
vn 0.727056 0.123930 0.675300
vn -0.611513 0.342027 0.713491
vn 0.091258 0.921254 -0.378104
vn -0.981046 0.190592 -0.034975
vn 0.193549 0.365459 0.910483
vn 0.714797 0.251803 0.652426
vn -0.714144 0.064921 -0.696982
vn -0.069604 -0.010780 -0.997517
vn 0.989016 0.139487 -0.048885
vn 0.702520 0.025205 -0.711217
vn -0.700326 0.020851 -0.713518
vn -0.038101 -0.074014 -0.996529
vn -0.021708 -0.053022 -0.998357
vn -0.809775 0.057728 -0.583895
vn 0.694653 -0.036593 -0.718414
vn 0.728874 -0.016921 -0.684438
vn 0.997759 -0.038667 0.054600
vn 0.999722 0.008817 -0.021879
vn -0.994158 0.018500 0.106336
vn -0.994793 0.093835 0.039763
vn -0.993005 0.115831 0.022881
vn -0.617228 0.237964 0.749935
vn -0.749641 0.022754 -0.661453
vn -0.056362 -0.077466 -0.995401
vn 0.656243 -0.048972 -0.752959
vn 0.998716 0.024203 -0.044504
vn 0.744145 0.168487 0.646421
vn 0.135426 0.221388 0.965737
s 1
f 1/1/1 2/2/2 33/3/3 26/4/4
f 2/2/2 3/5/5 32/6/6 33/3/3
f 4/7/7 8/8/8 7/39/9
f 5/10/10 6/11/11 8/8/8
f 10/42/12 8/8/8 11/40/13
f 8/8/8 9/38/14 12/15/15
f 28/16/16 29/17/17 14/18/18 13/19/19
f 29/17/17 30/20/20 15/21/21 14/18/18
f 17/23/22 15/21/21 30/20/20 31/24/23
f 3/5/5 17/23/22 31/24/23 32/6/6
f 13/43/19 16/22/24 27/25/25 28/34/16
f 16/22/24 1/1/1 26/4/4 27/25/25
f 7/39/9 8/8/8 10/12/12
f 4/7/7 5/10/10 8/8/8
f 8/8/8 6/11/11 9/38/14
f 8/8/8 12/15/15 11/40/13
f 19/26/26 18/27/27 4/7/7 7/9/9
f 20/35/28 19/26/26 7/9/9 10/36/12
f 10/37/12 11/13/13 21/29/29 20/28/28
f 11/13/13 12/41/15 22/30/30 21/29/29
f 23/31/31 22/30/30 12/41/15 9/14/14
f 24/32/32 23/31/31 9/14/14 6/11/11
f 25/33/33 24/32/32 6/11/11 5/10/10
f 18/27/27 25/33/33 5/10/10 4/7/7
f 27/25/25 26/4/4 18/27/27 19/26/26
f 28/34/16 27/25/25 19/26/26 20/35/28
f 20/28/28 21/29/29 29/17/17 28/16/16
f 21/29/29 22/30/30 30/20/20 29/17/17
f 31/24/23 30/20/20 22/30/30 23/31/31
f 32/6/6 31/24/23 23/31/31 24/32/32
f 33/3/3 32/6/6 24/32/32 25/33/33
f 26/4/4 33/3/3 25/33/33 18/27/27
v 5.355336 -0.028096 1.631045
v 5.939947 0.038157 1.653541
v 6.398608 -0.037734 1.352044
v 5.540320 1.622534 1.210319
v 5.877904 1.490236 1.071561
v 6.164504 1.343372 0.876147
v 5.371215 1.559021 0.918458
v 5.770460 1.584386 0.595394
v 6.121258 1.351183 0.587686
v 5.294600 1.431960 0.645212
v 5.606499 1.375310 0.458434
v 5.934817 1.300349 0.341148
v 4.980172 -0.004187 0.731278
v 5.307753 0.031311 0.482518
v 6.015758 -0.056107 0.265642
v 5.012238 0.004563 1.310339
v 6.249211 -0.052684 0.785453
v 5.614029 1.119869 1.600154
v 5.312405 1.083153 1.212360
v 5.143063 0.966170 0.770449
v 5.477426 0.900975 0.527064
v 5.963629 0.789850 0.331944
v 6.247380 0.817518 0.717205
v 6.410796 0.844270 1.116747
v 6.031019 1.004407 1.423645
v 5.502607 0.537274 1.872699
v 5.162788 0.499439 1.363974
v 4.984697 0.391355 0.710887
v 5.419125 0.331318 0.523566
v 6.088454 0.219676 0.250366
v 6.366551 0.264665 0.825199
v 6.568765 0.306422 1.353608
v 6.071324 0.426931 1.680267
vt 0.780211 0.299884
vt 0.801998 0.341792
vt 0.762619 0.406929
vt 0.724617 0.383633
vt 0.839495 0.375182
vt 0.797760 0.430202
vt 0.595538 0.570890
vt 0.609870 0.618575
vt 0.571929 0.549957
vt 0.622181 0.585123
vt 0.654215 0.594479
vt 0.578188 0.636800
vt 0.713002 0.654800
vt 0.672402 0.611260
vt 0.640226 0.650775
vt 0.913099 0.578379
vt 0.890393 0.541187
vt 0.941056 0.509809
vt 0.990493 0.535533
vt 0.867025 0.499847
vt 0.911022 0.468671
vt 0.741758 0.274100
vt 0.875525 0.418652
vt 0.830019 0.461388
vt 0.685730 0.354348
vt 0.623762 0.457529
vt 0.661367 0.479637
vt 0.817440 0.640337
vt 0.798938 0.604044
vt 0.785485 0.569124
vt 0.756357 0.539597
vt 0.733484 0.511422
vt 0.695701 0.499551
vt 0.640857 0.319897
vt 0.695902 0.247341
vt 0.592983 0.429902
vt 0.648933 0.619840
vt 0.698741 0.628502
vt 0.583348 0.602314
vt 0.555077 0.521528
vt 0.730448 0.678679
vt 0.608897 0.646913
vn -0.493928 -0.103458 0.863326
vn 0.258432 -0.285615 0.922842
vn 0.450406 0.108188 0.886245
vn -0.285244 0.183609 0.940704
vn 0.824464 -0.363620 0.433635
vn 0.937712 0.043888 0.344631
vn -0.184456 0.773846 0.605920
vn 0.151633 0.955216 -0.254106
vn -0.770408 0.585795 0.251626
vn 0.528521 0.693610 0.489460
vn 0.820103 0.542320 0.182539
vn -0.890213 0.325035 -0.319175
vn -0.421546 0.138148 -0.896222
vn 0.829249 0.343791 -0.440629
vn 0.274184 0.129939 -0.952858
vn -0.933710 0.217877 -0.284105
vn -0.400951 0.102722 -0.910322
vn -0.407297 0.124898 -0.904715
vn -0.979462 0.171713 -0.105678
vn 0.318938 0.060940 -0.945814
vn 0.299560 -0.054364 -0.952527
vn 0.887452 -0.321315 -0.330431
vn 0.912262 -0.040119 -0.407638
vn -0.900472 0.102120 0.422755
vn -0.883325 0.223608 0.411991
vn -0.860987 0.326214 0.390237
vn -0.185448 0.538886 0.821712
vn -0.931101 0.240561 -0.274192
vn -0.431889 0.044680 -0.900819
vn 0.249898 0.094440 -0.963656
vn 0.881651 0.146766 -0.448499
vn 0.892397 0.384266 0.236573
vn 0.535586 0.477672 0.696403
s 1
f 34/44/34 35/45/35 66/46/36 59/47/37
f 35/45/35 36/48/38 65/49/39 66/46/36
f 37/50/40 41/51/41 40/82/42
f 38/53/43 39/54/44 41/51/41
f 43/55/45 41/51/41 44/85/46
f 41/51/41 42/80/47 45/58/48
f 61/59/49 62/60/50 47/61/51 46/62/52
f 62/60/50 63/63/53 48/64/54 47/61/51
f 50/66/55 48/64/54 63/63/53 64/67/56
f 36/48/38 50/66/55 64/67/56 65/49/39
f 46/78/52 49/65/57 60/68/58 61/77/49
f 49/65/57 34/44/34 59/47/37 60/68/58
f 40/82/42 41/51/41 43/55/45
f 37/50/40 38/53/43 41/51/41
f 41/51/41 39/54/44 42/80/47
f 41/51/41 45/58/48 44/85/46
f 52/69/59 51/70/60 37/50/40 40/52/42
f 53/79/61 52/69/59 40/52/42 43/83/45
f 43/84/45 44/56/46 54/72/62 53/71/61
f 44/56/46 45/81/48 55/73/63 54/72/62
f 56/74/64 55/73/63 45/81/48 42/57/47
f 57/75/65 56/74/64 42/57/47 39/54/44
f 58/76/66 57/75/65 39/54/44 38/53/43
f 51/70/60 58/76/66 38/53/43 37/50/40
f 60/68/58 59/47/37 51/70/60 52/69/59
f 61/77/49 60/68/58 52/69/59 53/79/61
f 53/71/61 54/72/62 62/60/50 61/59/49
f 54/72/62 55/73/63 63/63/53 62/60/50
f 64/67/56 63/63/53 55/73/63 56/74/64
f 65/49/39 64/67/56 56/74/64 57/75/65
f 66/46/36 65/49/39 57/75/65 58/76/66
f 59/47/37 66/46/36 58/76/66 51/70/60
v 3.124321 -0.153581 1.620880
v 3.406235 -0.147231 1.885154
v 3.843612 -0.043856 1.899497
v 2.855586 1.925401 0.724273
v 3.136695 2.041117 0.797825
v 3.447140 1.967774 0.852925
v 2.916354 1.784462 0.477444
v 3.235843 1.917268 0.371386
v 3.547375 1.886371 0.620925
v 3.059059 1.624489 0.241892
v 3.355825 1.693579 0.265899
v 3.650639 1.739383 0.342102
v 3.201610 -0.146272 0.596445
v 3.705383 -0.105373 0.672394
v 4.191762 -0.054865 0.778700
v 3.033627 -0.211779 1.152703
v 4.172963 -0.091293 1.387320
v 2.853829 1.256419 1.311118
v 2.920391 1.102354 0.842914
v 3.036132 0.916512 0.446277
v 3.456041 0.957307 0.456682
v 3.828031 0.982135 0.550956
v 3.765702 1.130398 0.987367
v 3.659138 1.225485 1.377671
v 3.257903 1.288264 1.375597
v 2.866589 0.363370 1.665260
v 2.976990 0.211625 1.127556
v 3.214910 0.057601 0.546325
v 3.644518 0.146906 0.655507
v 4.124093 0.234948 0.757511
v 3.968200 0.387315 1.340602
v 3.804888 0.506949 1.837169
v 3.332544 0.460566 1.819457
vt 0.511591 0.982764
vt 0.463853 0.988295
vt 0.474004 0.905455
vt 0.523624 0.909947
vt 0.411369 0.972636
vt 0.426672 0.897800
vt 0.571476 0.662397
vt 0.535831 0.619543
vt 0.605195 0.674353
vt 0.537733 0.659251
vt 0.500619 0.663594
vt 0.560419 0.586976
vt 0.668035 0.693187
vt 0.474969 0.654127
vt 0.490554 0.599671
vt 0.638605 0.929618
vt 0.687416 0.927605
vt 0.690100 0.964013
vt 0.633577 0.959990
vt 0.321374 0.859938
vt 0.301947 0.899124
vt 0.568491 0.980636
vt 0.349182 0.947754
vt 0.378111 0.881552
vt 0.576003 0.921422
vt 0.589341 0.789477
vt 0.541552 0.783983
vt 0.632114 0.803588
vt 0.676910 0.804704
vt 0.375304 0.748251
vt 0.418178 0.765808
vt 0.453958 0.784597
vt 0.497770 0.779428
vt 0.495069 0.635237
vt 0.701573 0.693301
vt 0.570204 0.624690
vt 0.634915 0.697358
vt 0.524443 0.589991
vt 0.741231 0.926991
vt 0.744104 0.968755
vt 0.718260 0.810302
vt 0.440920 0.647222
vn -0.774433 -0.236658 0.586725
vn -0.251037 0.001204 0.967977
vn -0.197848 0.285943 0.937599
vn -0.871254 0.030869 0.489861
vn 0.495392 0.213619 0.841994
vn 0.543108 0.388158 0.744558
vn -0.802431 0.459097 0.381227
vn -0.029545 0.842577 -0.537765
vn -0.959802 0.002658 -0.280665
vn -0.132499 0.758360 0.638228
vn 0.471325 0.662218 0.582512
vn -0.579373 -0.162201 -0.798760
vn 0.165745 -0.139318 -0.976278
vn 0.884764 0.457792 0.087288
vn 0.860154 0.182635 -0.476213
vn -0.589089 -0.197568 -0.783544
vn 0.204904 -0.134278 -0.969528
vn 0.211970 -0.058356 -0.975532
vn -0.741010 -0.137240 -0.657319
vn 0.879159 0.214175 -0.425686
vn 0.914491 0.297199 -0.274554
vn 0.916168 0.291226 0.275361
vn 0.925587 0.321335 0.200082
vn -0.965276 -0.244504 -0.091978
vn -0.969458 -0.170767 -0.176039
vn -0.969354 -0.123452 -0.212398
vn -0.852443 0.261458 0.452748
vn -0.636970 -0.227837 -0.736451
vn 0.189251 -0.187744 -0.963813
vn 0.846067 0.124814 -0.518258
vn 0.930111 0.337182 0.145609
vn 0.557771 0.535568 0.634081
vn -0.135484 0.520938 0.842774
s 1
f 67/86/67 68/87/68 99/88/69 92/89/70
f 68/87/68 69/90/71 98/91/72 99/88/69
f 70/92/73 74/93/74 73/121/75
f 71/95/76 72/96/77 74/93/74
f 76/97/78 74/93/74 77/123/79
f 74/93/74 75/119/80 78/100/81
f 94/101/82 95/102/83 80/103/84 79/104/85
f 95/102/83 96/124/86 81/125/87 80/103/84
f 83/108/88 81/106/87 96/105/86 97/109/89
f 69/90/71 83/108/88 97/109/89 98/91/72
f 79/104/85 82/107/90 93/110/91 94/101/82
f 82/107/90 67/86/67 92/89/70 93/110/91
f 73/121/75 74/93/74 76/97/78
f 70/92/73 71/95/76 74/93/74
f 74/93/74 72/96/77 75/119/80
f 74/93/74 78/100/81 77/123/79
f 85/111/92 84/112/93 70/92/73 73/94/75
f 86/113/94 85/111/92 73/94/75 76/122/78
f 76/122/78 77/98/79 87/114/95 86/113/94
f 77/98/79 78/120/81 88/126/96 87/114/95
f 89/116/97 88/115/96 78/127/81 75/99/80
f 90/117/98 89/116/97 75/99/80 72/96/77
f 91/118/99 90/117/98 72/96/77 71/95/76
f 84/112/93 91/118/99 71/95/76 70/92/73
f 93/110/91 92/89/70 84/112/93 85/111/92
f 94/101/82 93/110/91 85/111/92 86/113/94
f 86/113/94 87/114/95 95/102/83 94/101/82
f 87/114/95 88/126/96 96/124/86 95/102/83
f 97/109/89 96/105/86 88/115/96 89/116/97
f 98/91/72 97/109/89 89/116/97 90/117/98
f 99/88/69 98/91/72 90/117/98 91/118/99
f 92/89/70 99/88/69 91/118/99 84/112/93
v 3.393943 -0.103677 2.536676
v 3.981942 -0.103677 2.389884
v 3.353518 -0.103677 2.051248
v 3.933982 -0.103677 1.855153
v 3.499096 0.303327 2.540419
v 3.876790 0.303327 2.360477
v 3.828830 0.303327 2.002221
v 3.456638 0.303327 2.072027
v 3.981942 -0.103677 2.109226
v 3.876790 0.303327 2.169168
v 3.456638 0.303327 2.318638
v 3.351486 -0.103677 2.327097
v 3.674580 -0.103677 2.006652
v 3.663284 0.386909 2.009152
v 3.663375 0.387091 2.250284
v 3.663284 0.354650 2.482823
v 3.726938 -0.103677 2.615709
v 3.955592 0.118360 2.382955
v 3.689578 0.158070 2.581341
v 3.418953 0.120425 2.542921
v 3.382953 0.119378 2.332127
v 3.378201 0.117029 2.059812
v 3.667935 0.198140 1.966523
v 3.905248 0.118697 1.917851
v 3.950521 0.119743 2.132887
vt 0.841369 0.231009
vt 0.867953 0.252234
vt 0.878659 0.273090
vt 0.832767 0.255948
vt 0.882472 0.189243
vt 0.913177 0.224660
vt 0.890257 0.239767
vt 0.858078 0.211871
vt 0.929110 0.254980
vt 0.903170 0.265494
vt 0.941883 0.283347
vt 0.735690 0.143371
vt 0.736654 0.181373
vt 0.913657 0.289389
vt 0.815336 0.152464
vt 0.840262 0.162331
vt 0.829861 0.188036
vt 0.807075 0.179321
vt 0.886168 0.292917
vt 0.739507 0.205068
vt 0.782422 0.143192
vt 0.777488 0.169679
vt 0.807319 0.235682
vt 0.769731 0.193846
vt 0.824820 0.212812
vt 0.702522 0.172473
vt 0.847517 0.291475
vt 0.715144 0.196696
vt 0.823119 0.282499
vt 0.798420 0.203050
vt 0.796381 0.263586
vt 0.860267 0.274481
vt 0.694794 0.144738
vn 0.175363 0.801860 0.571199
vn 0.660409 0.649056 0.377605
vn 0.699383 0.712865 -0.051840
vn -0.016645 0.999310 0.033202
vn 0.297478 0.116995 0.947533
vn 0.867221 0.154211 0.473442
vn 0.844435 0.251595 0.472896
vn 0.280010 0.210408 0.936655
vn 0.983587 0.149091 -0.101626
vn 0.960680 0.257851 -0.102988
vn 0.338813 0.127271 -0.932206
vn -0.286753 -0.021332 -0.957767
vn -0.250024 0.101408 -0.962915
vn 0.406898 0.235406 -0.882620
vn -0.989127 0.123015 0.080593
vn -0.626882 0.095853 0.773195
vn -0.622341 0.206801 0.754934
vn -0.965816 0.245474 0.083316
vn 0.495647 0.690178 -0.527245
vn -0.119117 0.838066 -0.532406
vn -0.718181 0.034625 -0.694994
vn -0.745126 0.145891 -0.650771
vn -0.698280 0.712418 0.069753
vn -0.657404 0.621128 -0.426639
vn -0.457980 0.647369 0.609235
s 1
f 115/128/100 105/129/101 109/159/102 114/131/103
f 116/132/104 101/133/105 117/134/106 118/135/107
f 101/133/105 108/136/108 124/137/109 117/134/106
f 103/160/110 112/139/111 122/140/112 123/153/113
f 111/142/114 100/143/115 119/144/116 120/145/117
f 108/136/108 103/138/110 123/141/113 124/137/109
f 114/131/103 109/159/102 106/154/118 113/156/119
f 102/148/120 111/142/114 120/145/117 121/149/121
f 122/140/112 112/139/111 102/148/120 121/149/121
f 110/150/122 114/131/103 113/156/119 107/158/123
f 104/152/124 115/128/100 114/131/103 110/150/122
f 100/143/115 116/132/104 118/135/107 119/144/116
f 118/135/107 117/134/106 105/129/101 115/128/100
f 119/144/116 118/135/107 115/128/100 104/152/124
f 120/145/117 119/144/116 104/152/124 110/157/122
f 121/149/121 120/145/117 110/157/122 107/151/123
f 113/147/119 122/140/112 121/149/121 107/151/123
f 123/153/113 122/140/112 113/147/119 106/155/118
f 124/137/109 123/141/113 106/146/118 109/130/102
f 117/134/106 124/137/109 109/130/102 105/129/101
v 6.036890 0.427399 2.346294
v 5.908186 0.414676 2.582723
v 6.208444 0.416405 2.217202
v 5.630216 -0.096934 2.541049
v 5.668124 0.228870 2.536384
v 5.849567 0.552765 2.211509
v 5.698955 0.388953 2.548028
v 6.113085 0.485537 2.002974
v 5.480118 0.354642 1.854054
v 5.318119 -0.096934 1.774708
v 5.241732 -0.096934 2.437406
v 5.439052 0.230174 2.386899
v 5.593436 0.558716 1.989420
v 5.473563 0.389913 2.336310
v 5.767390 -0.096934 1.615335
v 5.853240 0.351991 1.823849
v 5.915652 0.515789 1.882319
v 6.120065 0.350721 2.004529
v 6.111456 -0.096934 1.789835
v 6.017919 0.139265 2.414720
v 6.102016 -0.096934 2.392747
v 5.910395 0.126066 2.608835
v 5.905711 -0.096934 2.553444
v 6.229447 0.188873 2.271880
v 6.283597 -0.096934 2.263033
vt 0.120463 0.621154
vt 0.075968 0.578599
vt 0.037280 0.884914
vt 0.083517 0.867961
vt 0.183221 0.758046
vt 0.168724 0.807470
vt 0.101821 0.665076
vt 0.047368 0.631540
vt 0.120040 0.679891
vt 0.105370 0.798988
vt 0.107236 0.763677
vt 0.140699 0.761560
vt 0.129426 0.810426
vt 0.100571 0.736184
vt 0.111361 0.707578
vt 0.041846 0.835705
vt 0.083283 0.832634
vt 0.094195 0.705950
vt 0.037419 0.678642
vt 0.070076 0.801542
vt 0.070168 0.774195
vt 0.041940 0.800380
vt 0.038832 0.768563
vt 0.071914 0.741801
vt 0.035057 0.741282
vt 0.157225 0.722701
vt 0.147648 0.894357
vt 0.144610 0.644744
vt 0.127292 0.721353
vt 0.105358 0.865693
vt 0.103326 0.827015
vt 0.128074 0.922222
vt 0.078399 0.957700
vn -0.680068 0.478999 -0.555039
vn -0.738049 0.467677 -0.486376
vn -0.879803 0.418762 0.224912
vn -0.867753 0.401146 0.293404
vn -0.453849 0.870110 -0.192171
vn -0.677194 0.684677 0.269490
vn 0.131450 0.380133 -0.915543
vn 0.060023 0.365012 -0.929066
vn 0.176911 0.808034 -0.561945
vn 0.400494 0.565619 0.720889
vn 0.508312 0.681082 0.527016
vn -0.011158 0.977618 0.210091
vn -0.277016 0.705213 0.652638
vn 0.774242 0.558802 0.297136
vn 0.555728 0.782692 -0.280287
vn -0.304222 0.107120 0.946559
vn -0.350150 0.116774 0.929386
vn 0.772550 0.201147 -0.602252
vn 0.685465 0.284696 -0.670139
vn 0.350280 -0.002118 0.936643
vn 0.728385 0.085068 0.679867
vn 0.269996 -0.038775 0.962080
vn 0.635424 0.072270 0.768774
vn 0.977480 0.177964 0.113409
vn 0.986011 0.166495 -0.007871
s 1
f 133/192/125 134/193/126 135/163/127 136/164/128
f 137/187/129 133/192/125 136/164/128 138/190/130
f 140/167/131 139/168/132 134/162/126 133/161/125
f 141/169/133 140/167/131 133/161/125 137/188/129
f 126/170/134 125/171/135 130/172/136 131/173/137
f 125/171/135 127/174/138 132/189/139 130/172/136
f 128/176/140 129/177/141 136/164/128 135/163/127
f 129/177/141 131/191/137 138/190/130 136/164/128
f 131/173/137 130/172/136 137/165/129 138/166/130
f 142/178/142 143/179/143 139/168/132 140/167/131
f 132/175/139 142/178/142 140/167/131 141/169/133
f 130/172/136 132/189/139 141/186/133 137/165/129
f 125/171/135 126/170/134 146/180/144 144/181/145
f 144/181/145 146/180/144 147/182/146 145/183/147
f 127/174/138 125/171/135 144/181/145 148/184/148
f 148/184/148 144/181/145 145/183/147 149/185/149
f 131/191/137 129/177/141 146/180/144 126/170/134
f 129/177/141 128/176/140 147/182/146 146/180/144
f 143/179/143 142/178/142 148/184/148 149/185/149
f 142/178/142 132/175/139 127/174/138 148/184/148
